<svg xmlns:svg="http://www.w3.org/2000/svg" xmlns="http://www.w3.org/2000/svg" xmlns:xlink="http://www.w3.org/1999/xlink" version="1.1" viewBox="171.45 65.04 16.6 21.46">
<title>SVG Image created as circuit_board-F_Mask.svg date 2025/01/09 23:32:50 </title>
  <desc>Image generated by PCBNEW </desc>
<g style="fill:#000000; fill-opacity:1.0000;stroke:#000000; stroke-opacity:1.0000; stroke-linecap:round; stroke-linejoin:round;" transform="translate(0 0) scale(1 1)">
<path style="fill:#000000; fill-opacity:1.0000;  stroke:#000000; stroke-width:0.0100; stroke-opacity:1;  stroke-linecap:round; stroke-linejoin:round;fill-rule:evenodd;" d="M 175.4568,65.0521 175.4828,65.0541 175.5088,65.0571 175.5348,65.0621 175.5598,65.0681 175.5858,65.0751 175.6098,65.0841 175.6338,65.0941 175.6578,65.1051 175.6808,65.1181 175.7028,65.1321 175.7248,65.1461 175.7458,65.1621 175.7658,65.1791 175.7848,65.1971 175.8028,65.2161 175.8198,65.2361 175.8358,65.2571 175.8498,65.2791 175.8638,65.3011 175.8768,65.3241 175.8878,65.3481 175.8978,65.3721 175.9068,65.3961 175.9138,65.4221 175.9198,65.4471 175.9248,65.4731 175.9278,65.4991 175.9298,65.5251 175.9308,65.5511 175.9308,65.9511 175.9308,66.3511 175.9298,66.3771 175.9278,66.4031 175.9248,66.4291 175.9198,66.4551 175.9138,66.4801 175.9068,66.5061 175.8978,66.5301 175.8878,66.5541 175.8768,66.5781 175.8638,66.6011 175.8498,66.6231 175.8358,66.6451 175.8198,66.6661 175.8028,66.6861 175.7848,66.7051 175.7658,66.7231 175.7458,66.7401 175.7248,66.7561 175.7028,66.7701 175.6808,66.7841 175.6578,66.7971 175.6338,66.8081 175.6098,66.8181 175.5858,66.8271 175.5598,66.8341 175.5348,66.8401 175.5088,66.8451 175.4828,66.8481 175.4568,66.8501 175.4308,66.8511 175.4048,66.8501 175.3788,66.8481 175.3528,66.8451 175.3268,66.8401 175.3018,66.8341 175.2758,66.8271 175.2518,66.8181 175.2278,66.8081 175.2038,66.7971 175.1808,66.7841 175.1588,66.7701 175.1368,66.7561 175.1158,66.7401 175.0958,66.7231 175.0768,66.7051 175.0588,66.6861 175.0418,66.6661 175.0258,66.6451 175.0118,66.6231 174.9978,66.6011 174.9848,66.5781 174.9738,66.5541 174.9638,66.5301 174.9548,66.5061 174.9478,66.4801 174.9418,66.4551 174.9368,66.4291 174.9338,66.4031 174.9318,66.3771 174.9308,66.3511 174.9308,65.9511 174.9308,65.5511 174.9318,65.5251 174.9338,65.4991 174.9368,65.4731 174.9418,65.4471 174.9478,65.4221 174.9548,65.3961 174.9638,65.3721 174.9738,65.3481 174.9848,65.3241 174.9978,65.3011 175.0118,65.2791 175.0258,65.2571 175.0418,65.2361 175.0588,65.2161 175.0768,65.1971 175.0958,65.1791 175.1158,65.1621 175.1368,65.1461 175.1588,65.1321 175.1808,65.1181 175.2038,65.1051 175.2278,65.0941 175.2518,65.0841 175.2758,65.0751 175.3018,65.0681 175.3268,65.0621 175.3528,65.0571 175.3788,65.0541 175.4048,65.0521 175.4308,65.0511 Z"/> 
<path style="fill:#000000; fill-opacity:1.0000;  stroke:#000000; stroke-width:0.0100; stroke-opacity:1;  stroke-linecap:round; stroke-linejoin:round;fill-rule:evenodd;" d="M 184.0963,65.0502 184.1223,65.0522 184.1483,65.0552 184.1743,65.0602 184.1993,65.0662 184.2253,65.0732 184.2493,65.0822 184.2733,65.0922 184.2973,65.1032 184.3203,65.1162 184.3423,65.1302 184.3643,65.1442 184.3853,65.1602 184.4053,65.1772 184.4243,65.1952 184.4423,65.2142 184.4593,65.2342 184.4753,65.2552 184.4893,65.2772 184.5033,65.2992 184.5163,65.3222 184.5273,65.3462 184.5373,65.3702 184.5463,65.3942 184.5533,65.4202 184.5593,65.4452 184.5643,65.4712 184.5673,65.4972 184.5693,65.5232 184.5703,65.5492 184.5703,65.9492 184.5703,66.3492 184.5693,66.3752 184.5673,66.4012 184.5643,66.4272 184.5593,66.4532 184.5533,66.4782 184.5463,66.5042 184.5373,66.5282 184.5273,66.5522 184.5163,66.5762 184.5033,66.5992 184.4893,66.6212 184.4753,66.6432 184.4593,66.6642 184.4423,66.6842 184.4243,66.7032 184.4053,66.7212 184.3853,66.7382 184.3643,66.7542 184.3423,66.7682 184.3203,66.7822 184.2973,66.7952 184.2733,66.8062 184.2493,66.8162 184.2253,66.8252 184.1993,66.8322 184.1743,66.8382 184.1483,66.8432 184.1223,66.8462 184.0963,66.8482 184.0703,66.8492 184.0443,66.8482 184.0183,66.8462 183.9923,66.8432 183.9663,66.8382 183.9413,66.8322 183.9153,66.8252 183.8913,66.8162 183.8673,66.8062 183.8433,66.7952 183.8203,66.7822 183.7983,66.7682 183.7763,66.7542 183.7553,66.7382 183.7353,66.7212 183.7163,66.7032 183.6983,66.6842 183.6813,66.6642 183.6653,66.6432 183.6513,66.6212 183.6373,66.5992 183.6243,66.5762 183.6133,66.5522 183.6033,66.5282 183.5943,66.5042 183.5873,66.4782 183.5813,66.4532 183.5763,66.4272 183.5733,66.4012 183.5713,66.3752 183.5703,66.3492 183.5703,65.9492 183.5703,65.5492 183.5713,65.5232 183.5733,65.4972 183.5763,65.4712 183.5813,65.4452 183.5873,65.4202 183.5943,65.3942 183.6033,65.3702 183.6133,65.3462 183.6243,65.3222 183.6373,65.2992 183.6513,65.2772 183.6653,65.2552 183.6813,65.2342 183.6983,65.2142 183.7163,65.1952 183.7353,65.1772 183.7553,65.1602 183.7763,65.1442 183.7983,65.1302 183.8203,65.1162 183.8433,65.1032 183.8673,65.0922 183.8913,65.0822 183.9153,65.0732 183.9413,65.0662 183.9663,65.0602 183.9923,65.0552 184.0183,65.0522 184.0443,65.0502 184.0703,65.0492 Z"/> 
<path style="fill:#000000; fill-opacity:1.0000;  stroke:#000000; stroke-width:0.0100; stroke-opacity:1;  stroke-linecap:round; stroke-linejoin:round;fill-rule:evenodd;" d="M 184.0963,65.0502 184.1223,65.0522 184.1483,65.0552 184.1743,65.0602 184.1993,65.0662 184.2253,65.0732 184.2493,65.0822 184.2733,65.0922 184.2973,65.1032 184.3203,65.1162 184.3423,65.1302 184.3643,65.1442 184.3853,65.1602 184.4053,65.1772 184.4243,65.1952 184.4423,65.2142 184.4593,65.2342 184.4753,65.2552 184.4893,65.2772 184.5033,65.2992 184.5163,65.3222 184.5273,65.3462 184.5373,65.3702 184.5463,65.3942 184.5533,65.4202 184.5593,65.4452 184.5643,65.4712 184.5673,65.4972 184.5693,65.5232 184.5703,65.5492 184.5703,65.9492 184.5703,66.3492 184.5693,66.3752 184.5673,66.4012 184.5643,66.4272 184.5593,66.4532 184.5533,66.4782 184.5463,66.5042 184.5373,66.5282 184.5273,66.5522 184.5163,66.5762 184.5033,66.5992 184.4893,66.6212 184.4753,66.6432 184.4593,66.6642 184.4423,66.6842 184.4243,66.7032 184.4053,66.7212 184.3853,66.7382 184.3643,66.7542 184.3423,66.7682 184.3203,66.7822 184.2973,66.7952 184.2733,66.8062 184.2493,66.8162 184.2253,66.8252 184.1993,66.8322 184.1743,66.8382 184.1483,66.8432 184.1223,66.8462 184.0963,66.8482 184.0703,66.8492 184.0443,66.8482 184.0183,66.8462 183.9923,66.8432 183.9663,66.8382 183.9413,66.8322 183.9153,66.8252 183.8913,66.8162 183.8673,66.8062 183.8433,66.7952 183.8203,66.7822 183.7983,66.7682 183.7763,66.7542 183.7553,66.7382 183.7353,66.7212 183.7163,66.7032 183.6983,66.6842 183.6813,66.6642 183.6653,66.6432 183.6513,66.6212 183.6373,66.5992 183.6243,66.5762 183.6133,66.5522 183.6033,66.5282 183.5943,66.5042 183.5873,66.4782 183.5813,66.4532 183.5763,66.4272 183.5733,66.4012 183.5713,66.3752 183.5703,66.3492 183.5703,65.9492 183.5703,65.5492 183.5713,65.5232 183.5733,65.4972 183.5763,65.4712 183.5813,65.4452 183.5873,65.4202 183.5943,65.3942 183.6033,65.3702 183.6133,65.3462 183.6243,65.3222 183.6373,65.2992 183.6513,65.2772 183.6653,65.2552 183.6813,65.2342 183.6983,65.2142 183.7163,65.1952 183.7353,65.1772 183.7553,65.1602 183.7763,65.1442 183.7983,65.1302 183.8203,65.1162 183.8433,65.1032 183.8673,65.0922 183.8913,65.0822 183.9153,65.0732 183.9413,65.0662 183.9663,65.0602 183.9923,65.0552 184.0183,65.0522 184.0443,65.0502 184.0703,65.0492 Z"/> 
<path style="fill:#000000; fill-opacity:1.0000; stroke:none;fill-rule:evenodd;" d="M 183.0500,84.9000 183.0500,86.5000 182.0500,86.5000 182.0500,84.9000 Z"/> 
<path style="fill:#000000; fill-opacity:1.0000; stroke:none;fill-rule:evenodd;" d="M 178.9500,84.9000 178.9500,86.5000 177.9500,86.5000 177.9500,84.9000 Z"/> 
<path style="fill:#000000; fill-opacity:1.0000; stroke:none;fill-rule:evenodd;" d="M 182.7750,74.9250 182.7750,73.9750 183.6500,73.9750 183.6500,74.9250 Z"/> 
<path style="fill:#000000; fill-opacity:1.0000; stroke:none;fill-rule:evenodd;" d="M 184.3500,74.9250 184.3500,73.9750 185.2250,73.9750 185.2250,74.9250 Z"/> 
<path style="fill:#000000; fill-opacity:1.0000; stroke:none;fill-rule:evenodd;" d="M 174.5070,71.5538 173.5570,71.5538 173.5570,70.6788 174.5070,70.6788 Z"/> 
<path style="fill:#000000; fill-opacity:1.0000; stroke:none;fill-rule:evenodd;" d="M 174.5070,69.9788 173.5570,69.9788 173.5570,69.1038 174.5070,69.1038 Z"/> 
<path style="fill:#000000; fill-opacity:1.0000; stroke:none;fill-rule:evenodd;" d="M 177.7900,81.2500 178.2100,81.2500 178.2100,81.6500 177.7900,81.6500 Z"/> 
<path style="fill:#000000; fill-opacity:1.0000; stroke:none;fill-rule:evenodd;" d="M 177.7900,81.8100 178.2100,81.8100 178.2100,82.2100 177.7900,82.2100 Z"/> 
</g>
<g style="fill:#000000; fill-opacity:1.0000; stroke:none;">
<circle cx="187.2500" cy="81.4500" r="0.8000"/> 
<path style="fill:#000000; fill-opacity:1.0000; stroke:none;fill-rule:evenodd;" d="M 175.7803,79.2954 175.7803,78.8954 176.1603,78.8954 176.1603,79.2954 Z"/> 
<path style="fill:#000000; fill-opacity:1.0000; stroke:none;fill-rule:evenodd;" d="M 176.3423,79.2954 176.3423,78.8954 176.7223,78.8954 176.7223,79.2954 Z"/> 
<path style="fill:#000000; fill-opacity:1.0000; stroke:none;fill-rule:evenodd;" d="M 173.3000,79.5000 173.3000,78.9000 173.8900,78.9000 173.8900,79.5000 Z"/> 
<path style="fill:#000000; fill-opacity:1.0000; stroke:none;fill-rule:evenodd;" d="M 174.1100,79.5000 174.1100,78.9000 174.7000,78.9000 174.7000,79.5000 Z"/> 
</g>
<g style="fill:#000000; fill-opacity:1.0000; stroke:none;">
<circle cx="187.2500" cy="76.4500" r="0.8000"/> 
<path style="fill:#000000; fill-opacity:1.0000; stroke:none;fill-rule:evenodd;" d="M 185.8475,74.9047 185.4475,74.9047 185.4475,74.5247 185.8475,74.5247 Z"/> 
<path style="fill:#000000; fill-opacity:1.0000; stroke:none;fill-rule:evenodd;" d="M 185.8475,74.3427 185.4475,74.3427 185.4475,73.9627 185.8475,73.9627 Z"/> 
<path style="fill:#000000; fill-opacity:1.0000; stroke:none;fill-rule:evenodd;" d="M 173.7100,82.6800 173.2900,82.6800 173.2900,82.2800 173.7100,82.2800 Z"/> 
<path style="fill:#000000; fill-opacity:1.0000; stroke:none;fill-rule:evenodd;" d="M 173.7100,82.1200 173.2900,82.1200 173.2900,81.7200 173.7100,81.7200 Z"/> 
<path style="fill:#000000; fill-opacity:1.0000; stroke:none;fill-rule:evenodd;" d="M 185.5910,68.6500 185.5910,68.2500 185.9710,68.2500 185.9710,68.6500 Z"/> 
<path style="fill:#000000; fill-opacity:1.0000; stroke:none;fill-rule:evenodd;" d="M 185.0290,68.6500 185.0290,68.2500 185.4090,68.2500 185.4090,68.6500 Z"/> 
<path style="fill:#000000; fill-opacity:1.0000; stroke:none;fill-rule:evenodd;" d="M 175.7790,79.9000 175.7790,79.5000 176.1590,79.5000 176.1590,79.9000 Z"/> 
<path style="fill:#000000; fill-opacity:1.0000; stroke:none;fill-rule:evenodd;" d="M 176.3410,79.9000 176.3410,79.5000 176.7210,79.5000 176.7210,79.9000 Z"/> 
<path style="fill:#000000; fill-opacity:1.0000; stroke:none;fill-rule:evenodd;" d="M 183.7900,81.7500 184.2100,81.7500 184.2100,82.1500 183.7900,82.1500 Z"/> 
<path style="fill:#000000; fill-opacity:1.0000; stroke:none;fill-rule:evenodd;" d="M 183.7900,82.3100 184.2100,82.3100 184.2100,82.7100 183.7900,82.7100 Z"/> 
</g>
<g style="fill:#000000; fill-opacity:1.0000; stroke:none;">
<circle cx="187.2500" cy="71.4500" r="0.8000"/> 
</g>
<g style="fill:#000000; fill-opacity:1.0000; stroke:none;">
<circle cx="172.2500" cy="71.4500" r="0.8000"/> 
<path style="fill:#000000; fill-opacity:1.0000; stroke:none;fill-rule:evenodd;" d="M 185.0307,77.2998 185.4507,77.2998 185.4507,77.6998 185.0307,77.6998 Z"/> 
<path style="fill:#000000; fill-opacity:1.0000; stroke:none;fill-rule:evenodd;" d="M 185.0307,77.8598 185.4507,77.8598 185.4507,78.2598 185.0307,78.2598 Z"/> 
<path style="fill:#000000; fill-opacity:1.0000; stroke:none;fill-rule:evenodd;" d="M 186.1900,69.5000 186.1900,69.9000 185.8100,69.9000 185.8100,69.5000 Z"/> 
<path style="fill:#000000; fill-opacity:1.0000; stroke:none;fill-rule:evenodd;" d="M 185.6280,69.5000 185.6280,69.9000 185.2480,69.9000 185.2480,69.5000 Z"/> 
<path style="fill:#000000; fill-opacity:1.0000; stroke:none;fill-rule:evenodd;" d="M 177.7900,75.0600 178.2100,75.0600 178.2100,75.4600 177.7900,75.4600 Z"/> 
<path style="fill:#000000; fill-opacity:1.0000; stroke:none;fill-rule:evenodd;" d="M 177.7900,74.5000 178.2100,74.5000 178.2100,74.9000 177.7900,74.9000 Z"/> 
<path style="fill:#000000; fill-opacity:1.0000; stroke:none;fill-rule:evenodd;" d="M 184.4170,81.7553 184.8370,81.7553 184.8370,82.1553 184.4170,82.1553 Z"/> 
<path style="fill:#000000; fill-opacity:1.0000; stroke:none;fill-rule:evenodd;" d="M 184.4170,82.3153 184.8370,82.3153 184.8370,82.7153 184.4170,82.7153 Z"/> 
</g>
<g style="fill:#000000; fill-opacity:1.0000; stroke:none;">
<circle cx="172.2500" cy="76.4500" r="0.8000"/> 
<path style="fill:#000000; fill-opacity:1.0000; stroke:none;fill-rule:evenodd;" d="M 173.6578,72.6911 173.6578,72.2911 174.0378,72.2911 174.0378,72.6911 Z"/> 
<path style="fill:#000000; fill-opacity:1.0000; stroke:none;fill-rule:evenodd;" d="M 174.2198,72.6911 174.2198,72.2911 174.5998,72.2911 174.5998,72.6911 Z"/> 
<path style="fill:#000000; fill-opacity:1.0000; stroke:none;fill-rule:evenodd;" d="M 185.0431,80.0497 185.0431,79.6297 185.4432,79.6297 185.4432,80.0497 Z"/> 
<path style="fill:#000000; fill-opacity:1.0000; stroke:none;fill-rule:evenodd;" d="M 185.6031,80.0497 185.6031,79.6297 186.0032,79.6297 186.0032,80.0497 Z"/> 
<path style="fill:#000000; fill-opacity:1.0000; stroke:none;fill-rule:evenodd;" d="M 185.0277,68.0438 185.0277,67.6438 185.4077,67.6438 185.4077,68.0438 Z"/> 
<path style="fill:#000000; fill-opacity:1.0000; stroke:none;fill-rule:evenodd;" d="M 185.5897,68.0438 185.5897,67.6438 185.9697,67.6438 185.9697,68.0438 Z"/> 
<path style="fill:#000000; fill-opacity:1.0000; stroke:none;fill-rule:evenodd;" d="M 182.8663,77.9500 180.2500,80.5663 177.6337,77.9500 180.2500,75.3337 Z"/> 
<path style="fill:#000000; fill-opacity:1.0000; stroke:none;fill-rule:evenodd;" d="M 180.1369,80.7289 179.6384,81.2274 179.4474,81.0365 179.9459,80.5380 Z"/> 
<path style="fill:#000000; fill-opacity:1.0000; stroke:none;fill-rule:evenodd;" d="M 179.7833,80.3754 179.2848,80.8739 179.0939,80.6830 179.5924,80.1845 Z"/> 
<path style="fill:#000000; fill-opacity:1.0000; stroke:none;fill-rule:evenodd;" d="M 179.4298,80.0218 178.9312,80.5203 178.7403,80.3294 179.2388,79.8309 Z"/> 
<path style="fill:#000000; fill-opacity:1.0000; stroke:none;fill-rule:evenodd;" d="M 179.0762,79.6683 178.5777,80.1668 178.3868,79.9759 178.8853,79.4774 Z"/> 
<path style="fill:#000000; fill-opacity:1.0000; stroke:none;fill-rule:evenodd;" d="M 178.7226,79.3147 178.2241,79.8132 178.0332,79.6223 178.5317,79.1238 Z"/> 
<path style="fill:#000000; fill-opacity:1.0000; stroke:none;fill-rule:evenodd;" d="M 178.3691,78.9612 177.8706,79.4597 177.6797,79.2688 178.1782,78.7702 Z"/> 
<path style="fill:#000000; fill-opacity:1.0000; stroke:none;fill-rule:evenodd;" d="M 178.0155,78.6076 177.5170,79.1061 177.3261,78.9152 177.8246,78.4167 Z"/> 
<path style="fill:#000000; fill-opacity:1.0000; stroke:none;fill-rule:evenodd;" d="M 177.6620,78.2541 177.1635,78.7526 176.9726,78.5616 177.4711,78.0631 Z"/> 
<path style="fill:#000000; fill-opacity:1.0000; stroke:none;fill-rule:evenodd;" d="M 177.6620,77.6459 177.4711,77.8369 176.9726,77.3384 177.1635,77.1474 Z"/> 
<path style="fill:#000000; fill-opacity:1.0000; stroke:none;fill-rule:evenodd;" d="M 178.0155,77.2924 177.8246,77.4833 177.3261,76.9848 177.5170,76.7939 Z"/> 
<path style="fill:#000000; fill-opacity:1.0000; stroke:none;fill-rule:evenodd;" d="M 178.3691,76.9388 178.1782,77.1298 177.6797,76.6312 177.8706,76.4403 Z"/> 
<path style="fill:#000000; fill-opacity:1.0000; stroke:none;fill-rule:evenodd;" d="M 178.7226,76.5853 178.5317,76.7762 178.0332,76.2777 178.2241,76.0868 Z"/> 
<path style="fill:#000000; fill-opacity:1.0000; stroke:none;fill-rule:evenodd;" d="M 179.0762,76.2317 178.8853,76.4226 178.3868,75.9241 178.5777,75.7332 Z"/> 
<path style="fill:#000000; fill-opacity:1.0000; stroke:none;fill-rule:evenodd;" d="M 179.4298,75.8782 179.2388,76.0691 178.7403,75.5706 178.9312,75.3797 Z"/> 
<path style="fill:#000000; fill-opacity:1.0000; stroke:none;fill-rule:evenodd;" d="M 179.7833,75.5246 179.5924,75.7155 179.0939,75.2170 179.2848,75.0261 Z"/> 
<path style="fill:#000000; fill-opacity:1.0000; stroke:none;fill-rule:evenodd;" d="M 180.1369,75.1711 179.9459,75.3620 179.4474,74.8635 179.6384,74.6726 Z"/> 
<path style="fill:#000000; fill-opacity:1.0000; stroke:none;fill-rule:evenodd;" d="M 181.0526,74.8635 180.5541,75.3620 180.3631,75.1711 180.8616,74.6726 Z"/> 
<path style="fill:#000000; fill-opacity:1.0000; stroke:none;fill-rule:evenodd;" d="M 181.4061,75.2170 180.9076,75.7155 180.7167,75.5246 181.2152,75.0261 Z"/> 
<path style="fill:#000000; fill-opacity:1.0000; stroke:none;fill-rule:evenodd;" d="M 181.7597,75.5706 181.2612,76.0691 181.0702,75.8782 181.5688,75.3797 Z"/> 
<path style="fill:#000000; fill-opacity:1.0000; stroke:none;fill-rule:evenodd;" d="M 182.1132,75.9241 181.6147,76.4226 181.4238,76.2317 181.9223,75.7332 Z"/> 
<path style="fill:#000000; fill-opacity:1.0000; stroke:none;fill-rule:evenodd;" d="M 182.4668,76.2777 181.9683,76.7762 181.7773,76.5853 182.2759,76.0868 Z"/> 
<path style="fill:#000000; fill-opacity:1.0000; stroke:none;fill-rule:evenodd;" d="M 182.8203,76.6312 182.3218,77.1298 182.1309,76.9388 182.6294,76.4403 Z"/> 
<path style="fill:#000000; fill-opacity:1.0000; stroke:none;fill-rule:evenodd;" d="M 183.1739,76.9848 182.6754,77.4833 182.4845,77.2924 182.9830,76.7939 Z"/> 
<path style="fill:#000000; fill-opacity:1.0000; stroke:none;fill-rule:evenodd;" d="M 183.5274,77.3384 183.0289,77.8369 182.8380,77.6459 183.3365,77.1474 Z"/> 
<path style="fill:#000000; fill-opacity:1.0000; stroke:none;fill-rule:evenodd;" d="M 183.5274,78.5616 183.3365,78.7526 182.8380,78.2541 183.0289,78.0631 Z"/> 
<path style="fill:#000000; fill-opacity:1.0000; stroke:none;fill-rule:evenodd;" d="M 183.1739,78.9152 182.9830,79.1061 182.4845,78.6076 182.6754,78.4167 Z"/> 
<path style="fill:#000000; fill-opacity:1.0000; stroke:none;fill-rule:evenodd;" d="M 182.8203,79.2688 182.6294,79.4597 182.1309,78.9612 182.3218,78.7702 Z"/> 
<path style="fill:#000000; fill-opacity:1.0000; stroke:none;fill-rule:evenodd;" d="M 182.4668,79.6223 182.2759,79.8132 181.7773,79.3147 181.9683,79.1238 Z"/> 
<path style="fill:#000000; fill-opacity:1.0000; stroke:none;fill-rule:evenodd;" d="M 182.1132,79.9759 181.9223,80.1668 181.4238,79.6683 181.6147,79.4774 Z"/> 
<path style="fill:#000000; fill-opacity:1.0000; stroke:none;fill-rule:evenodd;" d="M 181.7597,80.3294 181.5688,80.5203 181.0702,80.0218 181.2612,79.8309 Z"/> 
<path style="fill:#000000; fill-opacity:1.0000; stroke:none;fill-rule:evenodd;" d="M 181.4061,80.6830 181.2152,80.8739 180.7167,80.3754 180.9076,80.1845 Z"/> 
<path style="fill:#000000; fill-opacity:1.0000; stroke:none;fill-rule:evenodd;" d="M 181.0526,81.0365 180.8616,81.2274 180.3631,80.7289 180.5541,80.5380 Z"/> 
</g>
<g style="fill:#000000; fill-opacity:1.0000; stroke:none;">
<circle cx="187.2500" cy="66.4500" r="0.8000"/> 
</g>
<g style="fill:#000000; fill-opacity:1.0000; stroke:none;">
<circle cx="172.2500" cy="73.9500" r="0.8000"/> 
<path style="fill:#000000; fill-opacity:1.0000; stroke:none;fill-rule:evenodd;" d="M 185.0817,77.1002 185.0817,76.7002 185.4617,76.7002 185.4617,77.1002 Z"/> 
<path style="fill:#000000; fill-opacity:1.0000; stroke:none;fill-rule:evenodd;" d="M 185.6437,77.1002 185.6437,76.7002 186.0237,76.7002 186.0237,77.1002 Z"/> 
</g>
<g style="fill:#000000; fill-opacity:1.0000; stroke:none;">
<circle cx="187.2500" cy="78.9500" r="0.8000"/> 
</g>
<g style="fill:#000000; fill-opacity:1.0000; stroke:none;">
<circle cx="187.2500" cy="83.9500" r="0.8000"/> 
<path style="fill:#000000; fill-opacity:1.0000; stroke:none;fill-rule:evenodd;" d="M 185.6629,77.3008 186.0829,77.3008 186.0829,77.7008 185.6629,77.7008 Z"/> 
<path style="fill:#000000; fill-opacity:1.0000; stroke:none;fill-rule:evenodd;" d="M 185.6629,77.8608 186.0829,77.8608 186.0829,78.2608 185.6629,78.2608 Z"/> 
<path style="fill:#000000; fill-opacity:1.0000; stroke:none;fill-rule:evenodd;" d="M 186.0032,80.2434 186.0032,80.6634 185.6031,80.6634 185.6031,80.2434 Z"/> 
<path style="fill:#000000; fill-opacity:1.0000; stroke:none;fill-rule:evenodd;" d="M 185.4432,80.2434 185.4432,80.6634 185.0431,80.6634 185.0431,80.2434 Z"/> 
<path style="fill:#000000; fill-opacity:1.0000; stroke:none;fill-rule:evenodd;" d="M 184.8377,80.6379 184.4177,80.6379 184.4177,80.2379 184.8377,80.2379 Z"/> 
<path style="fill:#000000; fill-opacity:1.0000; stroke:none;fill-rule:evenodd;" d="M 184.8377,80.0779 184.4177,80.0779 184.4177,79.6779 184.8377,79.6779 Z"/> 
</g>
<g style="fill:#000000; fill-opacity:1.0000; stroke:none;">
<circle cx="172.2500" cy="66.4500" r="0.8000"/> 
<path style="fill:#000000; fill-opacity:1.0000; stroke:none;fill-rule:evenodd;" d="M 185.0400,78.4700 185.4600,78.4700 185.4600,78.8700 185.0400,78.8700 Z"/> 
<path style="fill:#000000; fill-opacity:1.0000; stroke:none;fill-rule:evenodd;" d="M 185.0400,79.0300 185.4600,79.0300 185.4600,79.4300 185.0400,79.4300 Z"/> 
</g>
<g style="fill:#000000; fill-opacity:1.0000; stroke:none;">
<circle cx="172.2500" cy="83.9500" r="0.8000"/> 
<path style="fill:#000000; fill-opacity:1.0000; stroke:none;fill-rule:evenodd;" d="M 173.5234,68.9027 173.5234,68.5027 173.9034,68.5027 173.9034,68.9027 Z"/> 
<path style="fill:#000000; fill-opacity:1.0000; stroke:none;fill-rule:evenodd;" d="M 174.0854,68.9027 174.0854,68.5027 174.4654,68.5027 174.4654,68.9027 Z"/> 
<path style="fill:#000000; fill-opacity:1.0000; stroke:none;fill-rule:evenodd;" d="M 180.0283,71.4909 180.0283,73.4909 179.2283,73.4909 179.2283,71.4909 Z"/> 
<path style="fill:#000000; fill-opacity:1.0000; stroke:none;fill-rule:evenodd;" d="M 175.8283,71.4909 175.8283,73.4909 175.0283,73.4909 175.0283,71.4909 Z"/> 
<path style="fill:#000000; fill-opacity:1.0000; stroke:none;fill-rule:evenodd;" d="M 184.9500,82.0600 185.5500,82.0600 185.5500,82.6500 184.9500,82.6500 Z"/> 
<path style="fill:#000000; fill-opacity:1.0000; stroke:none;fill-rule:evenodd;" d="M 184.9500,81.2500 185.5500,81.2500 185.5500,81.8400 184.9500,81.8400 Z"/> 
<path style="fill:#000000; fill-opacity:1.0000; stroke:none;fill-rule:evenodd;" d="M 181.5255,82.2584 181.8084,81.9755 182.0771,82.2442 181.7942,82.5271 Z"/> 
<path style="fill:#000000; fill-opacity:1.0000; stroke:none;fill-rule:evenodd;" d="M 181.9229,82.6558 182.2058,82.3729 182.4745,82.6416 182.1916,82.9245 Z"/> 
<path style="fill:#000000; fill-opacity:1.0000; stroke:none;fill-rule:evenodd;" d="M 180.3550,81.9000 180.3550,82.5000 179.7650,82.5000 179.7650,81.9000 Z"/> 
<path style="fill:#000000; fill-opacity:1.0000; stroke:none;fill-rule:evenodd;" d="M 179.5450,81.9000 179.5450,82.5000 178.9550,82.5000 178.9550,81.9000 Z"/> 
<path style="fill:#000000; fill-opacity:1.0000; stroke:none;fill-rule:evenodd;" d="M 175.2050,83.3550 173.9950,83.3550 173.9950,82.2450 175.2050,82.2450 Z"/> 
<path style="fill:#000000; fill-opacity:1.0000; stroke:none;fill-rule:evenodd;" d="M 177.5050,83.3550 176.2950,83.3550 176.2950,82.2450 177.5050,82.2450 Z"/> 
<path style="fill:#000000; fill-opacity:1.0000; stroke:none;fill-rule:evenodd;" d="M 177.5050,81.6550 176.2950,81.6550 176.2950,80.5450 177.5050,80.5450 Z"/> 
<path style="fill:#000000; fill-opacity:1.0000; stroke:none;fill-rule:evenodd;" d="M 175.2050,81.6550 173.9950,81.6550 173.9950,80.5450 175.2050,80.5450 Z"/> 
<path style="fill:#000000; fill-opacity:1.0000; stroke:none;fill-rule:evenodd;" d="M 173.5950,78.3100 173.0050,78.3100 173.0050,77.1000 173.5950,77.1000 Z"/> 
<path style="fill:#000000; fill-opacity:1.0000; stroke:none;fill-rule:evenodd;" d="M 174.5450,78.3100 173.9550,78.3100 173.9550,77.1000 174.5450,77.1000 Z"/> 
<path style="fill:#000000; fill-opacity:1.0000; stroke:none;fill-rule:evenodd;" d="M 175.4950,78.3100 174.9050,78.3100 174.9050,77.1000 175.4950,77.1000 Z"/> 
<path style="fill:#000000; fill-opacity:1.0000; stroke:none;fill-rule:evenodd;" d="M 175.4950,75.8000 174.9050,75.8000 174.9050,74.5900 175.4950,74.5900 Z"/> 
<path style="fill:#000000; fill-opacity:1.0000; stroke:none;fill-rule:evenodd;" d="M 173.5950,75.8000 173.0050,75.8000 173.0050,74.5900 173.5950,74.5900 Z"/> 
<path style="fill:#000000; fill-opacity:1.0000; stroke:none;fill-rule:evenodd;" d="M 174.2305,68.2982 173.7305,68.2982 173.7305,67.7982 174.2305,67.7982 Z"/> 
<path style="fill:#000000; fill-opacity:1.0000; stroke:none;fill-rule:evenodd;" d="M 174.2305,66.0982 173.7305,66.0982 173.7305,65.5982 174.2305,65.5982 Z"/> 
</g>
<g style="fill:#000000; fill-opacity:1.0000; stroke:none;">
<circle cx="172.2500" cy="68.9500" r="0.8000"/> 
<path style="fill:#000000; fill-opacity:1.0000; stroke:none;fill-rule:evenodd;" d="M 184.4415,73.4974 184.4415,71.4974 185.2415,71.4974 185.2415,73.4974 Z"/> 
<path style="fill:#000000; fill-opacity:1.0000; stroke:none;fill-rule:evenodd;" d="M 180.2415,73.4974 180.2415,71.4974 181.0415,71.4974 181.0415,73.4974 Z"/> 
<path style="fill:#000000; fill-opacity:1.0000; stroke:none;fill-rule:evenodd;" d="M 177.1669,74.4965 177.5869,74.4965 177.5869,74.8965 177.1669,74.8965 Z"/> 
<path style="fill:#000000; fill-opacity:1.0000; stroke:none;fill-rule:evenodd;" d="M 177.1669,75.0565 177.5869,75.0565 177.5869,75.4565 177.1669,75.4565 Z"/> 
</g>
<g style="fill:#000000; fill-opacity:1.0000; stroke:none;">
<circle cx="187.2500" cy="68.9500" r="0.8000"/> 
<path style="fill:#000000; fill-opacity:1.0000; stroke:none;fill-rule:evenodd;" d="M 185.6636,78.4700 186.0836,78.4700 186.0836,78.8700 185.6636,78.8700 Z"/> 
<path style="fill:#000000; fill-opacity:1.0000; stroke:none;fill-rule:evenodd;" d="M 185.6636,79.0300 186.0836,79.0300 186.0836,79.4300 185.6636,79.4300 Z"/> 
</g>
<g style="fill:#000000; fill-opacity:1.0000; stroke:none;">
<circle cx="172.2500" cy="78.9500" r="0.8000"/> 
<path style="fill:#000000; fill-opacity:1.0000; stroke:none;fill-rule:evenodd;" d="M 184.7210,75.2500 184.7210,75.6500 184.3410,75.6500 184.3410,75.2500 Z"/> 
<path style="fill:#000000; fill-opacity:1.0000; stroke:none;fill-rule:evenodd;" d="M 184.1590,75.2500 184.1590,75.6500 183.7790,75.6500 183.7790,75.2500 Z"/> 
</g>
<g style="fill:#000000; fill-opacity:1.0000; stroke:none;">
<circle cx="187.2500" cy="73.9500" r="0.8000"/> 
</g>
<g style="fill:#000000; fill-opacity:1.0000; stroke:none;">
<circle cx="172.2500" cy="81.4500" r="0.8000"/> 
</g>
<g style="fill:#000000; fill-opacity:1.0000; stroke:none;">
<circle cx="182.6400" cy="69.6300" r="0.3250"/> 
</g>
<g style="fill:#000000; fill-opacity:1.0000; stroke:none;">
<circle cx="176.8600" cy="69.6300" r="0.3250"/> 
<path style="fill:#000000; fill-opacity:1.0000; stroke:none;fill-rule:evenodd;" d="M 183.2500,70.1300 183.2500,71.2800 182.6500,71.2800 182.6500,70.1300 Z"/> 
<path style="fill:#000000; fill-opacity:1.0000; stroke:none;fill-rule:evenodd;" d="M 182.4500,70.1300 182.4500,71.2800 181.8500,71.2800 181.8500,70.1300 Z"/> 
<path style="fill:#000000; fill-opacity:1.0000; stroke:none;fill-rule:evenodd;" d="M 181.1500,70.1300 181.1500,71.2800 180.8500,71.2800 180.8500,70.1300 Z"/> 
<path style="fill:#000000; fill-opacity:1.0000; stroke:none;fill-rule:evenodd;" d="M 180.1500,70.1300 180.1500,71.2800 179.8500,71.2800 179.8500,70.1300 Z"/> 
<path style="fill:#000000; fill-opacity:1.0000; stroke:none;fill-rule:evenodd;" d="M 179.6500,70.1300 179.6500,71.2800 179.3500,71.2800 179.3500,70.1300 Z"/> 
<path style="fill:#000000; fill-opacity:1.0000; stroke:none;fill-rule:evenodd;" d="M 178.6500,70.1300 178.6500,71.2800 178.3500,71.2800 178.3500,70.1300 Z"/> 
<path style="fill:#000000; fill-opacity:1.0000; stroke:none;fill-rule:evenodd;" d="M 176.8500,70.1300 176.8500,71.2800 176.2500,71.2800 176.2500,70.1300 Z"/> 
<path style="fill:#000000; fill-opacity:1.0000; stroke:none;fill-rule:evenodd;" d="M 177.6500,70.1300 177.6500,71.2800 177.0500,71.2800 177.0500,70.1300 Z"/> 
<path style="fill:#000000; fill-opacity:1.0000; stroke:none;fill-rule:evenodd;" d="M 178.1500,70.1300 178.1500,71.2800 177.8500,71.2800 177.8500,70.1300 Z"/> 
<path style="fill:#000000; fill-opacity:1.0000; stroke:none;fill-rule:evenodd;" d="M 179.1500,70.1300 179.1500,71.2800 178.8500,71.2800 178.8500,70.1300 Z"/> 
<path style="fill:#000000; fill-opacity:1.0000; stroke:none;fill-rule:evenodd;" d="M 180.6500,70.1300 180.6500,71.2800 180.3500,71.2800 180.3500,70.1300 Z"/> 
<path style="fill:#000000; fill-opacity:1.0000; stroke:none;fill-rule:evenodd;" d="M 181.6500,70.1300 181.6500,71.2800 181.3500,71.2800 181.3500,70.1300 Z"/> 
</g>
<g style="fill:none;  stroke:#000000; stroke-width:1.0000; stroke-opacity:1;  stroke-linecap:round; stroke-linejoin:round;">
<path d="M184.0700 70.6800 L184.0700 69.5800 "/>
<path d="M175.4300 70.6800 L175.4300 69.5800 "/>
</g>
<g style="fill:#000000; fill-opacity:1.0000; stroke:none;">
<circle cx="177.2500" cy="72.2000" r="0.2000"/> 
</g>
<g style="fill:#000000; fill-opacity:1.0000; stroke:none;">
<circle cx="177.0000" cy="73.4500" r="0.2000"/> 
</g>
<g style="fill:#000000; fill-opacity:1.0000; stroke:none;">
<circle cx="176.7500" cy="74.4500" r="0.2000"/> 
</g>
<g style="fill:#000000; fill-opacity:1.0000; stroke:none;">
<circle cx="176.2500" cy="73.2000" r="0.2000"/> 
</g>
<g style="fill:#000000; fill-opacity:1.0000; stroke:none;">
<circle cx="176.0000" cy="74.4500" r="0.2000"/> 
</g>
<g style="fill:#000000; fill-opacity:1.0000; stroke:none;">
<circle cx="179.0000" cy="69.7000" r="0.2000"/> 
</g>
<g style="fill:#000000; fill-opacity:1.0000; stroke:none;">
<circle cx="180.0000" cy="69.7000" r="0.2000"/> 
</g>
<g style="fill:#000000; fill-opacity:1.0000; stroke:none;">
<circle cx="178.5000" cy="75.2000" r="0.2000"/> 
</g>
<g style="fill:#000000; fill-opacity:1.0000; stroke:none;">
<circle cx="179.7500" cy="73.9500" r="0.2000"/> 
</g>
<g style="fill:#000000; fill-opacity:1.0000; stroke:none;">
<circle cx="173.5000" cy="71.9500" r="0.2000"/> 
</g>
<g style="fill:#000000; fill-opacity:1.0000; stroke:none;">
<circle cx="174.2500" cy="73.9500" r="0.2000"/> 
</g>
<g style="fill:#000000; fill-opacity:1.0000; stroke:none;">
<circle cx="174.4050" cy="78.7000" r="0.2000"/> 
</g>
<g style="fill:#000000; fill-opacity:1.0000; stroke:none;">
<circle cx="177.5000" cy="76.2000" r="0.2000"/> 
</g>
<g style="fill:#000000; fill-opacity:1.0000; stroke:none;">
<circle cx="185.2500" cy="67.2000" r="0.2000"/> 
</g>
<g style="fill:#000000; fill-opacity:1.0000; stroke:none;">
<circle cx="181.7500" cy="71.9500" r="0.2000"/> 
</g>
<g style="fill:#000000; fill-opacity:1.0000; stroke:none;">
<circle cx="182.0000" cy="74.4500" r="0.2000"/> 
</g>
<g style="fill:#000000; fill-opacity:1.0000; stroke:none;">
<circle cx="181.5000" cy="74.9500" r="0.2000"/> 
</g>
<g style="fill:#000000; fill-opacity:1.0000; stroke:none;">
<circle cx="184.2500" cy="77.9500" r="0.2000"/> 
</g>
<g style="fill:#000000; fill-opacity:1.0000; stroke:none;">
<circle cx="176.2500" cy="71.7000" r="0.2000"/> 
</g>
<g style="fill:#000000; fill-opacity:1.0000; stroke:none;">
<circle cx="178.7500" cy="73.4500" r="0.2000"/> 
</g>
<g style="fill:#000000; fill-opacity:1.0000; stroke:none;">
<circle cx="183.2500" cy="75.4500" r="0.2000"/> 
</g>
<g style="fill:#000000; fill-opacity:1.0000; stroke:none;">
<circle cx="182.6090" cy="75.9446" r="0.2000"/> 
</g>
<g style="fill:#000000; fill-opacity:1.0000; stroke:none;">
<circle cx="181.0000" cy="74.7000" r="0.2000"/> 
</g>
<g style="fill:#000000; fill-opacity:1.0000; stroke:none;">
<circle cx="175.7500" cy="81.9500" r="0.2000"/> 
</g>
<g style="fill:#000000; fill-opacity:1.0000; stroke:none;">
<circle cx="177.4365" cy="79.6694" r="0.2000"/> 
</g>
<g style="fill:#000000; fill-opacity:1.0000; stroke:none;">
<circle cx="179.2500" cy="81.4500" r="0.2000"/> 
</g>
<g style="fill:#000000; fill-opacity:1.0000; stroke:none;">
<circle cx="181.0000" cy="82.2000" r="0.2000"/> 
</g>
<g style="fill:#000000; fill-opacity:1.0000; stroke:none;">
<circle cx="184.0000" cy="76.7000" r="0.2000"/> 
</g>
<g style="fill:#000000; fill-opacity:1.0000; stroke:none;">
<circle cx="183.2500" cy="81.9500" r="0.2000"/> 
</g>
<g style="fill:#000000; fill-opacity:1.0000; stroke:none;">
<circle cx="181.5091" cy="81.6945" r="0.2000"/> 
</g>
<g style="fill:#000000; fill-opacity:1.0000; stroke:none;">
<circle cx="184.5000" cy="81.4500" r="0.2000"/> 
</g>
<g style="fill:#000000; fill-opacity:1.0000; stroke:none;">
<circle cx="183.0000" cy="83.4500" r="0.2000"/> 
</g>
<g style="fill:#000000; fill-opacity:1.0000; stroke:none;">
<circle cx="175.7500" cy="82.9500" r="0.2000"/> 
</g>
<g style="fill:#000000; fill-opacity:1.0000; stroke:none;">
<circle cx="178.7500" cy="81.2000" r="0.2000"/> 
</g>
<g style="fill:#000000; fill-opacity:1.0000; stroke:none;">
<circle cx="177.9321" cy="79.9079" r="0.2000"/> 
</g>
<g style="fill:#000000; fill-opacity:1.0000; stroke:none;">
<circle cx="184.5000" cy="76.2000" r="0.2000"/> 
</g>
<g style="fill:#000000; fill-opacity:1.0000; stroke:none;">
<circle cx="186.5000" cy="77.9500" r="0.2000"/> 
</g>
<g style="fill:#000000; fill-opacity:1.0000; stroke:none;">
<circle cx="176.2500" cy="72.4500" r="0.2000"/> 
</g>
<g style="fill:#000000; fill-opacity:1.0000; stroke:none;">
<circle cx="183.2500" cy="79.1822" r="0.2000"/> 
</g>
<g style="fill:#000000; fill-opacity:1.0000; stroke:none;">
<circle cx="183.2500" cy="80.2000" r="0.2000"/> 
</g>
<g style="fill:#000000; fill-opacity:1.0000; stroke:none;">
<circle cx="182.7692" cy="80.4671" r="0.2000"/> 
</g>
<g style="fill:#000000; fill-opacity:1.0000; stroke:none;">
<circle cx="181.7500" cy="81.2000" r="0.2000"/> 
</g>
<g style="fill:#000000; fill-opacity:1.0000; stroke:none;">
<circle cx="184.7028" cy="79.4028" r="0.2000"/> 
</g>
<g style="fill:#000000; fill-opacity:1.0000; stroke:none;">
<circle cx="180.3750" cy="78.0750" r="0.2000"/> 
</g>
<g style="fill:#000000; fill-opacity:1.0000; stroke:none;">
<circle cx="182.7500" cy="81.2000" r="0.2000"/> 
</g>
<g style="fill:#000000; fill-opacity:1.0000; stroke:none;">
<circle cx="178.2500" cy="72.2000" r="0.2000"/> 
</g>
<g style="fill:#000000; fill-opacity:1.0000; stroke:none;">
<circle cx="180.5000" cy="69.4500" r="0.2000"/> 
</g>
<g style="fill:#000000; fill-opacity:1.0000; stroke:none;">
<circle cx="184.2500" cy="78.7000" r="0.2000"/> 
</g>
<g style="fill:#000000; fill-opacity:1.0000; stroke:none;">
<circle cx="179.7632" cy="78.7132" r="0.2000"/> 
</g>
<g style="fill:#000000; fill-opacity:1.0000; stroke:none;">
<circle cx="181.0000" cy="78.7000" r="0.2000"/> 
</g> 
</svg>