<?xml version="1.0" standalone="no"?>
 <!DOCTYPE svg PUBLIC "-//W3C//DTD SVG 1.1//EN" 
 "http://www.w3.org/Graphics/SVG/1.1/DTD/svg11.dtd"> 
<svg
  xmlns:svg="http://www.w3.org/2000/svg"
  xmlns="http://www.w3.org/2000/svg"
  xmlns:xlink="http://www.w3.org/1999/xlink"
  version="1.1"
  width="297.0022mm" height="210.0072mm" viewBox="0.0000 0.0000 297.0022 210.0072">
<title>SVG Image created as circuit_board-Edge_Cuts.svg date 2025/01/09 23:14:29 </title>
  <desc>Image generated by PCBNEW </desc>
<g style="fill:#000000; fill-opacity:1.0000;stroke:#000000; stroke-opacity:1.0000;
stroke-linecap:round; stroke-linejoin:round;"
 transform="translate(0 0) scale(1 1)">
<path style="fill:none; 
stroke:#000000; stroke-width:0.0500; stroke-opacity:1; 
stroke-linecap:round; stroke-linejoin:round;fill:none"
d="M 170.7500,64.9500
188.7500,64.9500
188.7500,87.4500
170.7500,87.4500
Z" /> 
</g>
<g style="fill:none; 
stroke:#000000; stroke-width:0.0100; stroke-opacity:1; 
stroke-linecap:round; stroke-linejoin:round;">
<path d="M175.1300 66.3500
L175.1300 65.5500
" />
<path d="M175.7300 65.5500
L175.7300 66.3500
" />
<path d="M183.7700 66.3500
L183.7700 65.5500
" />
<path d="M184.3700 65.5500
L184.3700 66.3500
" />
<path d="M175.4300 65.2500 A0.3000 0.3000 0.0 0 0 175.1300 65.5500" />
<path d="M175.7300 65.5500 A0.3000 0.3000 0.0 0 0 175.4300 65.2500" />
<path d="M175.1300 66.3500 A0.3000 0.3000 0.0 0 0 175.4300 66.6500" />
<path d="M175.4300 66.6500 A0.3000 0.3000 0.0 0 0 175.7300 66.3500" />
<path d="M184.0700 65.2500 A0.3000 0.3000 0.0 0 0 183.7700 65.5500" />
<path d="M184.3700 65.5500 A0.3000 0.3000 0.0 0 0 184.0700 65.2500" />
<path d="M183.7700 66.3500 A0.3000 0.3000 0.0 0 0 184.0700 66.6500" />
<path d="M184.0700 66.6500 A0.3000 0.3000 0.0 0 0 184.3700 66.3500" />
</g> 
</svg>
