<svg xmlns="http://www.w3.org/2000/svg" width="1063" height="1260" viewBox="0 0 1063 1260" version="1.1"><path d="M 274.363 1.922 C 268.562 4.557, 262.865 9.997, 259.967 15.670 L 257.500 20.500 257.500 52 L 257.500 83.500 259.967 88.330 C 266.375 100.875, 280.996 107.269, 294.263 103.329 C 304.601 100.259, 311.281 93.527, 314.395 83.040 C 316.733 75.167, 316.732 28.838, 314.393 20.932 C 311.691 11.793, 304.457 3.970, 296.101 1.148 C 290.731 -0.665, 279.154 -0.253, 274.363 1.922 M 775.485 2.100 C 769.944 5.020, 765.716 9.286, 762.360 15.339 L 759.500 20.500 759.500 52 L 759.500 83.500 762.866 89.324 C 772.658 106.268, 794.283 109.820, 808.506 96.821 C 817.780 88.344, 818.065 87.008, 818.062 51.894 C 818.059 22.364, 818.015 21.713, 815.689 16.654 C 812.395 9.488, 808.816 5.585, 802.780 2.578 C 798.364 0.377, 796.280 0, 788.539 0 C 781.258 0, 778.685 0.414, 775.485 2.100 M 187 46 L 187 61 201.500 61 L 216 61 216 46 L 216 31 201.500 31 L 187 31 187 46 M 94.500 35.031 C 71.302 38.653, 55 57.624, 55 81 C 55 115.476, 90.569 137.707, 121.500 122.564 C 132.900 116.983, 140.228 108.858, 145.008 96.500 C 148.137 88.412, 148.247 74.152, 145.245 65.894 C 137.553 44.735, 116.063 31.665, 94.500 35.031 M 966.500 35.107 C 954.644 36.811, 940.964 45.760, 934.455 56.071 C 929.550 63.841, 927.717 70.622, 927.717 81 C 927.717 91.378, 929.550 98.159, 934.455 105.929 C 941.129 116.501, 954.667 125.209, 967 126.863 C 995.636 130.704, 1020 109.621, 1020 81 C 1020 52.279, 995.178 30.986, 966.500 35.107 M 851.763 114.565 C 848.308 116.440, 846 120.840, 846 125.550 C 846 128.368, 846.775 129.975, 849.400 132.600 C 852.231 135.431, 853.533 136, 857.177 136 C 862.176 136, 865.354 134.151, 867.506 129.989 C 872.819 119.715, 861.931 109.048, 851.763 114.565 M 844 162 L 844 174 855.500 174 L 867 174 867 162 L 867 150 855.500 150 L 844 150 844 162 M 877 162 L 877 174 888 174 L 899 174 899 162 L 899 150 888 150 L 877 150 877 162 M 187 173.500 L 187 188 201.500 188 L 216 188 216 173.500 L 216 159 201.500 159 L 187 159 187 173.500 M 86.772 182.345 C 74.816 186.419, 65.125 194.813, 59.461 206 C 52.920 218.918, 53.698 237.277, 61.338 250.314 C 64.861 256.325, 74.779 265.277, 81.370 268.395 C 109.276 281.597, 142.172 263.997, 147.132 233.210 C 150.865 210.041, 134.856 186.356, 111.885 181.060 C 104.314 179.314, 94.135 179.835, 86.772 182.345 M 962 181.360 C 939.198 187.567, 924.188 210.369, 927.868 233.210 C 932.828 263.997, 965.724 281.597, 993.630 268.395 C 1000.221 265.277, 1010.139 256.325, 1013.662 250.314 C 1025.995 229.268, 1019.859 201.420, 999.961 188.133 C 988.884 180.736, 974.028 178.086, 962 181.360 M 845 197.500 L 845 209 856 209 L 867 209 867 197.500 L 867 186 856 186 L 845 186 845 197.500 M 877 197.500 L 877 209 888 209 L 899 209 899 197.500 L 899 186 888 186 L 877 186 877 197.500 M 175 212 L 175 224 186 224 L 197 224 197 212 L 197 200 186 200 L 175 200 175 212 M 208 212 L 208 224 219 224 L 230 224 230 212 L 230 200 219 200 L 208 200 208 212 M 276.594 235.585 C 273.112 236.697, 270.054 238.798, 266.055 242.826 C 257.118 251.827, 257 252.504, 257 294.933 C 257 337.587, 257.117 338.277, 265.849 347.009 C 272.884 354.044, 279.212 356.498, 288.417 355.759 C 299.134 354.898, 307.097 349.497, 311.942 339.800 L 315 333.681 315 295 L 315 256.319 311.942 250.200 C 308.671 243.655, 305.199 240.164, 298.616 236.802 C 293.224 234.049, 283.151 233.492, 276.594 235.585 M 779.882 235.381 C 771.208 238.481, 766.017 243.332, 762.072 252.028 C 760.148 256.270, 760.043 258.482, 760.022 295.090 L 760 333.681 763.058 339.800 C 767.903 349.497, 775.866 354.898, 786.583 355.759 C 795.788 356.498, 802.116 354.044, 809.151 347.009 C 817.883 338.277, 818 337.587, 818 294.933 C 818 252.514, 817.880 251.825, 808.959 242.839 C 804.661 238.510, 802.078 236.804, 797.987 235.589 C 791.594 233.690, 784.830 233.612, 779.882 235.381 M 177 260.500 L 177 286 205 286 L 233 286 233 260.500 L 233 235 205 235 L 177 235 177 260.500 M 573.997 246.750 C 568.334 251.882, 568.372 259.611, 574.084 264.417 C 579.624 269.078, 588.316 267.068, 591.484 260.393 C 593.410 256.334, 593.389 254.623, 591.365 250.357 C 588.200 243.686, 579.395 241.858, 573.997 246.750 M 361.384 248.913 C 348.522 254.754, 347.005 273.705, 358.778 281.460 C 368.382 287.787, 381.149 284.520, 386.003 274.494 C 393.850 258.284, 377.701 241.503, 361.384 248.913 M 697.121 249.169 C 688.055 253.657, 684.410 265.018, 688.997 274.494 C 693.851 284.520, 706.618 287.787, 716.222 281.460 C 722.370 277.411, 725.521 269.265, 723.837 261.772 C 721.145 249.790, 708.202 243.684, 697.121 249.169 M 489 259.711 C 486.855 260.807, 484.760 263.016, 483.588 265.416 C 481.853 268.970, 481.807 269.702, 483.088 273.326 C 486.880 284.051, 501.169 284.268, 504.724 273.654 C 507.987 263.913, 498.038 255.090, 489 259.711 M 547 259.711 C 537.460 264.588, 538.688 278.029, 548.956 281.105 C 554.282 282.701, 559.741 280.055, 562.412 274.584 C 564.147 271.030, 564.193 270.298, 562.912 266.674 C 560.396 259.559, 553.338 256.471, 547 259.711 M 857 270 L 857 282 868 282 L 879 282 879 270 L 879 258 868 258 L 857 258 857 270 M 890 270 L 890 282 901 282 L 912 282 912 270 L 912 258 901 258 L 890 258 890 270 M 334 328.500 L 334 362 351.500 362 L 369 362 369 328.500 L 369 295 351.500 295 L 334 295 334 328.500 M 380 328.500 L 380 362 397.500 362 L 415 362 415 328.500 L 415 295 397.500 295 L 380 295 380 328.500 M 427 328.500 L 427 362 435.500 362 L 444 362 444 328.500 L 444 295 435.500 295 L 427 295 427 328.500 M 456 328.500 L 456 362 465 362 L 474 362 474 328.500 L 474 295 465 295 L 456 295 456 328.500 M 485 328.500 L 485 362 494 362 L 503 362 503 328.500 L 503 295 494 295 L 485 295 485 328.500 M 514 328.500 L 514 362 523 362 L 532 362 532 328.500 L 532 295 523 295 L 514 295 514 328.500 M 543 328.500 L 543 362 552 362 L 561 362 561 328.500 L 561 295 552 295 L 543 295 543 328.500 M 572 328.500 L 572 362 581 362 L 590 362 590 328.500 L 590 295 581 295 L 572 295 572 328.500 M 601 328.500 L 601 362 610 362 L 619 362 619 328.500 L 619 295 610 295 L 601 295 601 328.500 M 631 328.500 L 631 362 639.500 362 L 648 362 648 328.500 L 648 295 639.500 295 L 631 295 631 328.500 M 660 328.500 L 660 362 677.500 362 L 695 362 695 328.500 L 695 295 677.500 295 L 660 295 660 328.500 M 706 328.500 L 706 362 723.500 362 L 741 362 741 328.500 L 741 295 723.500 295 L 706 295 706 328.500 M 92.108 326.082 C 80.565 328.348, 68.908 336.521, 61.955 347.221 C 53.666 359.978, 52.637 377.385, 59.338 391.496 C 64.109 401.544, 71.456 408.891, 81.504 413.662 C 95.615 420.363, 113.022 419.334, 125.779 411.045 C 151.232 394.505, 155.152 360.152, 134 339 C 122.987 327.987, 107.199 323.118, 92.108 326.082 M 964.510 326.175 C 956.369 327.728, 947.355 332.645, 941 339 C 919.848 360.152, 923.768 394.505, 949.221 411.045 C 961.978 419.334, 979.385 420.363, 993.496 413.662 C 1003.544 408.891, 1010.891 401.544, 1015.662 391.496 C 1022.363 377.385, 1021.334 359.978, 1013.045 347.221 C 1008.094 339.602, 1001.216 333.464, 993.675 329.935 C 983.711 325.273, 975.079 324.160, 964.510 326.175 M 177 352.500 L 177 378 205 378 L 233 378 233 352.500 L 233 327 205 327 L 177 327 177 352.500 M 263 432 L 263 490 286 490 L 309 490 309 432 L 309 374 286 374 L 263 374 263 432 M 507 432 L 507 490 530.500 490 L 554 490 554 432 L 554 374 530.500 374 L 507 374 507 432 M 327.353 376.926 C 321.294 380.621, 320.591 389.318, 325.937 394.440 C 333.154 401.354, 345.011 396.603, 345.292 386.686 C 345.562 377.174, 335.724 371.822, 327.353 376.926 M 566 433 L 566 491 589.500 491 L 613 491 613 433 L 613 375 589.500 375 L 566 375 566 433 M 810 433 L 810 491 833.500 491 L 857 491 857 433 L 857 375 833.500 375 L 810 375 810 433 M 168.190 391.026 C 158.097 397.179, 162.012 412, 173.730 412 C 182.470 412, 187.846 404.354, 184.589 396.558 C 182.959 392.657, 177.841 389.007, 174 389.007 C 172.625 389.007, 170.010 389.916, 168.190 391.026 M 650 389.704 C 646.926 390.822, 643.005 395.459, 642.398 398.692 C 641.020 406.040, 646.242 412, 654.058 412 C 658.071 412, 659.344 411.502, 661.923 408.923 C 664.486 406.360, 665 405.061, 665 401.146 C 665 395.553, 663.018 392.323, 658.401 390.394 C 654.955 388.954, 652.593 388.760, 650 389.704 M 385.143 406.533 C 376.841 413.518, 380.496 425.513, 391.297 426.730 C 395.152 427.164, 396.110 426.842, 399.307 424.035 C 403.843 420.053, 404.874 415.643, 402.458 410.553 C 399.274 403.844, 390.704 401.854, 385.143 406.533 M 442.400 407.400 C 439.522 410.278, 439 411.504, 439 415.384 C 439 427.464, 455.232 431.459, 460.365 420.643 C 462.398 416.358, 462.427 413.727, 460.483 409.967 C 458.611 406.348, 454.271 404, 449.450 404 C 446.632 404, 445.025 404.775, 442.400 407.400 M 329 419.711 C 326.855 420.807, 324.760 423.016, 323.588 425.416 C 321.853 428.970, 321.807 429.702, 323.088 433.326 C 324.930 438.534, 328.690 441.273, 334 441.273 C 339.225 441.273, 343.093 438.525, 344.724 433.654 C 347.987 423.913, 338.038 415.090, 329 419.711 M 183 432.500 L 183 444 194 444 L 205 444 205 432.500 L 205 421 194 421 L 183 421 183 432.500 M 216 432.500 L 216 444 227 444 L 238 444 238 432.500 L 238 421 227 421 L 216 421 216 432.500 M 327.973 463.704 C 322.412 467.537, 320.842 472.758, 323.542 478.447 C 328.056 487.959, 341.613 486.762, 344.982 476.553 C 348.090 467.137, 336.116 458.092, 327.973 463.704 M 86.549 473.113 C 74.018 477.422, 65.220 485.374, 59.249 497.785 C 52.634 511.536, 53.715 529.097, 61.955 541.779 C 76.644 564.384, 105.151 570.290, 127.612 555.382 C 141.831 545.944, 149.989 527.222, 147.205 510.418 C 145.037 497.335, 135.880 483.530, 125.228 477.288 C 114.243 470.850, 98.174 469.116, 86.549 473.113 M 959.798 472.931 C 951.694 475.522, 946.257 478.978, 940.187 485.395 C 927.213 499.114, 923.738 519.128, 931.359 536.239 C 940.040 555.731, 961.876 566.979, 982.626 562.647 C 995.746 559.908, 1005.703 553.077, 1013.045 541.779 C 1021.285 529.097, 1022.366 511.536, 1015.751 497.785 C 1009.732 485.273, 1000.903 477.347, 988.228 473.077 C 980.319 470.412, 967.874 470.349, 959.798 472.931 M 373.415 477.421 C 364.030 481.508, 363.543 494.183, 372.607 498.484 C 376.666 500.410, 378.377 500.389, 382.643 498.365 C 391.666 494.083, 390.891 481.359, 381.364 477.379 C 377.402 475.723, 377.314 475.724, 373.415 477.421 M 477 476.677 C 471.022 478.547, 468 482.350, 468 488 C 468 495.266, 474.536 500.872, 481.486 499.569 C 488.259 498.298, 492.950 488.990, 489.789 483.096 C 487.469 478.771, 480.879 475.463, 477 476.677 M 210.111 508.560 C 204.920 512.928, 204.688 520.415, 209.592 525.319 C 217.064 532.791, 229 527.336, 229 516.450 C 229 513.632, 228.225 512.025, 225.600 509.400 C 221.144 504.944, 214.817 504.601, 210.111 508.560 M 529.400 509.400 C 525.568 513.232, 524.889 517.952, 527.456 522.915 C 528.913 525.733, 534.306 529, 537.500 529 C 540.694 529, 546.087 525.733, 547.544 522.915 C 550.111 517.952, 549.432 513.232, 545.600 509.400 C 542.698 506.498, 541.512 506, 537.500 506 C 533.488 506, 532.302 506.498, 529.400 509.400 M 869 529 L 869 540 880.500 540 L 892 540 892 529 L 892 518 880.500 518 L 869 518 869 529 M 713 546.500 L 713 574 738.500 574 L 764 574 764 546.500 L 764 519 738.500 519 L 713 519 713 546.500 M 805 546.500 L 805 574 830.500 574 L 856 574 856 546.500 L 856 519 830.500 519 L 805 519 805 546.500 M 311.400 538.400 C 307.540 542.260, 306.891 546.956, 309.517 552.033 C 315.217 563.055, 332.346 557.076, 330.680 544.646 C 329.884 538.717, 325.532 535, 319.384 535 C 315.504 535, 314.278 535.522, 311.400 538.400 M 355.816 537.067 C 352.147 539.806, 350.514 544.997, 351.951 549.353 C 355.466 560.001, 369.348 560.591, 373.658 550.276 C 375.656 545.494, 374.155 539.959, 370.071 537.050 C 366.275 534.348, 359.448 534.356, 355.816 537.067 M 660.400 538.400 C 656.540 542.260, 655.891 546.956, 658.517 552.033 C 664.217 563.055, 681.346 557.076, 679.680 544.646 C 678.884 538.717, 674.532 535, 668.384 535 C 664.504 535, 663.278 535.522, 660.400 538.400 M 387 560.500 L 387 572 399.500 572 L 412 572 412 560.500 L 412 549 399.500 549 L 387 549 387 560.500 M 423 560.500 L 423 572 435.500 572 L 448 572 448 560.500 L 448 549 435.500 549 L 423 549 423 560.500 M 604.314 550.894 C 600.574 553.240, 599 555.820, 599 559.601 C 599 561.765, 596.294 565.067, 586.006 575.457 L 573.012 588.580 578.516 594.016 L 584.020 599.452 597.456 586.044 C 605.899 577.618, 612.106 572.239, 614.161 571.568 C 618.901 570.020, 622.313 564.572, 621.660 559.593 C 620.576 551.316, 611.164 546.596, 604.314 550.894 M 869 562 L 869 573 880.500 573 L 892 573 892 562 L 892 551 880.500 551 L 869 551 869 562 M 145 589.500 L 145 625 162 625 L 179 625 179 589.500 L 179 554 162 554 L 145 554 145 589.500 M 256 589.500 L 256 625 273 625 L 290 625 290 589.500 L 290 554 273 554 L 256 554 256 589.500 M 525.225 565.272 L 520.018 570.544 534.499 584.999 L 548.979 599.453 554.500 594 L 560.022 588.547 545.774 574.273 C 537.937 566.423, 531.280 560, 530.979 560 C 530.678 560, 528.089 562.372, 525.225 565.272 M 631.400 567.400 C 628.569 570.231, 628 571.533, 628 575.177 C 628 580.176, 629.849 583.354, 634.011 585.506 C 639.898 588.550, 646.676 586.310, 649.484 580.393 C 651.394 576.367, 651.400 573.674, 649.506 570.011 C 647.354 565.849, 644.176 564, 639.177 564 C 635.533 564, 634.231 564.569, 631.400 567.400 M 461 578.704 C 455.229 580.804, 451.725 588.508, 454.021 594.051 C 457.682 602.889, 470.609 603.673, 474.883 595.316 C 476.514 592.126, 476.248 585.799, 474.369 583.117 C 471.731 579.350, 465.172 577.185, 461 578.704 M 505.004 585.496 L 499.547 591.021 514.012 605.512 L 528.476 620.002 533.981 614.498 L 539.485 608.993 524.973 594.482 L 510.461 579.970 505.004 585.496 M 608 594.500 L 593.524 609.002 599.024 614.502 L 604.524 620.002 619 605.500 L 633.476 590.998 627.976 585.498 L 622.476 579.998 608 594.500 M 387 593.500 L 387 605 399.500 605 L 412 605 412 593.500 L 412 582 399.500 582 L 387 582 387 593.500 M 423 593.500 L 423 605 435.500 605 L 448 605 448 593.500 L 448 582 435.500 582 L 423 582 423 593.500 M 734.514 595.168 C 725.899 601.944, 729.419 614.504, 740.276 615.728 C 744.155 616.165, 745.105 615.846, 748.307 613.035 C 752.843 609.053, 753.874 604.643, 751.458 599.553 C 748.400 593.108, 739.921 590.914, 734.514 595.168 M 772 604.500 L 772 616 783 616 L 794 616 794 604.500 L 794 593 783 593 L 772 593 772 604.500 M 805 604.500 L 805 616 816 616 L 827 616 827 604.500 L 827 593 816 593 L 805 593 805 604.500 M 490.500 674 L 414.503 750.002 490.503 826.002 L 566.503 902.002 642.500 826 L 718.497 749.998 642.497 673.998 L 566.497 597.998 490.500 674 M 628.780 614.749 L 614.084 629.500 619.880 634.675 L 625.676 639.849 640.076 625.424 L 654.476 610.998 648.976 605.498 L 643.477 599.998 628.780 614.749 M 484.225 606.272 L 479.018 611.544 493.499 625.999 L 507.979 640.453 513.500 635 L 519.022 629.547 504.774 615.273 C 496.937 607.423, 490.280 601, 489.979 601 C 489.678 601, 487.089 603.372, 484.225 606.272 M 90.335 617.423 C 69.502 622.475, 55 640.976, 55 662.500 C 55 681.781, 67.004 699.332, 84.775 706.034 C 92.034 708.772, 103.991 709.669, 111.110 708.011 C 134.937 702.461, 151.093 678.989, 147.167 655.626 C 142.620 628.566, 116.575 611.059, 90.335 617.423 M 962.265 617.542 C 944.257 622.391, 930.943 637.117, 927.833 655.626 C 924.687 674.346, 934.773 694.446, 951.725 703.241 C 960.728 707.911, 967.512 709.391, 976.890 708.730 C 1017.249 705.884, 1034.782 656.711, 1005.456 628.612 C 994.553 618.165, 976.823 613.621, 962.265 617.542 M 464.004 626.496 L 458.547 632.021 473.012 646.512 L 487.476 661.002 492.981 655.498 L 498.485 649.993 483.973 635.482 L 469.461 620.970 464.004 626.496 M 649.226 635.273 L 634.978 649.547 640.500 655 L 646.021 660.453 660.501 645.999 L 674.982 631.544 669.775 626.272 C 666.911 623.372, 664.322 621, 664.021 621 C 663.720 621, 657.063 627.423, 649.226 635.273 M 696.770 623.966 C 691.202 628.346, 690.729 636.466, 695.762 641.254 C 699.284 644.603, 703 645.485, 707.431 644.023 C 716.064 641.174, 717.886 629.648, 710.633 623.772 C 707.620 621.331, 699.984 621.438, 696.770 623.966 M 402.500 637.391 C 397.489 639.622, 395.500 642.637, 395.500 648 C 395.500 651.376, 396.091 653.452, 397.500 655.033 C 406.886 665.559, 422.684 655.374, 416.846 642.561 C 414.591 637.612, 407.633 635.104, 402.500 637.391 M 809.270 637.483 C 805.602 639.077, 802.007 644.283, 802.007 648 C 802.007 651.908, 805.667 656.963, 809.724 658.658 C 817.310 661.828, 825 656.493, 825 648.060 C 825 642.969, 822.623 639.158, 818.328 637.364 C 814.326 635.692, 813.360 635.704, 809.270 637.483 M 669.991 655.509 L 655.524 670.002 661.265 675.743 L 667.007 681.485 681.517 666.975 L 696.027 652.464 690.243 646.740 L 684.458 641.016 669.991 655.509 M 443.225 647.272 L 438.018 652.544 452.499 666.999 L 466.979 681.453 472.500 676 L 478.022 670.547 463.774 656.273 C 455.937 648.423, 449.280 642, 448.979 642 C 448.678 642, 446.089 644.372, 443.225 647.272 M 422.740 667.757 L 417.016 673.542 431.509 688.009 L 446.002 702.476 451.743 696.735 L 457.485 690.993 442.975 676.483 L 428.464 661.973 422.740 667.757 M 690.228 676.272 L 675.981 690.544 681.761 696.264 L 687.542 701.984 701.997 687.503 L 716.453 673.021 711.011 667.511 C 708.017 664.480, 705.322 662, 705.021 662 C 704.720 662, 698.063 668.422, 690.228 676.272 M 781.445 666.079 C 776.314 667.552, 773.500 671.421, 773.500 677 C 773.500 682.412, 775.905 685.890, 781.151 688.062 C 785.514 689.870, 791.519 687.836, 794.044 683.696 C 799.845 674.182, 791.902 663.075, 781.445 666.079 M 848 688.500 L 848 700 859 700 L 870 700 870 688.500 L 870 677 859 677 L 848 677 848 688.500 M 880 688.500 L 880 700 891 700 L 902 700 902 688.500 L 902 677 891 677 L 880 677 880 688.500 M 401.989 688.511 L 396.547 694.021 411.003 708.503 L 425.458 722.984 431.239 717.264 L 437.019 711.544 422.772 697.272 C 414.937 689.422, 408.280 683, 407.979 683 C 407.678 683, 404.983 685.480, 401.989 688.511 M 711.226 697.273 L 696.978 711.547 702.500 717 L 708.021 722.453 722.501 707.999 L 736.982 693.544 731.775 688.272 C 728.911 685.372, 726.322 683, 726.021 683 C 725.720 683, 719.063 689.423, 711.226 697.273 M 145 735.500 L 145 771 162 771 L 179 771 179 735.500 L 179 700 162 700 L 145 700 145 735.500 M 200 735.500 L 200 771 217.500 771 L 235 771 235 735.500 L 235 700 217.500 700 L 200 700 200 735.500 M 256 735.500 L 256 771 273 771 L 290 771 290 735.500 L 290 700 273 700 L 256 700 256 735.500 M 732 717.500 L 717.524 732.002 723.024 737.502 L 728.524 743.002 743 728.500 L 757.476 713.998 751.976 708.498 L 746.476 702.998 732 717.500 M 381.225 709.272 L 376.018 714.544 390.499 728.999 L 404.979 743.453 410.500 738 L 416.022 732.547 401.774 718.273 C 393.937 710.423, 387.280 704, 386.979 704 C 386.678 704, 384.089 706.372, 381.225 709.272 M 845 723.500 L 845 735 857 735 L 869 735 869 723.500 L 869 712 857 712 L 845 712 845 723.500 M 881 723.500 L 881 735 893.500 735 L 906 735 906 723.500 L 906 712 893.500 712 L 881 712 881 723.500 M 793.314 739.894 C 789.253 742.441, 788 744.833, 788 750.034 C 788 753.438, 788.622 754.822, 791.400 757.600 C 794.251 760.451, 795.520 761, 799.265 761 C 804.435 761, 808.080 758.636, 809.979 754.051 C 814.053 744.215, 802.317 734.245, 793.314 739.894 M 924.314 739.894 C 920.219 742.463, 918.995 744.843, 919.022 750.184 C 919.058 757.033, 923.377 761, 930.799 761 C 937.739 761, 943.064 754.121, 941.530 747.137 C 939.952 739.951, 930.537 735.990, 924.314 739.894 M 845 756.500 L 845 768 857 768 L 869 768 869 756.500 L 869 745 857 745 L 845 745 845 756.500 M 881 756.500 L 881 768 893.500 768 L 906 768 906 756.500 L 906 745 893.500 745 L 881 745 881 756.500 M 390.226 771.273 L 375.978 785.547 381.500 791 L 387.021 796.453 401.501 781.999 L 415.982 767.544 410.775 762.272 C 407.911 759.372, 405.322 757, 405.021 757 C 404.720 757, 398.063 763.423, 390.226 771.273 M 722.225 762.272 L 717.018 767.544 731.499 781.999 L 745.979 796.453 751.500 791 L 757.022 785.547 742.774 771.273 C 734.937 763.423, 728.280 757, 727.979 757 C 727.678 757, 725.089 759.372, 722.225 762.272 M 93.121 762.127 C 85.782 763.346, 76.234 768.085, 70.215 773.496 C 43.220 797.767, 53.510 842.523, 88.387 852.532 C 92.683 853.765, 96.873 854.116, 103.887 853.829 C 112.123 853.493, 114.472 852.981, 120.288 850.254 C 142.125 840.011, 152.803 815.181, 145.056 792.662 C 139.600 776.804, 124.918 764.667, 108 762.029 C 100.700 760.890, 100.563 760.891, 93.121 762.127 M 966 762.119 C 950.062 764.685, 935.254 777.229, 929.944 792.662 C 922.197 815.181, 932.875 840.011, 954.712 850.254 C 960.528 852.981, 962.877 853.493, 971.113 853.829 C 978.127 854.116, 982.317 853.765, 986.613 852.532 C 1021.490 842.523, 1031.780 797.767, 1004.785 773.496 C 998.460 767.810, 989.314 763.419, 980.981 762.067 C 973.724 760.889, 973.639 760.889, 966 762.119 M 411 791.500 L 396.524 806.002 402.024 811.502 L 407.524 817.002 422 802.500 L 436.476 787.998 430.976 782.498 L 425.476 776.998 411 791.500 M 702.004 782.496 L 696.547 788.021 711.012 802.512 L 725.476 817.002 730.981 811.498 L 736.485 805.993 721.973 791.482 L 707.461 776.970 702.004 782.496 M 845 791.500 L 845 803 857.500 803 L 870 803 870 791.500 L 870 780 857.500 780 L 845 780 845 791.500 M 881 791.500 L 881 803 893.500 803 L 906 803 906 791.500 L 906 780 893.500 780 L 881 780 881 791.500 M 220.217 783.561 C 217.408 785.528, 215 790.116, 215 793.500 C 215 797.243, 217.594 801.716, 220.763 803.435 C 223.400 804.865, 223.234 804.921, 216.250 804.960 L 209 805 209 822.500 L 209 840 226.500 840 L 244 840 244 822.500 L 244 805 236.750 804.996 L 229.500 804.993 232.775 802.996 C 236.440 800.761, 238 797.578, 238 792.335 C 238 786.929, 232.670 782, 226.823 782 C 224.415 782, 221.442 782.702, 220.217 783.561 M 791.400 785.400 C 788.522 788.278, 788 789.504, 788 793.384 C 788 805.464, 804.232 809.459, 809.365 798.643 C 811.398 794.358, 811.427 791.727, 809.483 787.967 C 807.611 784.348, 803.271 782, 798.450 782 C 795.632 782, 794.025 782.775, 791.400 785.400 M 431.226 812.273 L 416.978 826.547 422.500 832 L 428.021 837.453 442.501 822.999 L 456.982 808.544 451.775 803.272 C 448.911 800.372, 446.322 798, 446.021 798 C 445.720 798, 439.063 804.423, 431.226 812.273 M 681.225 803.272 L 676.018 808.544 690.499 822.999 L 704.979 837.453 710.500 832 L 716.022 826.547 701.774 812.273 C 693.937 804.423, 687.280 798, 686.979 798 C 686.678 798, 684.089 800.372, 681.225 803.272 M 162 822.500 L 162 840 179.500 840 L 197 840 197 822.500 L 197 805 179.500 805 L 162 805 162 822.500 M 307 816.500 L 307 828 318 828 L 329 828 329 816.500 L 329 805 318 805 L 307 805 307 816.500 M 339 816.500 L 339 828 350 828 L 361 828 361 816.500 L 361 805 350 805 L 339 805 339 816.500 M 734.514 812.168 C 728.128 817.191, 727.964 825.268, 734.143 830.467 C 739.623 835.078, 748.334 833.032, 751.484 826.393 C 753.410 822.334, 753.389 820.623, 751.365 816.357 C 748.396 810.100, 739.845 807.974, 734.514 812.168 M 845 824.500 L 845 836 857.500 836 L 870 836 870 824.500 L 870 813 857.500 813 L 845 813 845 824.500 M 881 824.500 L 881 836 893.500 836 L 906 836 906 824.500 L 906 813 893.500 813 L 881 813 881 824.500 M 452 832.500 L 437.524 847.002 443.024 852.502 L 448.524 858.002 463 843.500 L 477.476 828.998 471.976 823.498 L 466.476 817.998 452 832.500 M 661.004 823.496 L 655.547 829.021 670.012 843.512 L 684.476 858.002 689.981 852.498 L 695.485 846.993 680.973 832.482 L 666.461 817.970 661.004 823.496 M 817.954 825.750 C 810.046 832.817, 815.295 846, 826.018 846 C 831.958 846, 837 840.238, 837 833.450 C 837 830.632, 836.225 829.025, 833.600 826.400 C 830.722 823.522, 829.496 823, 825.616 823 C 822.028 823, 820.363 823.597, 817.954 825.750 M 399 838.706 C 396.216 839.724, 393.065 843.274, 391.951 846.647 C 388.767 856.295, 399.417 864.456, 408.835 859.585 C 413.844 856.995, 415.898 849.415, 413.039 844.072 C 410.671 839.649, 403.705 836.986, 399 838.706 M 472.228 853.272 L 457.981 867.544 463.761 873.264 L 469.542 878.984 483.997 864.503 L 498.453 850.021 493.011 844.511 C 490.017 841.480, 487.322 839, 487.021 839 C 486.720 839, 480.063 845.422, 472.228 853.272 M 640.225 844.272 L 635.018 849.544 649.499 863.999 L 663.979 878.453 669.500 873 L 675.022 867.547 660.774 853.273 C 652.937 845.423, 646.280 839, 645.979 839 C 645.678 839, 643.089 841.372, 640.225 844.272 M 307 851.500 L 307 863 318 863 L 329 863 329 851.500 L 329 840 318 840 L 307 840 307 851.500 M 339 851.500 L 339 863 350 863 L 361 863 361 851.500 L 361 840 350 840 L 339 840 339 851.500 M 845 859.500 L 845 872 857 872 L 869 872 869 859.500 L 869 847 857 847 L 845 847 845 859.500 M 878 859.500 L 878 872 889.500 872 L 901 872 901 859.500 L 901 847 889.500 847 L 878 847 878 859.500 M 809 862 L 809 874 821 874 L 833 874 833 862 L 833 850 821 850 L 809 850 809 862 M 425.756 853.755 C 422.778 855.601, 420 860.522, 420 863.951 C 420 869.957, 425.728 875, 432.550 875 C 435.368 875, 436.975 874.225, 439.600 871.600 C 442.431 868.769, 443 867.467, 443 863.823 C 443 858.824, 441.151 855.646, 436.989 853.494 C 433.220 851.545, 429.168 851.639, 425.756 853.755 M 492.991 873.509 L 478.524 888.002 484.265 893.743 L 490.007 899.485 504.517 884.975 L 519.027 870.464 513.243 864.740 L 507.458 859.016 492.991 873.509 M 620.004 864.496 L 614.547 870.021 629.012 884.512 L 643.476 899.002 648.981 893.498 L 654.485 887.993 639.973 873.482 L 625.461 858.970 620.004 864.496 M 736.500 869.945 C 731.228 872.103, 728.236 879.235, 730.415 884.450 C 734.408 894.009, 747.110 894.610, 751.458 885.447 C 755.933 876.016, 746.232 865.962, 736.500 869.945 M 514 894.500 L 499.524 909.002 505.024 914.502 L 510.524 920.002 525 905.500 L 539.476 890.998 533.976 885.498 L 528.476 879.998 514 894.500 M 598.989 885.511 L 593.547 891.021 608.003 905.503 L 622.458 919.984 628.239 914.264 L 634.019 908.544 619.772 894.272 C 611.937 886.422, 605.280 880, 604.979 880 C 604.678 880, 601.983 882.480, 598.989 885.511 M 809 894.500 L 809 906 821 906 L 833 906 833 894.500 L 833 883 821 883 L 809 883 809 894.500 M 845 895.500 L 845 908 857 908 L 869 908 869 895.500 L 869 883 857 883 L 845 883 845 895.500 M 878 895.500 L 878 908 889.500 908 L 901 908 901 895.500 L 901 883 889.500 883 L 878 883 878 895.500 M 705.197 887.957 C 699.922 893.232, 700.720 901.562, 706.898 905.715 C 711.056 908.511, 714.494 908.606, 718.701 906.040 C 725.585 901.843, 726.642 893.488, 721.003 887.850 C 718.631 885.477, 717.317 885, 713.154 885 C 708.948 885, 707.684 885.470, 705.197 887.957 M 203 933 L 203 965 238 965 L 273 965 273 933 L 273 901 238 901 L 203 901 203 933 M 337 933 L 337 965 372 965 L 407 965 407 933 L 407 901 372 901 L 337 901 337 933 M 534.226 915.273 L 519.978 929.547 525.500 935 L 531.021 940.453 545.501 925.999 L 559.982 911.544 554.775 906.272 C 551.911 903.372, 549.322 901, 549.021 901 C 548.720 901, 542.063 907.423, 534.226 915.273 M 578.225 906.272 L 573.018 911.544 587.510 926.010 L 602.002 940.476 607.751 934.698 L 613.500 928.919 599 915.007 C 591.025 907.355, 584.260 901.073, 583.966 901.047 C 583.672 901.021, 581.089 903.372, 578.225 906.272 M 86.772 909.345 C 79.046 911.978, 70.218 917.714, 65.889 922.916 C 64.248 924.887, 61.290 929.750, 59.315 933.721 C 56.174 940.038, 55.663 942.112, 55.236 950.281 C 54.438 965.537, 58.657 976.553, 69.121 986.534 C 96.533 1012.681, 140.913 997.690, 147.106 960.190 C 152.647 926.635, 119.070 898.337, 86.772 909.345 M 962.698 908.096 C 940.043 913.427, 924.110 937.275, 927.894 960.190 C 931.218 980.315, 946.124 995.517, 966.018 999.073 C 980.056 1001.581, 995.047 996.866, 1005.879 986.534 C 1016.343 976.553, 1020.562 965.537, 1019.764 950.281 C 1019.337 942.112, 1018.826 940.038, 1015.685 933.721 C 1011.057 924.412, 1007.405 920.104, 999.890 915.085 C 989.212 907.955, 974.803 905.247, 962.698 908.096 M 473.763 928.565 C 470.308 930.440, 468 934.840, 468 939.550 C 468 942.368, 468.775 943.975, 471.400 946.600 C 474.231 949.431, 475.533 950, 479.177 950 C 484.176 950, 487.354 948.151, 489.506 943.989 C 492.550 938.102, 490.310 931.324, 484.393 928.516 C 480.421 926.632, 477.300 926.646, 473.763 928.565 M 650 927.704 C 649.175 928.004, 647.284 929.382, 645.799 930.765 C 638.524 937.540, 643.308 950, 653.185 950 C 660.853 950, 665 945.850, 665 938.175 C 665 930.612, 657.122 925.112, 650 927.704 M 706.190 929.026 C 696.050 935.208, 700.148 950, 712 950 C 720.494 950, 725.839 942.338, 722.658 934.724 C 720.963 930.667, 715.908 927.007, 712 927.007 C 710.625 927.007, 708.010 927.916, 706.190 929.026 M 423 953.500 L 423 965 435.500 965 L 448 965 448 953.500 L 448 942 435.500 942 L 423 942 423 953.500 M 500.400 945.400 C 496.540 949.260, 495.891 953.956, 498.517 959.033 C 502.570 966.871, 514.495 966.745, 518.593 958.820 C 522.650 950.975, 517.203 942, 508.384 942 C 504.504 942, 503.278 942.522, 500.400 945.400 M 806.816 944.067 C 803.619 946.454, 801.549 952.051, 802.476 955.803 C 804.103 962.385, 811.952 966.505, 818.051 963.979 C 822.636 962.080, 825 958.435, 825 953.265 C 825 949.520, 824.451 948.251, 821.600 945.400 C 818.758 942.558, 817.486 942.005, 813.850 942.032 C 811.097 942.052, 808.514 942.799, 806.816 944.067 M 840 959 L 840 976 857.500 976 L 875 976 875 959 L 875 942 857.500 942 L 840 942 840 959 M 633.881 957.503 C 631.243 958.937, 628 964.412, 628 967.433 C 628 970.883, 630.963 975.930, 633.872 977.434 C 639.041 980.107, 643.718 979.482, 647.600 975.600 C 650.502 972.698, 651 971.512, 651 967.500 C 651 963.488, 650.502 962.302, 647.600 959.400 C 644.885 956.685, 643.424 956.008, 640.350 956.040 C 638.232 956.062, 635.322 956.720, 633.881 957.503 M 162 980.500 L 162 992 174 992 L 186 992 186 980.500 L 186 969 174 969 L 162 969 162 980.500 M 298.353 972.926 C 292.414 976.548, 291.596 985.323, 296.720 990.447 C 304.139 997.867, 316 992.869, 316 982.323 C 316 978.512, 315.464 977.264, 312.600 974.400 C 308.573 970.373, 303.416 969.839, 298.353 972.926 M 734.514 973.168 C 725.899 979.944, 729.419 992.504, 740.276 993.728 C 744.155 994.165, 745.105 993.846, 748.307 991.035 C 752.843 987.053, 753.874 982.643, 751.458 977.553 C 748.400 971.108, 739.921 968.914, 734.514 973.168 M 772 982.500 L 772 994 784.500 994 L 797 994 797 982.500 L 797 971 784.500 971 L 772 971 772 982.500 M 809 982.500 L 809 994 821 994 L 833 994 833 982.500 L 833 971 821 971 L 809 971 809 982.500 M 423 986 L 423 998 435.500 998 L 448 998 448 986 L 448 974 435.500 974 L 423 974 423 986 M 491 996.500 L 491 1014 508.500 1014 L 526 1014 526 996.500 L 526 979 508.500 979 L 491 979 491 996.500 M 538 996.500 L 538 1014 555.500 1014 L 573 1014 573 996.500 L 573 979 555.500 979 L 538 979 538 996.500 M 649.227 992.272 L 640.997 1000.544 648.771 1008.272 L 656.544 1016 664.773 1007.728 L 673.003 999.456 665.229 991.728 L 657.456 984 649.227 992.272 M 605.378 986.437 C 600.957 988.361, 599 991.646, 599 997.146 C 599 1001.014, 599.521 1002.367, 601.940 1004.786 C 607.501 1010.347, 615.881 1009.432, 620.031 1002.810 C 623.875 996.675, 621.311 989.337, 614.282 986.362 C 610.352 984.699, 609.353 984.707, 605.378 986.437 M 840 1006 L 840 1023 857.500 1023 L 875 1023 875 1006 L 875 989 857.500 989 L 840 989 840 1006 M 203 1032 L 203 1064 238 1064 L 273 1064 273 1032 L 273 1000 238 1000 L 203 1000 203 1032 M 337 1032 L 337 1064 372 1064 L 407 1064 407 1032 L 407 1000 372 1000 L 337 1000 337 1032 M 162 1013.500 L 162 1025 174 1025 L 186 1025 186 1013.500 L 186 1002 174 1002 L 162 1002 162 1013.500 M 772 1015 L 772 1027 784.500 1027 L 797 1027 797 1015 L 797 1003 784.500 1003 L 772 1003 772 1015 M 809 1015.500 L 809 1027 821 1027 L 833 1027 833 1015.500 L 833 1004 821 1004 L 809 1004 809 1015.500 M 672.227 1015.272 L 663.997 1023.544 671.771 1031.272 L 679.544 1039 687.773 1030.728 L 696.003 1022.456 688.229 1014.728 L 680.456 1007 672.227 1015.272 M 298.881 1030.447 C 296.234 1031.942, 293 1037.434, 293 1040.433 C 293 1043.883, 295.963 1048.930, 298.872 1050.434 C 304.041 1053.107, 308.718 1052.482, 312.600 1048.600 C 315.478 1045.722, 316 1044.496, 316 1040.616 C 316 1034.206, 312.216 1029.970, 305.968 1029.385 C 303.160 1029.123, 300.527 1029.517, 298.881 1030.447 M 92.108 1053.082 C 84.674 1054.542, 75.252 1059.618, 69.121 1065.466 C 58.682 1075.423, 54.438 1086.470, 55.231 1101.623 C 55.648 1109.600, 56.208 1111.906, 59.322 1118.463 C 67.217 1135.087, 82.972 1144.957, 101.661 1144.988 C 129.567 1145.034, 151.631 1119.215, 147.106 1091.810 C 142.743 1065.394, 118.029 1047.991, 92.108 1053.082 M 962 1053.814 C 944.223 1058.461, 930.962 1073.234, 927.894 1091.810 C 923.369 1119.215, 945.433 1145.034, 973.339 1144.988 C 992.028 1144.957, 1007.783 1135.087, 1015.678 1118.463 C 1018.792 1111.906, 1019.352 1109.600, 1019.769 1101.623 C 1020.562 1086.470, 1016.318 1075.423, 1005.879 1065.466 C 997.031 1057.027, 984.298 1051.894, 972.614 1052.058 C 970.351 1052.089, 965.575 1052.880, 962 1053.814 M 720.420 1059.885 C 710.664 1065.835, 715.114 1081, 726.616 1081 C 730.496 1081, 731.722 1080.478, 734.600 1077.600 C 744.194 1068.006, 732.029 1052.807, 720.420 1059.885 M 433 1200.500 L 433 1247 462 1247 L 491 1247 491 1200.500 L 491 1154 462 1154 L 433 1154 433 1200.500 M 671 1200.500 L 671 1247 700 1247 L 729 1247 729 1200.500 L 729 1154 700 1154 L 671 1154 671 1200.500" stroke="none" fill="#060606" fill-rule="evenodd" data-index="0"></path><path d="M 0 630.001 L 0 1260.002 531.750 1259.751 L 1063.500 1259.500 1063.751 629.750 L 1064.002 0 930.804 0 L 797.607 0 802.780 2.578 C 808.816 5.585, 812.395 9.488, 815.689 16.654 C 818.015 21.713, 818.059 22.364, 818.062 51.894 C 818.065 87.008, 817.780 88.344, 808.506 96.821 C 794.283 109.820, 772.658 106.268, 762.866 89.324 L 759.500 83.500 759.500 52 L 759.500 20.500 762.360 15.339 C 765.716 9.286, 769.944 5.020, 775.485 2.100 L 779.470 -0 536.485 0.079 C 364.205 0.135, 294.373 0.466, 296.500 1.217 C 304.535 4.052, 311.753 12.005, 314.393 20.932 C 316.716 28.783, 316.734 75.165, 314.418 82.964 C 311.288 93.503, 304.628 100.251, 294.339 103.307 C 280.994 107.270, 266.392 100.907, 259.967 88.330 L 257.500 83.500 257.500 52 L 257.500 20.500 259.967 15.670 C 262.865 9.997, 268.562 4.557, 274.363 1.922 C 278.435 0.073, 276.310 0.044, 139.250 0.022 L 0 0 0 630.001 M 0.497 630.500 C 0.497 977, 0.611 1118.601, 0.750 945.168 C 0.889 771.735, 0.889 488.235, 0.750 315.168 C 0.611 142.101, 0.497 284, 0.497 630.500 M 187 46 L 187 61 201.500 61 L 216 61 216 46 L 216 31 201.500 31 L 187 31 187 46 M 94.500 35.031 C 71.302 38.653, 55 57.624, 55 81 C 55 115.476, 90.569 137.707, 121.500 122.564 C 132.900 116.983, 140.228 108.858, 145.008 96.500 C 148.137 88.412, 148.247 74.152, 145.245 65.894 C 137.553 44.735, 116.063 31.665, 94.500 35.031 M 966.500 35.107 C 954.644 36.811, 940.964 45.760, 934.455 56.071 C 929.550 63.841, 927.717 70.622, 927.717 81 C 927.717 91.378, 929.550 98.159, 934.455 105.929 C 941.129 116.501, 954.667 125.209, 967 126.863 C 995.636 130.704, 1020 109.621, 1020 81 C 1020 52.279, 995.178 30.986, 966.500 35.107 M 851.763 114.565 C 848.308 116.440, 846 120.840, 846 125.550 C 846 128.368, 846.775 129.975, 849.400 132.600 C 852.231 135.431, 853.533 136, 857.177 136 C 862.176 136, 865.354 134.151, 867.506 129.989 C 872.819 119.715, 861.931 109.048, 851.763 114.565 M 844 162 L 844 174 855.500 174 L 867 174 867 162 L 867 150 855.500 150 L 844 150 844 162 M 877 162 L 877 174 888 174 L 899 174 899 162 L 899 150 888 150 L 877 150 877 162 M 187 173.500 L 187 188 201.500 188 L 216 188 216 173.500 L 216 159 201.500 159 L 187 159 187 173.500 M 86.772 182.345 C 74.816 186.419, 65.125 194.813, 59.461 206 C 52.920 218.918, 53.698 237.277, 61.338 250.314 C 64.861 256.325, 74.779 265.277, 81.370 268.395 C 109.276 281.597, 142.172 263.997, 147.132 233.210 C 150.865 210.041, 134.856 186.356, 111.885 181.060 C 104.314 179.314, 94.135 179.835, 86.772 182.345 M 962 181.360 C 939.198 187.567, 924.188 210.369, 927.868 233.210 C 932.828 263.997, 965.724 281.597, 993.630 268.395 C 1000.221 265.277, 1010.139 256.325, 1013.662 250.314 C 1025.995 229.268, 1019.859 201.420, 999.961 188.133 C 988.884 180.736, 974.028 178.086, 962 181.360 M 845 197.500 L 845 209 856 209 L 867 209 867 197.500 L 867 186 856 186 L 845 186 845 197.500 M 877 197.500 L 877 209 888 209 L 899 209 899 197.500 L 899 186 888 186 L 877 186 877 197.500 M 175 212 L 175 224 186 224 L 197 224 197 212 L 197 200 186 200 L 175 200 175 212 M 208 212 L 208 224 219 224 L 230 224 230 212 L 230 200 219 200 L 208 200 208 212 M 276.594 235.585 C 273.112 236.697, 270.054 238.798, 266.055 242.826 C 257.118 251.827, 257 252.504, 257 294.933 C 257 337.587, 257.117 338.277, 265.849 347.009 C 272.884 354.044, 279.212 356.498, 288.417 355.759 C 299.134 354.898, 307.097 349.497, 311.942 339.800 L 315 333.681 315 295 L 315 256.319 311.942 250.200 C 308.671 243.655, 305.199 240.164, 298.616 236.802 C 293.224 234.049, 283.151 233.492, 276.594 235.585 M 779.882 235.381 C 771.208 238.481, 766.017 243.332, 762.072 252.028 C 760.148 256.270, 760.043 258.482, 760.022 295.090 L 760 333.681 763.058 339.800 C 767.903 349.497, 775.866 354.898, 786.583 355.759 C 795.788 356.498, 802.116 354.044, 809.151 347.009 C 817.883 338.277, 818 337.587, 818 294.933 C 818 252.514, 817.880 251.825, 808.959 242.839 C 804.661 238.510, 802.078 236.804, 797.987 235.589 C 791.594 233.690, 784.830 233.612, 779.882 235.381 M 177 260.500 L 177 286 205 286 L 233 286 233 260.500 L 233 235 205 235 L 177 235 177 260.500 M 573.997 246.750 C 568.334 251.882, 568.372 259.611, 574.084 264.417 C 579.624 269.078, 588.316 267.068, 591.484 260.393 C 593.410 256.334, 593.389 254.623, 591.365 250.357 C 588.200 243.686, 579.395 241.858, 573.997 246.750 M 361.384 248.913 C 348.522 254.754, 347.005 273.705, 358.778 281.460 C 368.382 287.787, 381.149 284.520, 386.003 274.494 C 393.850 258.284, 377.701 241.503, 361.384 248.913 M 697.121 249.169 C 688.055 253.657, 684.410 265.018, 688.997 274.494 C 693.851 284.520, 706.618 287.787, 716.222 281.460 C 722.370 277.411, 725.521 269.265, 723.837 261.772 C 721.145 249.790, 708.202 243.684, 697.121 249.169 M 489 259.711 C 486.855 260.807, 484.760 263.016, 483.588 265.416 C 481.853 268.970, 481.807 269.702, 483.088 273.326 C 486.880 284.051, 501.169 284.268, 504.724 273.654 C 507.987 263.913, 498.038 255.090, 489 259.711 M 547 259.711 C 537.460 264.588, 538.688 278.029, 548.956 281.105 C 554.282 282.701, 559.741 280.055, 562.412 274.584 C 564.147 271.030, 564.193 270.298, 562.912 266.674 C 560.396 259.559, 553.338 256.471, 547 259.711 M 857 270 L 857 282 868 282 L 879 282 879 270 L 879 258 868 258 L 857 258 857 270 M 890 270 L 890 282 901 282 L 912 282 912 270 L 912 258 901 258 L 890 258 890 270 M 334 328.500 L 334 362 351.500 362 L 369 362 369 328.500 L 369 295 351.500 295 L 334 295 334 328.500 M 380 328.500 L 380 362 397.500 362 L 415 362 415 328.500 L 415 295 397.500 295 L 380 295 380 328.500 M 427 328.500 L 427 362 435.500 362 L 444 362 444 328.500 L 444 295 435.500 295 L 427 295 427 328.500 M 456 328.500 L 456 362 465 362 L 474 362 474 328.500 L 474 295 465 295 L 456 295 456 328.500 M 485 328.500 L 485 362 494 362 L 503 362 503 328.500 L 503 295 494 295 L 485 295 485 328.500 M 514 328.500 L 514 362 523 362 L 532 362 532 328.500 L 532 295 523 295 L 514 295 514 328.500 M 543 328.500 L 543 362 552 362 L 561 362 561 328.500 L 561 295 552 295 L 543 295 543 328.500 M 572 328.500 L 572 362 581 362 L 590 362 590 328.500 L 590 295 581 295 L 572 295 572 328.500 M 601 328.500 L 601 362 610 362 L 619 362 619 328.500 L 619 295 610 295 L 601 295 601 328.500 M 631 328.500 L 631 362 639.500 362 L 648 362 648 328.500 L 648 295 639.500 295 L 631 295 631 328.500 M 660 328.500 L 660 362 677.500 362 L 695 362 695 328.500 L 695 295 677.500 295 L 660 295 660 328.500 M 706 328.500 L 706 362 723.500 362 L 741 362 741 328.500 L 741 295 723.500 295 L 706 295 706 328.500 M 92.108 326.082 C 80.565 328.348, 68.908 336.521, 61.955 347.221 C 53.666 359.978, 52.637 377.385, 59.338 391.496 C 64.109 401.544, 71.456 408.891, 81.504 413.662 C 95.615 420.363, 113.022 419.334, 125.779 411.045 C 151.232 394.505, 155.152 360.152, 134 339 C 122.987 327.987, 107.199 323.118, 92.108 326.082 M 964.510 326.175 C 956.369 327.728, 947.355 332.645, 941 339 C 919.848 360.152, 923.768 394.505, 949.221 411.045 C 961.978 419.334, 979.385 420.363, 993.496 413.662 C 1003.544 408.891, 1010.891 401.544, 1015.662 391.496 C 1022.363 377.385, 1021.334 359.978, 1013.045 347.221 C 1008.094 339.602, 1001.216 333.464, 993.675 329.935 C 983.711 325.273, 975.079 324.160, 964.510 326.175 M 177 352.500 L 177 378 205 378 L 233 378 233 352.500 L 233 327 205 327 L 177 327 177 352.500 M 263 432 L 263 490 286 490 L 309 490 309 432 L 309 374 286 374 L 263 374 263 432 M 507 432 L 507 490 530.500 490 L 554 490 554 432 L 554 374 530.500 374 L 507 374 507 432 M 327.353 376.926 C 321.294 380.621, 320.591 389.318, 325.937 394.440 C 333.154 401.354, 345.011 396.603, 345.292 386.686 C 345.562 377.174, 335.724 371.822, 327.353 376.926 M 566 433 L 566 491 589.500 491 L 613 491 613 433 L 613 375 589.500 375 L 566 375 566 433 M 810 433 L 810 491 833.500 491 L 857 491 857 433 L 857 375 833.500 375 L 810 375 810 433 M 168.190 391.026 C 158.097 397.179, 162.012 412, 173.730 412 C 182.470 412, 187.846 404.354, 184.589 396.558 C 182.959 392.657, 177.841 389.007, 174 389.007 C 172.625 389.007, 170.010 389.916, 168.190 391.026 M 650 389.704 C 646.926 390.822, 643.005 395.459, 642.398 398.692 C 641.020 406.040, 646.242 412, 654.058 412 C 658.071 412, 659.344 411.502, 661.923 408.923 C 664.486 406.360, 665 405.061, 665 401.146 C 665 395.553, 663.018 392.323, 658.401 390.394 C 654.955 388.954, 652.593 388.760, 650 389.704 M 385.143 406.533 C 376.841 413.518, 380.496 425.513, 391.297 426.730 C 395.152 427.164, 396.110 426.842, 399.307 424.035 C 403.843 420.053, 404.874 415.643, 402.458 410.553 C 399.274 403.844, 390.704 401.854, 385.143 406.533 M 442.400 407.400 C 439.522 410.278, 439 411.504, 439 415.384 C 439 427.464, 455.232 431.459, 460.365 420.643 C 462.398 416.358, 462.427 413.727, 460.483 409.967 C 458.611 406.348, 454.271 404, 449.450 404 C 446.632 404, 445.025 404.775, 442.400 407.400 M 329 419.711 C 326.855 420.807, 324.760 423.016, 323.588 425.416 C 321.853 428.970, 321.807 429.702, 323.088 433.326 C 324.930 438.534, 328.690 441.273, 334 441.273 C 339.225 441.273, 343.093 438.525, 344.724 433.654 C 347.987 423.913, 338.038 415.090, 329 419.711 M 183 432.500 L 183 444 194 444 L 205 444 205 432.500 L 205 421 194 421 L 183 421 183 432.500 M 216 432.500 L 216 444 227 444 L 238 444 238 432.500 L 238 421 227 421 L 216 421 216 432.500 M 327.973 463.704 C 322.412 467.537, 320.842 472.758, 323.542 478.447 C 328.056 487.959, 341.613 486.762, 344.982 476.553 C 348.090 467.137, 336.116 458.092, 327.973 463.704 M 86.549 473.113 C 74.018 477.422, 65.220 485.374, 59.249 497.785 C 52.634 511.536, 53.715 529.097, 61.955 541.779 C 76.644 564.384, 105.151 570.290, 127.612 555.382 C 141.831 545.944, 149.989 527.222, 147.205 510.418 C 145.037 497.335, 135.880 483.530, 125.228 477.288 C 114.243 470.850, 98.174 469.116, 86.549 473.113 M 959.798 472.931 C 951.694 475.522, 946.257 478.978, 940.187 485.395 C 927.213 499.114, 923.738 519.128, 931.359 536.239 C 940.040 555.731, 961.876 566.979, 982.626 562.647 C 995.746 559.908, 1005.703 553.077, 1013.045 541.779 C 1021.285 529.097, 1022.366 511.536, 1015.751 497.785 C 1009.732 485.273, 1000.903 477.347, 988.228 473.077 C 980.319 470.412, 967.874 470.349, 959.798 472.931 M 373.415 477.421 C 364.030 481.508, 363.543 494.183, 372.607 498.484 C 376.666 500.410, 378.377 500.389, 382.643 498.365 C 391.666 494.083, 390.891 481.359, 381.364 477.379 C 377.402 475.723, 377.314 475.724, 373.415 477.421 M 477 476.677 C 471.022 478.547, 468 482.350, 468 488 C 468 495.266, 474.536 500.872, 481.486 499.569 C 488.259 498.298, 492.950 488.990, 489.789 483.096 C 487.469 478.771, 480.879 475.463, 477 476.677 M 210.111 508.560 C 204.920 512.928, 204.688 520.415, 209.592 525.319 C 217.064 532.791, 229 527.336, 229 516.450 C 229 513.632, 228.225 512.025, 225.600 509.400 C 221.144 504.944, 214.817 504.601, 210.111 508.560 M 529.400 509.400 C 525.568 513.232, 524.889 517.952, 527.456 522.915 C 528.913 525.733, 534.306 529, 537.500 529 C 540.694 529, 546.087 525.733, 547.544 522.915 C 550.111 517.952, 549.432 513.232, 545.600 509.400 C 542.698 506.498, 541.512 506, 537.500 506 C 533.488 506, 532.302 506.498, 529.400 509.400 M 869 529 L 869 540 880.500 540 L 892 540 892 529 L 892 518 880.500 518 L 869 518 869 529 M 713 546.500 L 713 574 738.500 574 L 764 574 764 546.500 L 764 519 738.500 519 L 713 519 713 546.500 M 805 546.500 L 805 574 830.500 574 L 856 574 856 546.500 L 856 519 830.500 519 L 805 519 805 546.500 M 311.400 538.400 C 307.540 542.260, 306.891 546.956, 309.517 552.033 C 315.217 563.055, 332.346 557.076, 330.680 544.646 C 329.884 538.717, 325.532 535, 319.384 535 C 315.504 535, 314.278 535.522, 311.400 538.400 M 355.816 537.067 C 352.147 539.806, 350.514 544.997, 351.951 549.353 C 355.466 560.001, 369.348 560.591, 373.658 550.276 C 375.656 545.494, 374.155 539.959, 370.071 537.050 C 366.275 534.348, 359.448 534.356, 355.816 537.067 M 660.400 538.400 C 656.540 542.260, 655.891 546.956, 658.517 552.033 C 664.217 563.055, 681.346 557.076, 679.680 544.646 C 678.884 538.717, 674.532 535, 668.384 535 C 664.504 535, 663.278 535.522, 660.400 538.400 M 387 560.500 L 387 572 399.500 572 L 412 572 412 560.500 L 412 549 399.500 549 L 387 549 387 560.500 M 423 560.500 L 423 572 435.500 572 L 448 572 448 560.500 L 448 549 435.500 549 L 423 549 423 560.500 M 604.314 550.894 C 600.574 553.240, 599 555.820, 599 559.601 C 599 561.765, 596.294 565.067, 586.006 575.457 L 573.012 588.580 578.516 594.016 L 584.020 599.452 597.456 586.044 C 605.899 577.618, 612.106 572.239, 614.161 571.568 C 618.901 570.020, 622.313 564.572, 621.660 559.593 C 620.576 551.316, 611.164 546.596, 604.314 550.894 M 869 562 L 869 573 880.500 573 L 892 573 892 562 L 892 551 880.500 551 L 869 551 869 562 M 145 589.500 L 145 625 162 625 L 179 625 179 589.500 L 179 554 162 554 L 145 554 145 589.500 M 256 589.500 L 256 625 273 625 L 290 625 290 589.500 L 290 554 273 554 L 256 554 256 589.500 M 525.225 565.272 L 520.018 570.544 534.499 584.999 L 548.979 599.453 554.500 594 L 560.022 588.547 545.774 574.273 C 537.937 566.423, 531.280 560, 530.979 560 C 530.678 560, 528.089 562.372, 525.225 565.272 M 631.400 567.400 C 628.569 570.231, 628 571.533, 628 575.177 C 628 580.176, 629.849 583.354, 634.011 585.506 C 639.898 588.550, 646.676 586.310, 649.484 580.393 C 651.394 576.367, 651.400 573.674, 649.506 570.011 C 647.354 565.849, 644.176 564, 639.177 564 C 635.533 564, 634.231 564.569, 631.400 567.400 M 461 578.704 C 455.229 580.804, 451.725 588.508, 454.021 594.051 C 457.682 602.889, 470.609 603.673, 474.883 595.316 C 476.514 592.126, 476.248 585.799, 474.369 583.117 C 471.731 579.350, 465.172 577.185, 461 578.704 M 505.004 585.496 L 499.547 591.021 514.012 605.512 L 528.476 620.002 533.981 614.498 L 539.485 608.993 524.973 594.482 L 510.461 579.970 505.004 585.496 M 608 594.500 L 593.524 609.002 599.024 614.502 L 604.524 620.002 619 605.500 L 633.476 590.998 627.976 585.498 L 622.476 579.998 608 594.500 M 387 593.500 L 387 605 399.500 605 L 412 605 412 593.500 L 412 582 399.500 582 L 387 582 387 593.500 M 423 593.500 L 423 605 435.500 605 L 448 605 448 593.500 L 448 582 435.500 582 L 423 582 423 593.500 M 734.514 595.168 C 725.899 601.944, 729.419 614.504, 740.276 615.728 C 744.155 616.165, 745.105 615.846, 748.307 613.035 C 752.843 609.053, 753.874 604.643, 751.458 599.553 C 748.400 593.108, 739.921 590.914, 734.514 595.168 M 772 604.500 L 772 616 783 616 L 794 616 794 604.500 L 794 593 783 593 L 772 593 772 604.500 M 805 604.500 L 805 616 816 616 L 827 616 827 604.500 L 827 593 816 593 L 805 593 805 604.500 M 490.500 674 L 414.503 750.002 490.503 826.002 L 566.503 902.002 642.500 826 L 718.497 749.998 642.497 673.998 L 566.497 597.998 490.500 674 M 628.780 614.749 L 614.084 629.500 619.880 634.675 L 625.676 639.849 640.076 625.424 L 654.476 610.998 648.976 605.498 L 643.477 599.998 628.780 614.749 M 484.225 606.272 L 479.018 611.544 493.499 625.999 L 507.979 640.453 513.500 635 L 519.022 629.547 504.774 615.273 C 496.937 607.423, 490.280 601, 489.979 601 C 489.678 601, 487.089 603.372, 484.225 606.272 M 90.335 617.423 C 69.502 622.475, 55 640.976, 55 662.500 C 55 681.781, 67.004 699.332, 84.775 706.034 C 92.034 708.772, 103.991 709.669, 111.110 708.011 C 134.937 702.461, 151.093 678.989, 147.167 655.626 C 142.620 628.566, 116.575 611.059, 90.335 617.423 M 962.265 617.542 C 944.257 622.391, 930.943 637.117, 927.833 655.626 C 924.687 674.346, 934.773 694.446, 951.725 703.241 C 960.728 707.911, 967.512 709.391, 976.890 708.730 C 1017.249 705.884, 1034.782 656.711, 1005.456 628.612 C 994.553 618.165, 976.823 613.621, 962.265 617.542 M 464.004 626.496 L 458.547 632.021 473.012 646.512 L 487.476 661.002 492.981 655.498 L 498.485 649.993 483.973 635.482 L 469.461 620.970 464.004 626.496 M 649.226 635.273 L 634.978 649.547 640.500 655 L 646.021 660.453 660.501 645.999 L 674.982 631.544 669.775 626.272 C 666.911 623.372, 664.322 621, 664.021 621 C 663.720 621, 657.063 627.423, 649.226 635.273 M 696.770 623.966 C 691.202 628.346, 690.729 636.466, 695.762 641.254 C 699.284 644.603, 703 645.485, 707.431 644.023 C 716.064 641.174, 717.886 629.648, 710.633 623.772 C 707.620 621.331, 699.984 621.438, 696.770 623.966 M 402.500 637.391 C 397.489 639.622, 395.500 642.637, 395.500 648 C 395.500 651.376, 396.091 653.452, 397.500 655.033 C 406.886 665.559, 422.684 655.374, 416.846 642.561 C 414.591 637.612, 407.633 635.104, 402.500 637.391 M 809.270 637.483 C 805.602 639.077, 802.007 644.283, 802.007 648 C 802.007 651.908, 805.667 656.963, 809.724 658.658 C 817.310 661.828, 825 656.493, 825 648.060 C 825 642.969, 822.623 639.158, 818.328 637.364 C 814.326 635.692, 813.360 635.704, 809.270 637.483 M 669.991 655.509 L 655.524 670.002 661.265 675.743 L 667.007 681.485 681.517 666.975 L 696.027 652.464 690.243 646.740 L 684.458 641.016 669.991 655.509 M 443.225 647.272 L 438.018 652.544 452.499 666.999 L 466.979 681.453 472.500 676 L 478.022 670.547 463.774 656.273 C 455.937 648.423, 449.280 642, 448.979 642 C 448.678 642, 446.089 644.372, 443.225 647.272 M 422.740 667.757 L 417.016 673.542 431.509 688.009 L 446.002 702.476 451.743 696.735 L 457.485 690.993 442.975 676.483 L 428.464 661.973 422.740 667.757 M 690.228 676.272 L 675.981 690.544 681.761 696.264 L 687.542 701.984 701.997 687.503 L 716.453 673.021 711.011 667.511 C 708.017 664.480, 705.322 662, 705.021 662 C 704.720 662, 698.063 668.422, 690.228 676.272 M 781.445 666.079 C 776.314 667.552, 773.500 671.421, 773.500 677 C 773.500 682.412, 775.905 685.890, 781.151 688.062 C 785.514 689.870, 791.519 687.836, 794.044 683.696 C 799.845 674.182, 791.902 663.075, 781.445 666.079 M 848 688.500 L 848 700 859 700 L 870 700 870 688.500 L 870 677 859 677 L 848 677 848 688.500 M 880 688.500 L 880 700 891 700 L 902 700 902 688.500 L 902 677 891 677 L 880 677 880 688.500 M 401.989 688.511 L 396.547 694.021 411.003 708.503 L 425.458 722.984 431.239 717.264 L 437.019 711.544 422.772 697.272 C 414.937 689.422, 408.280 683, 407.979 683 C 407.678 683, 404.983 685.480, 401.989 688.511 M 711.226 697.273 L 696.978 711.547 702.500 717 L 708.021 722.453 722.501 707.999 L 736.982 693.544 731.775 688.272 C 728.911 685.372, 726.322 683, 726.021 683 C 725.720 683, 719.063 689.423, 711.226 697.273 M 145 735.500 L 145 771 162 771 L 179 771 179 735.500 L 179 700 162 700 L 145 700 145 735.500 M 200 735.500 L 200 771 217.500 771 L 235 771 235 735.500 L 235 700 217.500 700 L 200 700 200 735.500 M 256 735.500 L 256 771 273 771 L 290 771 290 735.500 L 290 700 273 700 L 256 700 256 735.500 M 732 717.500 L 717.524 732.002 723.024 737.502 L 728.524 743.002 743 728.500 L 757.476 713.998 751.976 708.498 L 746.476 702.998 732 717.500 M 381.225 709.272 L 376.018 714.544 390.499 728.999 L 404.979 743.453 410.500 738 L 416.022 732.547 401.774 718.273 C 393.937 710.423, 387.280 704, 386.979 704 C 386.678 704, 384.089 706.372, 381.225 709.272 M 845 723.500 L 845 735 857 735 L 869 735 869 723.500 L 869 712 857 712 L 845 712 845 723.500 M 881 723.500 L 881 735 893.500 735 L 906 735 906 723.500 L 906 712 893.500 712 L 881 712 881 723.500 M 793.314 739.894 C 789.253 742.441, 788 744.833, 788 750.034 C 788 753.438, 788.622 754.822, 791.400 757.600 C 794.251 760.451, 795.520 761, 799.265 761 C 804.435 761, 808.080 758.636, 809.979 754.051 C 814.053 744.215, 802.317 734.245, 793.314 739.894 M 924.314 739.894 C 920.219 742.463, 918.995 744.843, 919.022 750.184 C 919.058 757.033, 923.377 761, 930.799 761 C 937.739 761, 943.064 754.121, 941.530 747.137 C 939.952 739.951, 930.537 735.990, 924.314 739.894 M 845 756.500 L 845 768 857 768 L 869 768 869 756.500 L 869 745 857 745 L 845 745 845 756.500 M 881 756.500 L 881 768 893.500 768 L 906 768 906 756.500 L 906 745 893.500 745 L 881 745 881 756.500 M 390.226 771.273 L 375.978 785.547 381.500 791 L 387.021 796.453 401.501 781.999 L 415.982 767.544 410.775 762.272 C 407.911 759.372, 405.322 757, 405.021 757 C 404.720 757, 398.063 763.423, 390.226 771.273 M 722.225 762.272 L 717.018 767.544 731.499 781.999 L 745.979 796.453 751.500 791 L 757.022 785.547 742.774 771.273 C 734.937 763.423, 728.280 757, 727.979 757 C 727.678 757, 725.089 759.372, 722.225 762.272 M 93.121 762.127 C 85.782 763.346, 76.234 768.085, 70.215 773.496 C 43.220 797.767, 53.510 842.523, 88.387 852.532 C 92.683 853.765, 96.873 854.116, 103.887 853.829 C 112.123 853.493, 114.472 852.981, 120.288 850.254 C 142.125 840.011, 152.803 815.181, 145.056 792.662 C 139.600 776.804, 124.918 764.667, 108 762.029 C 100.700 760.890, 100.563 760.891, 93.121 762.127 M 966 762.119 C 950.062 764.685, 935.254 777.229, 929.944 792.662 C 922.197 815.181, 932.875 840.011, 954.712 850.254 C 960.528 852.981, 962.877 853.493, 971.113 853.829 C 978.127 854.116, 982.317 853.765, 986.613 852.532 C 1021.490 842.523, 1031.780 797.767, 1004.785 773.496 C 998.460 767.810, 989.314 763.419, 980.981 762.067 C 973.724 760.889, 973.639 760.889, 966 762.119 M 411 791.500 L 396.524 806.002 402.024 811.502 L 407.524 817.002 422 802.500 L 436.476 787.998 430.976 782.498 L 425.476 776.998 411 791.500 M 702.004 782.496 L 696.547 788.021 711.012 802.512 L 725.476 817.002 730.981 811.498 L 736.485 805.993 721.973 791.482 L 707.461 776.970 702.004 782.496 M 845 791.500 L 845 803 857.500 803 L 870 803 870 791.500 L 870 780 857.500 780 L 845 780 845 791.500 M 881 791.500 L 881 803 893.500 803 L 906 803 906 791.500 L 906 780 893.500 780 L 881 780 881 791.500 M 220.217 783.561 C 217.408 785.528, 215 790.116, 215 793.500 C 215 797.243, 217.594 801.716, 220.763 803.435 C 223.400 804.865, 223.234 804.921, 216.250 804.960 L 209 805 209 822.500 L 209 840 226.500 840 L 244 840 244 822.500 L 244 805 236.750 804.996 L 229.500 804.993 232.775 802.996 C 236.440 800.761, 238 797.578, 238 792.335 C 238 786.929, 232.670 782, 226.823 782 C 224.415 782, 221.442 782.702, 220.217 783.561 M 791.400 785.400 C 788.522 788.278, 788 789.504, 788 793.384 C 788 805.464, 804.232 809.459, 809.365 798.643 C 811.398 794.358, 811.427 791.727, 809.483 787.967 C 807.611 784.348, 803.271 782, 798.450 782 C 795.632 782, 794.025 782.775, 791.400 785.400 M 431.226 812.273 L 416.978 826.547 422.500 832 L 428.021 837.453 442.501 822.999 L 456.982 808.544 451.775 803.272 C 448.911 800.372, 446.322 798, 446.021 798 C 445.720 798, 439.063 804.423, 431.226 812.273 M 681.225 803.272 L 676.018 808.544 690.499 822.999 L 704.979 837.453 710.500 832 L 716.022 826.547 701.774 812.273 C 693.937 804.423, 687.280 798, 686.979 798 C 686.678 798, 684.089 800.372, 681.225 803.272 M 162 822.500 L 162 840 179.500 840 L 197 840 197 822.500 L 197 805 179.500 805 L 162 805 162 822.500 M 307 816.500 L 307 828 318 828 L 329 828 329 816.500 L 329 805 318 805 L 307 805 307 816.500 M 339 816.500 L 339 828 350 828 L 361 828 361 816.500 L 361 805 350 805 L 339 805 339 816.500 M 734.514 812.168 C 728.128 817.191, 727.964 825.268, 734.143 830.467 C 739.623 835.078, 748.334 833.032, 751.484 826.393 C 753.410 822.334, 753.389 820.623, 751.365 816.357 C 748.396 810.100, 739.845 807.974, 734.514 812.168 M 845 824.500 L 845 836 857.500 836 L 870 836 870 824.500 L 870 813 857.500 813 L 845 813 845 824.500 M 881 824.500 L 881 836 893.500 836 L 906 836 906 824.500 L 906 813 893.500 813 L 881 813 881 824.500 M 452 832.500 L 437.524 847.002 443.024 852.502 L 448.524 858.002 463 843.500 L 477.476 828.998 471.976 823.498 L 466.476 817.998 452 832.500 M 661.004 823.496 L 655.547 829.021 670.012 843.512 L 684.476 858.002 689.981 852.498 L 695.485 846.993 680.973 832.482 L 666.461 817.970 661.004 823.496 M 817.954 825.750 C 810.046 832.817, 815.295 846, 826.018 846 C 831.958 846, 837 840.238, 837 833.450 C 837 830.632, 836.225 829.025, 833.600 826.400 C 830.722 823.522, 829.496 823, 825.616 823 C 822.028 823, 820.363 823.597, 817.954 825.750 M 399 838.706 C 396.216 839.724, 393.065 843.274, 391.951 846.647 C 388.767 856.295, 399.417 864.456, 408.835 859.585 C 413.844 856.995, 415.898 849.415, 413.039 844.072 C 410.671 839.649, 403.705 836.986, 399 838.706 M 472.228 853.272 L 457.981 867.544 463.761 873.264 L 469.542 878.984 483.997 864.503 L 498.453 850.021 493.011 844.511 C 490.017 841.480, 487.322 839, 487.021 839 C 486.720 839, 480.063 845.422, 472.228 853.272 M 640.225 844.272 L 635.018 849.544 649.499 863.999 L 663.979 878.453 669.500 873 L 675.022 867.547 660.774 853.273 C 652.937 845.423, 646.280 839, 645.979 839 C 645.678 839, 643.089 841.372, 640.225 844.272 M 307 851.500 L 307 863 318 863 L 329 863 329 851.500 L 329 840 318 840 L 307 840 307 851.500 M 339 851.500 L 339 863 350 863 L 361 863 361 851.500 L 361 840 350 840 L 339 840 339 851.500 M 845 859.500 L 845 872 857 872 L 869 872 869 859.500 L 869 847 857 847 L 845 847 845 859.500 M 878 859.500 L 878 872 889.500 872 L 901 872 901 859.500 L 901 847 889.500 847 L 878 847 878 859.500 M 809 862 L 809 874 821 874 L 833 874 833 862 L 833 850 821 850 L 809 850 809 862 M 425.756 853.755 C 422.778 855.601, 420 860.522, 420 863.951 C 420 869.957, 425.728 875, 432.550 875 C 435.368 875, 436.975 874.225, 439.600 871.600 C 442.431 868.769, 443 867.467, 443 863.823 C 443 858.824, 441.151 855.646, 436.989 853.494 C 433.220 851.545, 429.168 851.639, 425.756 853.755 M 492.991 873.509 L 478.524 888.002 484.265 893.743 L 490.007 899.485 504.517 884.975 L 519.027 870.464 513.243 864.740 L 507.458 859.016 492.991 873.509 M 620.004 864.496 L 614.547 870.021 629.012 884.512 L 643.476 899.002 648.981 893.498 L 654.485 887.993 639.973 873.482 L 625.461 858.970 620.004 864.496 M 736.500 869.945 C 731.228 872.103, 728.236 879.235, 730.415 884.450 C 734.408 894.009, 747.110 894.610, 751.458 885.447 C 755.933 876.016, 746.232 865.962, 736.500 869.945 M 514 894.500 L 499.524 909.002 505.024 914.502 L 510.524 920.002 525 905.500 L 539.476 890.998 533.976 885.498 L 528.476 879.998 514 894.500 M 598.989 885.511 L 593.547 891.021 608.003 905.503 L 622.458 919.984 628.239 914.264 L 634.019 908.544 619.772 894.272 C 611.937 886.422, 605.280 880, 604.979 880 C 604.678 880, 601.983 882.480, 598.989 885.511 M 809 894.500 L 809 906 821 906 L 833 906 833 894.500 L 833 883 821 883 L 809 883 809 894.500 M 845 895.500 L 845 908 857 908 L 869 908 869 895.500 L 869 883 857 883 L 845 883 845 895.500 M 878 895.500 L 878 908 889.500 908 L 901 908 901 895.500 L 901 883 889.500 883 L 878 883 878 895.500 M 705.197 887.957 C 699.922 893.232, 700.720 901.562, 706.898 905.715 C 711.056 908.511, 714.494 908.606, 718.701 906.040 C 725.585 901.843, 726.642 893.488, 721.003 887.850 C 718.631 885.477, 717.317 885, 713.154 885 C 708.948 885, 707.684 885.470, 705.197 887.957 M 203 933 L 203 965 238 965 L 273 965 273 933 L 273 901 238 901 L 203 901 203 933 M 337 933 L 337 965 372 965 L 407 965 407 933 L 407 901 372 901 L 337 901 337 933 M 534.226 915.273 L 519.978 929.547 525.500 935 L 531.021 940.453 545.501 925.999 L 559.982 911.544 554.775 906.272 C 551.911 903.372, 549.322 901, 549.021 901 C 548.720 901, 542.063 907.423, 534.226 915.273 M 578.225 906.272 L 573.018 911.544 587.510 926.010 L 602.002 940.476 607.751 934.698 L 613.500 928.919 599 915.007 C 591.025 907.355, 584.260 901.073, 583.966 901.047 C 583.672 901.021, 581.089 903.372, 578.225 906.272 M 86.772 909.345 C 79.046 911.978, 70.218 917.714, 65.889 922.916 C 64.248 924.887, 61.290 929.750, 59.315 933.721 C 56.174 940.038, 55.663 942.112, 55.236 950.281 C 54.438 965.537, 58.657 976.553, 69.121 986.534 C 96.533 1012.681, 140.913 997.690, 147.106 960.190 C 152.647 926.635, 119.070 898.337, 86.772 909.345 M 962.698 908.096 C 940.043 913.427, 924.110 937.275, 927.894 960.190 C 931.218 980.315, 946.124 995.517, 966.018 999.073 C 980.056 1001.581, 995.047 996.866, 1005.879 986.534 C 1016.343 976.553, 1020.562 965.537, 1019.764 950.281 C 1019.337 942.112, 1018.826 940.038, 1015.685 933.721 C 1011.057 924.412, 1007.405 920.104, 999.890 915.085 C 989.212 907.955, 974.803 905.247, 962.698 908.096 M 473.763 928.565 C 470.308 930.440, 468 934.840, 468 939.550 C 468 942.368, 468.775 943.975, 471.400 946.600 C 474.231 949.431, 475.533 950, 479.177 950 C 484.176 950, 487.354 948.151, 489.506 943.989 C 492.550 938.102, 490.310 931.324, 484.393 928.516 C 480.421 926.632, 477.300 926.646, 473.763 928.565 M 650 927.704 C 649.175 928.004, 647.284 929.382, 645.799 930.765 C 638.524 937.540, 643.308 950, 653.185 950 C 660.853 950, 665 945.850, 665 938.175 C 665 930.612, 657.122 925.112, 650 927.704 M 706.190 929.026 C 696.050 935.208, 700.148 950, 712 950 C 720.494 950, 725.839 942.338, 722.658 934.724 C 720.963 930.667, 715.908 927.007, 712 927.007 C 710.625 927.007, 708.010 927.916, 706.190 929.026 M 423 953.500 L 423 965 435.500 965 L 448 965 448 953.500 L 448 942 435.500 942 L 423 942 423 953.500 M 500.400 945.400 C 496.540 949.260, 495.891 953.956, 498.517 959.033 C 502.570 966.871, 514.495 966.745, 518.593 958.820 C 522.650 950.975, 517.203 942, 508.384 942 C 504.504 942, 503.278 942.522, 500.400 945.400 M 806.816 944.067 C 803.619 946.454, 801.549 952.051, 802.476 955.803 C 804.103 962.385, 811.952 966.505, 818.051 963.979 C 822.636 962.080, 825 958.435, 825 953.265 C 825 949.520, 824.451 948.251, 821.600 945.400 C 818.758 942.558, 817.486 942.005, 813.850 942.032 C 811.097 942.052, 808.514 942.799, 806.816 944.067 M 840 959 L 840 976 857.500 976 L 875 976 875 959 L 875 942 857.500 942 L 840 942 840 959 M 633.881 957.503 C 631.243 958.937, 628 964.412, 628 967.433 C 628 970.883, 630.963 975.930, 633.872 977.434 C 639.041 980.107, 643.718 979.482, 647.600 975.600 C 650.502 972.698, 651 971.512, 651 967.500 C 651 963.488, 650.502 962.302, 647.600 959.400 C 644.885 956.685, 643.424 956.008, 640.350 956.040 C 638.232 956.062, 635.322 956.720, 633.881 957.503 M 162 980.500 L 162 992 174 992 L 186 992 186 980.500 L 186 969 174 969 L 162 969 162 980.500 M 298.353 972.926 C 292.414 976.548, 291.596 985.323, 296.720 990.447 C 304.139 997.867, 316 992.869, 316 982.323 C 316 978.512, 315.464 977.264, 312.600 974.400 C 308.573 970.373, 303.416 969.839, 298.353 972.926 M 734.514 973.168 C 725.899 979.944, 729.419 992.504, 740.276 993.728 C 744.155 994.165, 745.105 993.846, 748.307 991.035 C 752.843 987.053, 753.874 982.643, 751.458 977.553 C 748.400 971.108, 739.921 968.914, 734.514 973.168 M 772 982.500 L 772 994 784.500 994 L 797 994 797 982.500 L 797 971 784.500 971 L 772 971 772 982.500 M 809 982.500 L 809 994 821 994 L 833 994 833 982.500 L 833 971 821 971 L 809 971 809 982.500 M 423 986 L 423 998 435.500 998 L 448 998 448 986 L 448 974 435.500 974 L 423 974 423 986 M 491 996.500 L 491 1014 508.500 1014 L 526 1014 526 996.500 L 526 979 508.500 979 L 491 979 491 996.500 M 538 996.500 L 538 1014 555.500 1014 L 573 1014 573 996.500 L 573 979 555.500 979 L 538 979 538 996.500 M 649.227 992.272 L 640.997 1000.544 648.771 1008.272 L 656.544 1016 664.773 1007.728 L 673.003 999.456 665.229 991.728 L 657.456 984 649.227 992.272 M 605.378 986.437 C 600.957 988.361, 599 991.646, 599 997.146 C 599 1001.014, 599.521 1002.367, 601.940 1004.786 C 607.501 1010.347, 615.881 1009.432, 620.031 1002.810 C 623.875 996.675, 621.311 989.337, 614.282 986.362 C 610.352 984.699, 609.353 984.707, 605.378 986.437 M 840 1006 L 840 1023 857.500 1023 L 875 1023 875 1006 L 875 989 857.500 989 L 840 989 840 1006 M 203 1032 L 203 1064 238 1064 L 273 1064 273 1032 L 273 1000 238 1000 L 203 1000 203 1032 M 337 1032 L 337 1064 372 1064 L 407 1064 407 1032 L 407 1000 372 1000 L 337 1000 337 1032 M 162 1013.500 L 162 1025 174 1025 L 186 1025 186 1013.500 L 186 1002 174 1002 L 162 1002 162 1013.500 M 772 1015 L 772 1027 784.500 1027 L 797 1027 797 1015 L 797 1003 784.500 1003 L 772 1003 772 1015 M 809 1015.500 L 809 1027 821 1027 L 833 1027 833 1015.500 L 833 1004 821 1004 L 809 1004 809 1015.500 M 672.227 1015.272 L 663.997 1023.544 671.771 1031.272 L 679.544 1039 687.773 1030.728 L 696.003 1022.456 688.229 1014.728 L 680.456 1007 672.227 1015.272 M 298.881 1030.447 C 296.234 1031.942, 293 1037.434, 293 1040.433 C 293 1043.883, 295.963 1048.930, 298.872 1050.434 C 304.041 1053.107, 308.718 1052.482, 312.600 1048.600 C 315.478 1045.722, 316 1044.496, 316 1040.616 C 316 1034.206, 312.216 1029.970, 305.968 1029.385 C 303.160 1029.123, 300.527 1029.517, 298.881 1030.447 M 92.108 1053.082 C 84.674 1054.542, 75.252 1059.618, 69.121 1065.466 C 58.682 1075.423, 54.438 1086.470, 55.231 1101.623 C 55.648 1109.600, 56.208 1111.906, 59.322 1118.463 C 67.217 1135.087, 82.972 1144.957, 101.661 1144.988 C 129.567 1145.034, 151.631 1119.215, 147.106 1091.810 C 142.743 1065.394, 118.029 1047.991, 92.108 1053.082 M 962 1053.814 C 944.223 1058.461, 930.962 1073.234, 927.894 1091.810 C 923.369 1119.215, 945.433 1145.034, 973.339 1144.988 C 992.028 1144.957, 1007.783 1135.087, 1015.678 1118.463 C 1018.792 1111.906, 1019.352 1109.600, 1019.769 1101.623 C 1020.562 1086.470, 1016.318 1075.423, 1005.879 1065.466 C 997.031 1057.027, 984.298 1051.894, 972.614 1052.058 C 970.351 1052.089, 965.575 1052.880, 962 1053.814 M 720.420 1059.885 C 710.664 1065.835, 715.114 1081, 726.616 1081 C 730.496 1081, 731.722 1080.478, 734.600 1077.600 C 744.194 1068.006, 732.029 1052.807, 720.420 1059.885 M 433 1200.500 L 433 1247 462 1247 L 491 1247 491 1200.500 L 491 1154 462 1154 L 433 1154 433 1200.500 M 671 1200.500 L 671 1247 700 1247 L 729 1247 729 1200.500 L 729 1154 700 1154 L 671 1154 671 1200.500" stroke="none" fill="#fbfbfb" fill-rule="evenodd" data-index="1" style="opacity: 1;"></path></svg>