<?xml version="1.0" standalone="no"?>
 <!DOCTYPE svg PUBLIC "-//W3C//DTD SVG 1.1//EN" 
 "http://www.w3.org/Graphics/SVG/1.1/DTD/svg11.dtd"> 
<svg
  xmlns:svg="http://www.w3.org/2000/svg"
  xmlns="http://www.w3.org/2000/svg"
  xmlns:xlink="http://www.w3.org/1999/xlink"
  version="1.1"
  width="297.0022mm" height="210.0072mm" viewBox="0.0000 0.0000 297.0022 210.0072">
<title>SVG Image created as circuit_board-F_Cu.svg date 2025/01/08 16:49:03 </title>
  <desc>Image generated by PCBNEW </desc>
<g style="fill:#000000; fill-opacity:1.0000;stroke:#000000; stroke-opacity:1.0000;
stroke-linecap:round; stroke-linejoin:round;"
 transform="translate(0 0) scale(1 1)">
<path style="fill:#C83434; fill-opacity:1.0000; 
stroke:#C83434; stroke-width:0.0100; stroke-opacity:1; 
stroke-linecap:round; stroke-linejoin:round;fill-rule:evenodd;"
d="M 175.4560,65.5510
175.4820,65.5530
175.5080,65.5560
175.5340,65.5610
175.5590,65.5670
175.5850,65.5740
175.6090,65.5830
175.6330,65.5930
175.6570,65.6040
175.6800,65.6170
175.7020,65.6310
175.7240,65.6450
175.7450,65.6610
175.7650,65.6780
175.7840,65.6960
175.8020,65.7150
175.8190,65.7350
175.8350,65.7560
175.8490,65.7780
175.8630,65.8000
175.8760,65.8230
175.8870,65.8470
175.8970,65.8710
175.9060,65.8950
175.9130,65.9210
175.9190,65.9460
175.9240,65.9720
175.9270,65.9980
175.9290,66.0240
175.9300,66.0500
175.9300,66.4500
175.9300,66.8500
175.9290,66.8760
175.9270,66.9020
175.9240,66.9280
175.9190,66.9540
175.9130,66.9790
175.9060,67.0050
175.8970,67.0290
175.8870,67.0530
175.8760,67.0770
175.8630,67.1000
175.8490,67.1220
175.8350,67.1440
175.8190,67.1650
175.8020,67.1850
175.7840,67.2040
175.7650,67.2220
175.7450,67.2390
175.7240,67.2550
175.7020,67.2690
175.6800,67.2830
175.6570,67.2960
175.6330,67.3070
175.6090,67.3170
175.5850,67.3260
175.5590,67.3330
175.5340,67.3390
175.5080,67.3440
175.4820,67.3470
175.4560,67.3490
175.4300,67.3500
175.4040,67.3490
175.3780,67.3470
175.3520,67.3440
175.3260,67.3390
175.3010,67.3330
175.2750,67.3260
175.2510,67.3170
175.2270,67.3070
175.2030,67.2960
175.1800,67.2830
175.1580,67.2690
175.1360,67.2550
175.1150,67.2390
175.0950,67.2220
175.0760,67.2040
175.0580,67.1850
175.0410,67.1650
175.0250,67.1440
175.0110,67.1220
174.9970,67.1000
174.9840,67.0770
174.9730,67.0530
174.9630,67.0290
174.9540,67.0050
174.9470,66.9790
174.9410,66.9540
174.9360,66.9280
174.9330,66.9020
174.9310,66.8760
174.9300,66.8500
174.9300,66.4500
174.9300,66.0500
174.9310,66.0240
174.9330,65.9980
174.9360,65.9720
174.9410,65.9460
174.9470,65.9210
174.9540,65.8950
174.9630,65.8710
174.9730,65.8470
174.9840,65.8230
174.9970,65.8000
175.0110,65.7780
175.0250,65.7560
175.0410,65.7350
175.0580,65.7150
175.0760,65.6960
175.0950,65.6780
175.1150,65.6610
175.1360,65.6450
175.1580,65.6310
175.1800,65.6170
175.2030,65.6040
175.2270,65.5930
175.2510,65.5830
175.2750,65.5740
175.3010,65.5670
175.3260,65.5610
175.3520,65.5560
175.3780,65.5530
175.4040,65.5510
175.4300,65.5500
Z" /> 
<path style="fill:#C83434; fill-opacity:1.0000; 
stroke:#C83434; stroke-width:0.0100; stroke-opacity:1; 
stroke-linecap:round; stroke-linejoin:round;fill-rule:evenodd;"
d="M 184.0960,65.5510
184.1220,65.5530
184.1480,65.5560
184.1740,65.5610
184.1990,65.5670
184.2250,65.5740
184.2490,65.5830
184.2730,65.5930
184.2970,65.6040
184.3200,65.6170
184.3420,65.6310
184.3640,65.6450
184.3850,65.6610
184.4050,65.6780
184.4240,65.6960
184.4420,65.7150
184.4590,65.7350
184.4750,65.7560
184.4890,65.7780
184.5030,65.8000
184.5160,65.8230
184.5270,65.8470
184.5370,65.8710
184.5460,65.8950
184.5530,65.9210
184.5590,65.9460
184.5640,65.9720
184.5670,65.9980
184.5690,66.0240
184.5700,66.0500
184.5700,66.4500
184.5700,66.8500
184.5690,66.8760
184.5670,66.9020
184.5640,66.9280
184.5590,66.9540
184.5530,66.9790
184.5460,67.0050
184.5370,67.0290
184.5270,67.0530
184.5160,67.0770
184.5030,67.1000
184.4890,67.1220
184.4750,67.1440
184.4590,67.1650
184.4420,67.1850
184.4240,67.2040
184.4050,67.2220
184.3850,67.2390
184.3640,67.2550
184.3420,67.2690
184.3200,67.2830
184.2970,67.2960
184.2730,67.3070
184.2490,67.3170
184.2250,67.3260
184.1990,67.3330
184.1740,67.3390
184.1480,67.3440
184.1220,67.3470
184.0960,67.3490
184.0700,67.3500
184.0440,67.3490
184.0180,67.3470
183.9920,67.3440
183.9660,67.3390
183.9410,67.3330
183.9150,67.3260
183.8910,67.3170
183.8670,67.3070
183.8430,67.2960
183.8200,67.2830
183.7980,67.2690
183.7760,67.2550
183.7550,67.2390
183.7350,67.2220
183.7160,67.2040
183.6980,67.1850
183.6810,67.1650
183.6650,67.1440
183.6510,67.1220
183.6370,67.1000
183.6240,67.0770
183.6130,67.0530
183.6030,67.0290
183.5940,67.0050
183.5870,66.9790
183.5810,66.9540
183.5760,66.9280
183.5730,66.9020
183.5710,66.8760
183.5700,66.8500
183.5700,66.4500
183.5700,66.0500
183.5710,66.0240
183.5730,65.9980
183.5760,65.9720
183.5810,65.9460
183.5870,65.9210
183.5940,65.8950
183.6030,65.8710
183.6130,65.8470
183.6240,65.8230
183.6370,65.8000
183.6510,65.7780
183.6650,65.7560
183.6810,65.7350
183.6980,65.7150
183.7160,65.6960
183.7350,65.6780
183.7550,65.6610
183.7760,65.6450
183.7980,65.6310
183.8200,65.6170
183.8430,65.6040
183.8670,65.5930
183.8910,65.5830
183.9150,65.5740
183.9410,65.5670
183.9660,65.5610
183.9920,65.5560
184.0180,65.5530
184.0440,65.5510
184.0700,65.5500
Z" /> 
<path style="fill:#C83434; fill-opacity:1.0000; stroke:none;fill-rule:evenodd;"
d="M 186.3000,76.5500
186.2924,76.5883
186.2707,76.6207
186.2383,76.6424
186.2000,76.6500
185.9400,76.6500
185.9017,76.6424
185.8693,76.6207
185.8476,76.5883
185.8400,76.5500
185.8400,76.3500
185.8476,76.3117
185.8693,76.2793
185.9017,76.2576
185.9400,76.2500
186.2000,76.2500
186.2383,76.2576
186.2707,76.2793
186.2924,76.3117
186.3000,76.3500
Z" /> 
<path style="fill:#C83434; fill-opacity:1.0000; stroke:none;fill-rule:evenodd;"
d="M 185.6600,76.5500
185.6524,76.5883
185.6307,76.6207
185.5983,76.6424
185.5600,76.6500
185.3000,76.6500
185.2617,76.6424
185.2293,76.6207
185.2076,76.5883
185.2000,76.5500
185.2000,76.3500
185.2076,76.3117
185.2293,76.2793
185.2617,76.2576
185.3000,76.2500
185.5600,76.2500
185.5983,76.2576
185.6307,76.2793
185.6524,76.3117
185.6600,76.3500
Z" /> 
<path style="fill:#C83434; fill-opacity:1.0000; stroke:none;fill-rule:evenodd;"
d="M 178.3500,81.9000
178.3883,81.9076
178.4207,81.9293
178.4424,81.9617
178.4500,82.0000
178.4500,82.2600
178.4424,82.2983
178.4207,82.3307
178.3883,82.3524
178.3500,82.3600
178.1500,82.3600
178.1117,82.3524
178.0793,82.3307
178.0576,82.2983
178.0500,82.2600
178.0500,82.0000
178.0576,81.9617
178.0793,81.9293
178.1117,81.9076
178.1500,81.9000
Z" /> 
<path style="fill:#C83434; fill-opacity:1.0000; stroke:none;fill-rule:evenodd;"
d="M 178.3500,82.5400
178.3883,82.5476
178.4207,82.5693
178.4424,82.6017
178.4500,82.6400
178.4500,82.9000
178.4424,82.9383
178.4207,82.9707
178.3883,82.9924
178.3500,83.0000
178.1500,83.0000
178.1117,82.9924
178.0793,82.9707
178.0576,82.9383
178.0500,82.9000
178.0500,82.6400
178.0576,82.6017
178.0793,82.5693
178.1117,82.5476
178.1500,82.5400
Z" /> 
<path style="fill:#C83434; fill-opacity:1.0000; stroke:none;fill-rule:evenodd;"
d="M 185.1817,79.8061
185.1893,79.7678
185.2110,79.7353
185.2435,79.7137
185.2817,79.7061
185.5417,79.7061
185.5800,79.7137
185.6124,79.7353
185.6341,79.7678
185.6417,79.8061
185.6417,80.0061
185.6341,80.0443
185.6124,80.0768
185.5800,80.0984
185.5417,80.1061
185.2817,80.1061
185.2435,80.0984
185.2110,80.0768
185.1893,80.0443
185.1817,80.0061
Z" /> 
<path style="fill:#C83434; fill-opacity:1.0000; stroke:none;fill-rule:evenodd;"
d="M 185.8217,79.8061
185.8293,79.7678
185.8510,79.7353
185.8835,79.7137
185.9217,79.7061
186.1817,79.7061
186.2200,79.7137
186.2524,79.7353
186.2741,79.7678
186.2817,79.8061
186.2817,80.0061
186.2741,80.0443
186.2524,80.0768
186.2200,80.0984
186.1817,80.1061
185.9217,80.1061
185.8835,80.0984
185.8510,80.0768
185.8293,80.0443
185.8217,80.0061
Z" /> 
<path style="fill:#C83434; fill-opacity:1.0000; stroke:none;fill-rule:evenodd;"
d="M 174.3327,80.3052
174.3251,80.3435
174.3034,80.3759
174.2710,80.3976
174.2327,80.4052
173.9727,80.4052
173.9344,80.3976
173.9020,80.3759
173.8803,80.3435
173.8727,80.3052
173.8727,80.1052
173.8803,80.0669
173.9020,80.0345
173.9344,80.0128
173.9727,80.0052
174.2327,80.0052
174.2710,80.0128
174.3034,80.0345
174.3251,80.0669
174.3327,80.1052
Z" /> 
<path style="fill:#C83434; fill-opacity:1.0000; stroke:none;fill-rule:evenodd;"
d="M 173.6927,80.3052
173.6851,80.3435
173.6634,80.3759
173.6310,80.3976
173.5927,80.4052
173.3327,80.4052
173.2944,80.3976
173.2620,80.3759
173.2403,80.3435
173.2327,80.3052
173.2327,80.1052
173.2403,80.0669
173.2620,80.0345
173.2944,80.0128
173.3327,80.0052
173.5927,80.0052
173.6310,80.0128
173.6634,80.0345
173.6851,80.0669
173.6927,80.1052
Z" /> 
<path style="fill:#C83434; fill-opacity:1.0000; stroke:none;fill-rule:evenodd;"
d="M 183.1500,75.8200
183.1117,75.8124
183.0793,75.7907
183.0576,75.7583
183.0500,75.7200
183.0500,75.4600
183.0576,75.4217
183.0793,75.3893
183.1117,75.3676
183.1500,75.3600
183.3500,75.3600
183.3883,75.3676
183.4207,75.3893
183.4424,75.4217
183.4500,75.4600
183.4500,75.7200
183.4424,75.7583
183.4207,75.7907
183.3883,75.8124
183.3500,75.8200
Z" /> 
<path style="fill:#C83434; fill-opacity:1.0000; stroke:none;fill-rule:evenodd;"
d="M 183.1500,75.1800
183.1117,75.1724
183.0793,75.1507
183.0576,75.1183
183.0500,75.0800
183.0500,74.8200
183.0576,74.7817
183.0793,74.7493
183.1117,74.7276
183.1500,74.7200
183.3500,74.7200
183.3883,74.7276
183.4207,74.7493
183.4424,74.7817
183.4500,74.8200
183.4500,75.0800
183.4424,75.1183
183.4207,75.1507
183.3883,75.1724
183.3500,75.1800
Z" /> 
<path style="fill:#C83434; fill-opacity:1.0000; stroke:none;fill-rule:evenodd;"
d="M 180.8000,86.5500
180.7924,86.5883
180.7707,86.6207
180.7383,86.6424
180.7000,86.6500
180.4400,86.6500
180.4017,86.6424
180.3693,86.6207
180.3476,86.5883
180.3400,86.5500
180.3400,86.3500
180.3476,86.3117
180.3693,86.2793
180.4017,86.2576
180.4400,86.2500
180.7000,86.2500
180.7383,86.2576
180.7707,86.2793
180.7924,86.3117
180.8000,86.3500
Z" /> 
<path style="fill:#C83434; fill-opacity:1.0000; stroke:none;fill-rule:evenodd;"
d="M 180.1600,86.5500
180.1524,86.5883
180.1307,86.6207
180.0983,86.6424
180.0600,86.6500
179.8000,86.6500
179.7617,86.6424
179.7293,86.6207
179.7076,86.5883
179.7000,86.5500
179.7000,86.3500
179.7076,86.3117
179.7293,86.2793
179.7617,86.2576
179.8000,86.2500
180.0600,86.2500
180.0983,86.2576
180.1307,86.2793
180.1524,86.3117
180.1600,86.3500
Z" /> 
<path style="fill:#C83434; fill-opacity:1.0000; stroke:none;fill-rule:evenodd;"
d="M 185.0862,68.8500
185.0938,68.8117
185.1155,68.7793
185.1479,68.7576
185.1862,68.7500
185.4462,68.7500
185.4845,68.7576
185.5169,68.7793
185.5386,68.8117
185.5462,68.8500
185.5462,69.0500
185.5386,69.0883
185.5169,69.1207
185.4845,69.1424
185.4462,69.1500
185.1862,69.1500
185.1479,69.1424
185.1155,69.1207
185.0938,69.0883
185.0862,69.0500
Z" /> 
<path style="fill:#C83434; fill-opacity:1.0000; stroke:none;fill-rule:evenodd;"
d="M 185.7262,68.8500
185.7338,68.8117
185.7555,68.7793
185.7879,68.7576
185.8262,68.7500
186.0862,68.7500
186.1245,68.7576
186.1569,68.7793
186.1786,68.8117
186.1862,68.8500
186.1862,69.0500
186.1786,69.0883
186.1569,69.1207
186.1245,69.1424
186.0862,69.1500
185.8262,69.1500
185.7879,69.1424
185.7555,69.1207
185.7338,69.0883
185.7262,69.0500
Z" /> 
<path style="fill:#C83434; fill-opacity:1.0000; stroke:none;fill-rule:evenodd;"
d="M 180.7500,72.1500
180.7652,72.0735
180.8086,72.0086
180.8735,71.9652
180.9500,71.9500
181.3500,71.9500
181.4265,71.9652
181.4914,72.0086
181.5348,72.0735
181.5500,72.1500
181.5500,73.7500
181.5348,73.8265
181.4914,73.8914
181.4265,73.9348
181.3500,73.9500
180.9500,73.9500
180.8735,73.9348
180.8086,73.8914
180.7652,73.8265
180.7500,73.7500
Z" /> 
<path style="fill:#C83434; fill-opacity:1.0000; stroke:none;fill-rule:evenodd;"
d="M 184.9500,72.1500
184.9652,72.0735
185.0086,72.0086
185.0735,71.9652
185.1500,71.9500
185.5500,71.9500
185.6265,71.9652
185.6914,72.0086
185.7348,72.0735
185.7500,72.1500
185.7500,73.7500
185.7348,73.8265
185.6914,73.8914
185.6265,73.9348
185.5500,73.9500
185.1500,73.9500
185.0735,73.9348
185.0086,73.8914
184.9652,73.8265
184.9500,73.7500
Z" /> 
<path style="fill:#C83434; fill-opacity:1.0000; stroke:none;fill-rule:evenodd;"
d="M 185.4844,82.5223
185.5227,82.5299
185.5551,82.5516
185.5768,82.5840
185.5844,82.6223
185.5844,82.8823
185.5768,82.9206
185.5551,82.9530
185.5227,82.9747
185.4844,82.9823
185.2844,82.9823
185.2461,82.9747
185.2137,82.9530
185.1920,82.9206
185.1844,82.8823
185.1844,82.6223
185.1920,82.5840
185.2137,82.5516
185.2461,82.5299
185.2844,82.5223
Z" /> 
<path style="fill:#C83434; fill-opacity:1.0000; stroke:none;fill-rule:evenodd;"
d="M 185.4844,83.1623
185.5227,83.1699
185.5551,83.1916
185.5768,83.2240
185.5844,83.2623
185.5844,83.5223
185.5768,83.5606
185.5551,83.5930
185.5227,83.6147
185.4844,83.6223
185.2844,83.6223
185.2461,83.6147
185.2137,83.5930
185.1920,83.5606
185.1844,83.5223
185.1844,83.2623
185.1920,83.2240
185.2137,83.1916
185.2461,83.1699
185.2844,83.1623
Z" /> 
<path style="fill:#C83434; fill-opacity:1.0000; stroke:none;fill-rule:evenodd;"
d="M 178.7214,74.4000
178.7597,74.4076
178.7921,74.4293
178.8138,74.4617
178.8214,74.5000
178.8214,74.7600
178.8138,74.7983
178.7921,74.8307
178.7597,74.8524
178.7214,74.8600
178.5214,74.8600
178.4831,74.8524
178.4507,74.8307
178.4290,74.7983
178.4214,74.7600
178.4214,74.5000
178.4290,74.4617
178.4507,74.4293
178.4831,74.4076
178.5214,74.4000
Z" /> 
<path style="fill:#C83434; fill-opacity:1.0000; stroke:none;fill-rule:evenodd;"
d="M 178.7214,75.0400
178.7597,75.0476
178.7921,75.0693
178.8138,75.1017
178.8214,75.1400
178.8214,75.4000
178.8138,75.4383
178.7921,75.4707
178.7597,75.4924
178.7214,75.5000
178.5214,75.5000
178.4831,75.4924
178.4507,75.4707
178.4290,75.4383
178.4214,75.4000
178.4214,75.1400
178.4290,75.1017
178.4507,75.0693
178.4831,75.0476
178.5214,75.0400
Z" /> 
<path style="fill:#C83434; fill-opacity:1.0000; stroke:none;fill-rule:evenodd;"
d="M 179.6500,75.0000
179.6117,74.9924
179.5793,74.9707
179.5576,74.9383
179.5500,74.9000
179.5500,74.6400
179.5576,74.6017
179.5793,74.5693
179.6117,74.5476
179.6500,74.5400
179.8500,74.5400
179.8883,74.5476
179.9207,74.5693
179.9424,74.6017
179.9500,74.6400
179.9500,74.9000
179.9424,74.9383
179.9207,74.9707
179.8883,74.9924
179.8500,75.0000
Z" /> 
<path style="fill:#C83434; fill-opacity:1.0000; stroke:none;fill-rule:evenodd;"
d="M 179.6500,74.3600
179.6117,74.3524
179.5793,74.3307
179.5576,74.2983
179.5500,74.2600
179.5500,74.0000
179.5576,73.9617
179.5793,73.9293
179.6117,73.9076
179.6500,73.9000
179.8500,73.9000
179.8883,73.9076
179.9207,73.9293
179.9424,73.9617
179.9500,74.0000
179.9500,74.2600
179.9424,74.2983
179.9207,74.3307
179.8883,74.3524
179.8500,74.3600
Z" /> 
</g>
<g style="fill:#C83434; fill-opacity:1.0000; stroke:none;">
<circle cx="171.7577" cy="66.2034" r="0.8500" /> 
</g>
<g style="fill:#C83434; fill-opacity:1.0000; stroke:none;">
<circle cx="171.7577" cy="68.7434" r="0.8500" /> 
<circle cx="171.7577" cy="71.2834" r="0.8500" /> 
<circle cx="171.7577" cy="73.8234" r="0.8500" /> 
<circle cx="171.7577" cy="76.3634" r="0.8500" /> 
<circle cx="171.7577" cy="78.9034" r="0.8500" /> 
<circle cx="171.7577" cy="81.4434" r="0.8500" /> 
<circle cx="171.7577" cy="83.9834" r="0.8500" /> 
<path style="fill:#C83434; fill-opacity:1.0000; stroke:none;fill-rule:evenodd;"
d="M 175.2000,79.3500
175.2076,79.3117
175.2293,79.2793
175.2617,79.2576
175.3000,79.2500
175.5600,79.2500
175.5983,79.2576
175.6307,79.2793
175.6524,79.3117
175.6600,79.3500
175.6600,79.5500
175.6524,79.5883
175.6307,79.6207
175.5983,79.6424
175.5600,79.6500
175.3000,79.6500
175.2617,79.6424
175.2293,79.6207
175.2076,79.5883
175.2000,79.5500
Z" /> 
<path style="fill:#C83434; fill-opacity:1.0000; stroke:none;fill-rule:evenodd;"
d="M 175.8400,79.3500
175.8476,79.3117
175.8693,79.2793
175.9017,79.2576
175.9400,79.2500
176.2000,79.2500
176.2383,79.2576
176.2707,79.2793
176.2924,79.3117
176.3000,79.3500
176.3000,79.5500
176.2924,79.5883
176.2707,79.6207
176.2383,79.6424
176.2000,79.6500
175.9400,79.6500
175.9017,79.6424
175.8693,79.6207
175.8476,79.5883
175.8400,79.5500
Z" /> 
<path style="fill:#C83434; fill-opacity:1.0000; stroke:none;fill-rule:evenodd;"
d="M 174.2500,72.1500
174.2652,72.0735
174.3086,72.0086
174.3735,71.9652
174.4500,71.9500
174.8500,71.9500
174.9265,71.9652
174.9914,72.0086
175.0348,72.0735
175.0500,72.1500
175.0500,73.7500
175.0348,73.8265
174.9914,73.8914
174.9265,73.9348
174.8500,73.9500
174.4500,73.9500
174.3735,73.9348
174.3086,73.8914
174.2652,73.8265
174.2500,73.7500
Z" /> 
<path style="fill:#C83434; fill-opacity:1.0000; stroke:none;fill-rule:evenodd;"
d="M 178.4500,72.1500
178.4652,72.0735
178.5086,72.0086
178.5735,71.9652
178.6500,71.9500
179.0500,71.9500
179.1265,71.9652
179.1914,72.0086
179.2348,72.0735
179.2500,72.1500
179.2500,73.7500
179.2348,73.8265
179.1914,73.8914
179.1265,73.9348
179.0500,73.9500
178.6500,73.9500
178.5735,73.9348
178.5086,73.8914
178.4652,73.8265
178.4500,73.7500
Z" /> 
<path style="fill:#C83434; fill-opacity:1.0000; stroke:none;fill-rule:evenodd;"
d="M 181.7000,84.3500
181.7076,84.3117
181.7293,84.2793
181.7617,84.2576
181.8000,84.2500
182.0600,84.2500
182.0983,84.2576
182.1307,84.2793
182.1524,84.3117
182.1600,84.3500
182.1600,84.5500
182.1524,84.5883
182.1307,84.6207
182.0983,84.6424
182.0600,84.6500
181.8000,84.6500
181.7617,84.6424
181.7293,84.6207
181.7076,84.5883
181.7000,84.5500
Z" /> 
<path style="fill:#C83434; fill-opacity:1.0000; stroke:none;fill-rule:evenodd;"
d="M 182.3400,84.3500
182.3476,84.3117
182.3693,84.2793
182.4017,84.2576
182.4400,84.2500
182.7000,84.2500
182.7383,84.2576
182.7707,84.2793
182.7924,84.3117
182.8000,84.3500
182.8000,84.5500
182.7924,84.5883
182.7707,84.6207
182.7383,84.6424
182.7000,84.6500
182.4400,84.6500
182.4017,84.6424
182.3693,84.6207
182.3476,84.5883
182.3400,84.5500
Z" /> 
<path style="fill:#C83434; fill-opacity:1.0000; stroke:none;fill-rule:evenodd;"
d="M 178.2310,75.6614
178.2693,75.6690
178.3017,75.6907
178.3234,75.7231
178.3310,75.7614
178.3310,76.0214
178.3234,76.0597
178.3017,76.0921
178.2693,76.1138
178.2310,76.1214
178.0310,76.1214
177.9927,76.1138
177.9603,76.0921
177.9386,76.0597
177.9310,76.0214
177.9310,75.7614
177.9386,75.7231
177.9603,75.6907
177.9927,75.6690
178.0310,75.6614
Z" /> 
<path style="fill:#C83434; fill-opacity:1.0000; stroke:none;fill-rule:evenodd;"
d="M 178.2310,76.3014
178.2693,76.3090
178.3017,76.3307
178.3234,76.3631
178.3310,76.4014
178.3310,76.6614
178.3234,76.6997
178.3017,76.7321
178.2693,76.7538
178.2310,76.7614
178.0310,76.7614
177.9927,76.7538
177.9603,76.7321
177.9386,76.6997
177.9310,76.6614
177.9310,76.4014
177.9386,76.3631
177.9603,76.3307
177.9927,76.3090
178.0310,76.3014
Z" /> 
<path style="fill:#C83434; fill-opacity:1.0000; stroke:none;fill-rule:evenodd;"
d="M 184.0630,75.5511
184.0706,75.5128
184.0923,75.4804
184.1247,75.4587
184.1630,75.4511
184.4230,75.4511
184.4613,75.4587
184.4937,75.4804
184.5154,75.5128
184.5230,75.5511
184.5230,75.7511
184.5154,75.7894
184.4937,75.8218
184.4613,75.8435
184.4230,75.8511
184.1630,75.8511
184.1247,75.8435
184.0923,75.8218
184.0706,75.7894
184.0630,75.7511
Z" /> 
<path style="fill:#C83434; fill-opacity:1.0000; stroke:none;fill-rule:evenodd;"
d="M 184.7030,75.5511
184.7106,75.5128
184.7323,75.4804
184.7647,75.4587
184.8030,75.4511
185.0630,75.4511
185.1013,75.4587
185.1337,75.4804
185.1554,75.5128
185.1630,75.5511
185.1630,75.7511
185.1554,75.7894
185.1337,75.8218
185.1013,75.8435
185.0630,75.8511
184.8030,75.8511
184.7647,75.8435
184.7323,75.8218
184.7106,75.7894
184.7030,75.7511
Z" /> 
<path style="fill:#C83434; fill-opacity:1.0000; stroke:none;fill-rule:evenodd;"
d="M 184.5544,81.7923
184.6080,81.8029
184.6534,81.8333
184.6837,81.8787
184.6944,81.9323
184.6944,82.2123
184.6837,82.2659
184.6534,82.3113
184.6080,82.3416
184.5544,82.3523
184.2144,82.3523
184.1608,82.3416
184.1154,82.3113
184.0851,82.2659
184.0744,82.2123
184.0744,81.9323
184.0851,81.8787
184.1154,81.8333
184.1608,81.8029
184.2144,81.7923
Z" /> 
<path style="fill:#C83434; fill-opacity:1.0000; stroke:none;fill-rule:evenodd;"
d="M 184.5544,82.7523
184.6080,82.7629
184.6534,82.7933
184.6837,82.8387
184.6944,82.8923
184.6944,83.1723
184.6837,83.2259
184.6534,83.2713
184.6080,83.3016
184.5544,83.3123
184.2144,83.3123
184.1608,83.3016
184.1154,83.2713
184.0851,83.2259
184.0744,83.1723
184.0744,82.8923
184.0851,82.8387
184.1154,82.7933
184.1608,82.7629
184.2144,82.7523
Z" /> 
<path style="fill:#C83434; fill-opacity:1.0000; stroke:none;fill-rule:evenodd;"
d="M 177.3662,82.8950
177.4193,82.9056
177.4644,82.9356
177.4944,82.9807
177.5050,83.0337
177.5050,83.8662
177.4944,83.9193
177.4644,83.9644
177.4193,83.9944
177.3662,84.0050
176.4338,84.0050
176.3807,83.9944
176.3356,83.9644
176.3056,83.9193
176.2950,83.8662
176.2950,83.0337
176.3056,82.9807
176.3356,82.9356
176.3807,82.9056
176.4338,82.8950
Z" /> 
<path style="fill:#C83434; fill-opacity:1.0000; stroke:none;fill-rule:evenodd;"
d="M 175.0662,82.8950
175.1193,82.9056
175.1644,82.9356
175.1944,82.9807
175.2050,83.0337
175.2050,83.8662
175.1944,83.9193
175.1644,83.9644
175.1193,83.9944
175.0662,84.0050
174.1337,84.0050
174.0807,83.9944
174.0356,83.9644
174.0056,83.9193
173.9950,83.8662
173.9950,83.0337
174.0056,82.9807
174.0356,82.9356
174.0807,82.9056
174.1337,82.8950
Z" /> 
<path style="fill:#C83434; fill-opacity:1.0000; stroke:none;fill-rule:evenodd;"
d="M 175.0662,84.5950
175.1193,84.6056
175.1644,84.6356
175.1944,84.6807
175.2050,84.7338
175.2050,85.5662
175.1944,85.6193
175.1644,85.6644
175.1193,85.6944
175.0662,85.7050
174.1337,85.7050
174.0807,85.6944
174.0356,85.6644
174.0056,85.6193
173.9950,85.5662
173.9950,84.7338
174.0056,84.6807
174.0356,84.6356
174.0807,84.6056
174.1337,84.5950
Z" /> 
<path style="fill:#C83434; fill-opacity:1.0000; stroke:none;fill-rule:evenodd;"
d="M 177.3662,84.5950
177.4193,84.6056
177.4644,84.6356
177.4944,84.6807
177.5050,84.7338
177.5050,85.5662
177.4944,85.6193
177.4644,85.6644
177.4193,85.6944
177.3662,85.7050
176.4338,85.7050
176.3807,85.6944
176.3356,85.6644
176.3056,85.6193
176.2950,85.5662
176.2950,84.7338
176.3056,84.6807
176.3356,84.6356
176.3807,84.6056
176.4338,84.5950
Z" /> 
<path style="fill:#C83434; fill-opacity:1.0000; stroke:none;fill-rule:evenodd;"
d="M 173.6327,68.0534
173.5849,68.0439
173.5443,68.0168
173.5172,67.9762
173.5077,67.9284
173.5077,67.6784
173.5172,67.6306
173.5443,67.5900
173.5849,67.5629
173.6327,67.5534
173.8827,67.5534
173.9305,67.5629
173.9711,67.5900
173.9982,67.6306
174.0077,67.6784
174.0077,67.9284
173.9982,67.9762
173.9711,68.0168
173.9305,68.0439
173.8827,68.0534
Z" /> 
<path style="fill:#C83434; fill-opacity:1.0000; stroke:none;fill-rule:evenodd;"
d="M 173.6327,65.8534
173.5849,65.8439
173.5443,65.8168
173.5172,65.7762
173.5077,65.7284
173.5077,65.4784
173.5172,65.4306
173.5443,65.3900
173.5849,65.3629
173.6327,65.3534
173.8827,65.3534
173.9305,65.3629
173.9711,65.3900
173.9982,65.4306
174.0077,65.4784
174.0077,65.7284
173.9982,65.7762
173.9711,65.8168
173.9305,65.8439
173.8827,65.8534
Z" /> 
<path style="fill:#C83434; fill-opacity:1.0000; stroke:none;fill-rule:evenodd;"
d="M 174.4016,68.7756
174.3940,68.8139
174.3723,68.8463
174.3399,68.8680
174.3016,68.8756
174.0416,68.8756
174.0033,68.8680
173.9709,68.8463
173.9492,68.8139
173.9416,68.7756
173.9416,68.5756
173.9492,68.5373
173.9709,68.5049
174.0033,68.4832
174.0416,68.4756
174.3016,68.4756
174.3399,68.4832
174.3723,68.5049
174.3940,68.5373
174.4016,68.5756
Z" /> 
<path style="fill:#C83434; fill-opacity:1.0000; stroke:none;fill-rule:evenodd;"
d="M 173.7616,68.7756
173.7540,68.8139
173.7323,68.8463
173.6999,68.8680
173.6616,68.8756
173.4016,68.8756
173.3633,68.8680
173.3309,68.8463
173.3092,68.8139
173.3016,68.7756
173.3016,68.5756
173.3092,68.5373
173.3309,68.5049
173.3633,68.4832
173.4016,68.4756
173.6616,68.4756
173.6999,68.4832
173.7323,68.5049
173.7540,68.5373
173.7616,68.5756
Z" /> 
<path style="fill:#C83434; fill-opacity:1.0000; stroke:none;fill-rule:evenodd;"
d="M 181.4013,83.5800
181.4396,83.5876
181.4720,83.6093
181.4937,83.6417
181.5013,83.6800
181.5013,83.9400
181.4937,83.9783
181.4720,84.0107
181.4396,84.0324
181.4013,84.0400
181.2013,84.0400
181.1630,84.0324
181.1306,84.0107
181.1089,83.9783
181.1013,83.9400
181.1013,83.6800
181.1089,83.6417
181.1306,83.6093
181.1630,83.5876
181.2013,83.5800
Z" /> 
<path style="fill:#C83434; fill-opacity:1.0000; stroke:none;fill-rule:evenodd;"
d="M 181.4013,84.2200
181.4396,84.2276
181.4720,84.2493
181.4937,84.2817
181.5013,84.3200
181.5013,84.5800
181.4937,84.6183
181.4720,84.6507
181.4396,84.6724
181.4013,84.6800
181.2013,84.6800
181.1630,84.6724
181.1306,84.6507
181.1089,84.6183
181.1013,84.5800
181.1013,84.3200
181.1089,84.2817
181.1306,84.2493
181.1630,84.2276
181.2013,84.2200
Z" /> 
<path style="fill:#C83434; fill-opacity:1.0000; stroke:none;fill-rule:evenodd;"
d="M 177.6875,75.6954
177.7257,75.7030
177.7582,75.7247
177.7798,75.7571
177.7875,75.7954
177.7875,76.0554
177.7798,76.0936
177.7582,76.1261
177.7257,76.1478
177.6875,76.1554
177.4875,76.1554
177.4492,76.1478
177.4168,76.1261
177.3951,76.0936
177.3875,76.0554
177.3875,75.7954
177.3951,75.7571
177.4168,75.7247
177.4492,75.7030
177.4875,75.6954
Z" /> 
<path style="fill:#C83434; fill-opacity:1.0000; stroke:none;fill-rule:evenodd;"
d="M 177.6875,76.3354
177.7257,76.3430
177.7582,76.3647
177.7798,76.3971
177.7875,76.4354
177.7875,76.6954
177.7798,76.7336
177.7582,76.7661
177.7257,76.7878
177.6875,76.7954
177.4875,76.7954
177.4492,76.7878
177.4168,76.7661
177.3951,76.7336
177.3875,76.6954
177.3875,76.4354
177.3951,76.3971
177.4168,76.3647
177.4492,76.3430
177.4875,76.3354
Z" /> 
<path style="fill:#C83434; fill-opacity:1.0000; stroke:none;fill-rule:evenodd;"
d="M 175.3500,75.1500
175.4074,75.1614
175.4561,75.1939
175.4886,75.2426
175.5000,75.3000
175.5000,76.3250
175.4886,76.3824
175.4561,76.4311
175.4074,76.4636
175.3500,76.4750
175.0500,76.4750
174.9926,76.4636
174.9439,76.4311
174.9114,76.3824
174.9000,76.3250
174.9000,75.3000
174.9114,75.2426
174.9439,75.1939
174.9926,75.1614
175.0500,75.1500
Z" /> 
<path style="fill:#C83434; fill-opacity:1.0000; stroke:none;fill-rule:evenodd;"
d="M 174.4000,75.1500
174.4574,75.1614
174.5061,75.1939
174.5386,75.2426
174.5500,75.3000
174.5500,76.3250
174.5386,76.3824
174.5061,76.4311
174.4574,76.4636
174.4000,76.4750
174.1000,76.4750
174.0426,76.4636
173.9939,76.4311
173.9614,76.3824
173.9500,76.3250
173.9500,75.3000
173.9614,75.2426
173.9939,75.1939
174.0426,75.1614
174.1000,75.1500
Z" /> 
<path style="fill:#C83434; fill-opacity:1.0000; stroke:none;fill-rule:evenodd;"
d="M 173.4500,75.1500
173.5074,75.1614
173.5561,75.1939
173.5886,75.2426
173.6000,75.3000
173.6000,76.3250
173.5886,76.3824
173.5561,76.4311
173.5074,76.4636
173.4500,76.4750
173.1500,76.4750
173.0926,76.4636
173.0439,76.4311
173.0114,76.3824
173.0000,76.3250
173.0000,75.3000
173.0114,75.2426
173.0439,75.1939
173.0926,75.1614
173.1500,75.1500
Z" /> 
<path style="fill:#C83434; fill-opacity:1.0000; stroke:none;fill-rule:evenodd;"
d="M 173.4500,77.4250
173.5074,77.4364
173.5561,77.4689
173.5886,77.5176
173.6000,77.5750
173.6000,78.6000
173.5886,78.6574
173.5561,78.7061
173.5074,78.7386
173.4500,78.7500
173.1500,78.7500
173.0926,78.7386
173.0439,78.7061
173.0114,78.6574
173.0000,78.6000
173.0000,77.5750
173.0114,77.5176
173.0439,77.4689
173.0926,77.4364
173.1500,77.4250
Z" /> 
<path style="fill:#C83434; fill-opacity:1.0000; stroke:none;fill-rule:evenodd;"
d="M 175.3500,77.4250
175.4074,77.4364
175.4561,77.4689
175.4886,77.5176
175.5000,77.5750
175.5000,78.6000
175.4886,78.6574
175.4561,78.7061
175.4074,78.7386
175.3500,78.7500
175.0500,78.7500
174.9926,78.7386
174.9439,78.7061
174.9114,78.6574
174.9000,78.6000
174.9000,77.5750
174.9114,77.5176
174.9439,77.4689
174.9926,77.4364
175.0500,77.4250
Z" /> 
<path style="fill:#C83434; fill-opacity:1.0000; stroke:none;fill-rule:evenodd;"
d="M 185.4046,75.8200
185.3663,75.8124
185.3339,75.7907
185.3122,75.7583
185.3046,75.7200
185.3046,75.4600
185.3122,75.4217
185.3339,75.3893
185.3663,75.3676
185.4046,75.3600
185.6046,75.3600
185.6429,75.3676
185.6753,75.3893
185.6970,75.4217
185.7046,75.4600
185.7046,75.7200
185.6970,75.7583
185.6753,75.7907
185.6429,75.8124
185.6046,75.8200
Z" /> 
<path style="fill:#C83434; fill-opacity:1.0000; stroke:none;fill-rule:evenodd;"
d="M 185.4046,75.1800
185.3663,75.1724
185.3339,75.1507
185.3122,75.1183
185.3046,75.0800
185.3046,74.8200
185.3122,74.7817
185.3339,74.7493
185.3663,74.7276
185.4046,74.7200
185.6046,74.7200
185.6429,74.7276
185.6753,74.7493
185.6970,74.7817
185.7046,74.8200
185.7046,75.0800
185.6970,75.1183
185.6753,75.1507
185.6429,75.1724
185.6046,75.1800
Z" /> 
<path style="fill:#C83434; fill-opacity:1.0000; stroke:none;fill-rule:evenodd;"
d="M 181.7000,83.8500
181.7076,83.8117
181.7293,83.7793
181.7617,83.7576
181.8000,83.7500
182.0600,83.7500
182.0983,83.7576
182.1307,83.7793
182.1524,83.8117
182.1600,83.8500
182.1600,84.0500
182.1524,84.0883
182.1307,84.1207
182.0983,84.1424
182.0600,84.1500
181.8000,84.1500
181.7617,84.1424
181.7293,84.1207
181.7076,84.0883
181.7000,84.0500
Z" /> 
<path style="fill:#C83434; fill-opacity:1.0000; stroke:none;fill-rule:evenodd;"
d="M 182.3400,83.8500
182.3476,83.8117
182.3693,83.7793
182.4017,83.7576
182.4400,83.7500
182.7000,83.7500
182.7383,83.7576
182.7707,83.7793
182.7924,83.8117
182.8000,83.8500
182.8000,84.0500
182.7924,84.0883
182.7707,84.1207
182.7383,84.1424
182.7000,84.1500
182.4400,84.1500
182.4017,84.1424
182.3693,84.1207
182.3476,84.0883
182.3400,84.0500
Z" /> 
<circle cx="187.7577" cy="84.4300" r="0.8500" /> 
</g>
<g style="fill:#C83434; fill-opacity:1.0000; stroke:none;">
<circle cx="187.7577" cy="81.8900" r="0.8500" /> 
<circle cx="187.7577" cy="79.3500" r="0.8500" /> 
<circle cx="187.7577" cy="76.8100" r="0.8500" /> 
<circle cx="187.7577" cy="74.2700" r="0.8500" /> 
<circle cx="187.7577" cy="71.7300" r="0.8500" /> 
<circle cx="187.7577" cy="69.1900" r="0.8500" /> 
<circle cx="187.7577" cy="66.6500" r="0.8500" /> 
<path style="fill:#C83434; fill-opacity:1.0000; stroke:none;fill-rule:evenodd;"
d="M 178.1490,74.4045
178.1873,74.4121
178.2197,74.4338
178.2414,74.4662
178.2490,74.5045
178.2490,74.7645
178.2414,74.8028
178.2197,74.8352
178.1873,74.8569
178.1490,74.8645
177.9490,74.8645
177.9107,74.8569
177.8783,74.8352
177.8566,74.8028
177.8490,74.7645
177.8490,74.5045
177.8566,74.4662
177.8783,74.4338
177.9107,74.4121
177.9490,74.4045
Z" /> 
<path style="fill:#C83434; fill-opacity:1.0000; stroke:none;fill-rule:evenodd;"
d="M 178.1490,75.0445
178.1873,75.0521
178.2197,75.0738
178.2414,75.1062
178.2490,75.1445
178.2490,75.4045
178.2414,75.4428
178.2197,75.4752
178.1873,75.4969
178.1490,75.5045
177.9490,75.5045
177.9107,75.4969
177.8783,75.4752
177.8566,75.4428
177.8490,75.4045
177.8490,75.1445
177.8566,75.1062
177.8783,75.0738
177.9107,75.0521
177.9490,75.0445
Z" /> 
<path style="fill:#C83434; fill-opacity:1.0000; stroke:none;fill-rule:evenodd;"
d="M 183.2500,70.6300
183.2500,71.7800
182.6500,71.7800
182.6500,70.6300
Z" /> 
<path style="fill:#C83434; fill-opacity:1.0000; stroke:none;fill-rule:evenodd;"
d="M 182.4500,70.6300
182.4500,71.7800
181.8500,71.7800
181.8500,70.6300
Z" /> 
<path style="fill:#C83434; fill-opacity:1.0000; stroke:none;fill-rule:evenodd;"
d="M 181.1500,70.6300
181.1500,71.7800
180.8500,71.7800
180.8500,70.6300
Z" /> 
<path style="fill:#C83434; fill-opacity:1.0000; stroke:none;fill-rule:evenodd;"
d="M 180.1500,70.6300
180.1500,71.7800
179.8500,71.7800
179.8500,70.6300
Z" /> 
<path style="fill:#C83434; fill-opacity:1.0000; stroke:none;fill-rule:evenodd;"
d="M 179.6500,70.6300
179.6500,71.7800
179.3500,71.7800
179.3500,70.6300
Z" /> 
<path style="fill:#C83434; fill-opacity:1.0000; stroke:none;fill-rule:evenodd;"
d="M 178.6500,70.6300
178.6500,71.7800
178.3500,71.7800
178.3500,70.6300
Z" /> 
<path style="fill:#C83434; fill-opacity:1.0000; stroke:none;fill-rule:evenodd;"
d="M 176.8500,70.6300
176.8500,71.7800
176.2500,71.7800
176.2500,70.6300
Z" /> 
<path style="fill:#C83434; fill-opacity:1.0000; stroke:none;fill-rule:evenodd;"
d="M 177.6500,70.6300
177.6500,71.7800
177.0500,71.7800
177.0500,70.6300
Z" /> 
<path style="fill:#C83434; fill-opacity:1.0000; stroke:none;fill-rule:evenodd;"
d="M 178.1500,70.6300
178.1500,71.7800
177.8500,71.7800
177.8500,70.6300
Z" /> 
<path style="fill:#C83434; fill-opacity:1.0000; stroke:none;fill-rule:evenodd;"
d="M 179.1500,70.6300
179.1500,71.7800
178.8500,71.7800
178.8500,70.6300
Z" /> 
<path style="fill:#C83434; fill-opacity:1.0000; stroke:none;fill-rule:evenodd;"
d="M 180.6500,70.6300
180.6500,71.7800
180.3500,71.7800
180.3500,70.6300
Z" /> 
<path style="fill:#C83434; fill-opacity:1.0000; stroke:none;fill-rule:evenodd;"
d="M 181.6500,70.6300
181.6500,71.7800
181.3500,71.7800
181.3500,70.6300
Z" /> 
</g>
<g style="fill:none; 
stroke:#C83434; stroke-width:1.0000; stroke-opacity:1; 
stroke-linecap:round; stroke-linejoin:round;">
<path d="M184.0700 71.1800
L184.0700 70.0800
" />
<path d="M175.4300 71.1800
L175.4300 70.0800
" />
</g>
<g style="fill:#C83434; fill-opacity:1.0000; stroke:none;">
<circle cx="184.0700" cy="66.4500" r="0.5000" /> 
</g>
<g style="fill:#C83434; fill-opacity:1.0000; stroke:none;">
<circle cx="175.4300" cy="66.4500" r="0.5000" /> 
<path style="fill:#C83434; fill-opacity:1.0000; stroke:none;fill-rule:evenodd;"
d="M 175.2000,79.8500
175.2076,79.8117
175.2293,79.7793
175.2617,79.7576
175.3000,79.7500
175.5600,79.7500
175.5983,79.7576
175.6307,79.7793
175.6524,79.8117
175.6600,79.8500
175.6600,80.0500
175.6524,80.0883
175.6307,80.1207
175.5983,80.1424
175.5600,80.1500
175.3000,80.1500
175.2617,80.1424
175.2293,80.1207
175.2076,80.0883
175.2000,80.0500
Z" /> 
<path style="fill:#C83434; fill-opacity:1.0000; stroke:none;fill-rule:evenodd;"
d="M 175.8400,79.8500
175.8476,79.8117
175.8693,79.7793
175.9017,79.7576
175.9400,79.7500
176.2000,79.7500
176.2383,79.7576
176.2707,79.7793
176.2924,79.8117
176.3000,79.8500
176.3000,80.0500
176.2924,80.0883
176.2707,80.1207
176.2383,80.1424
176.2000,80.1500
175.9400,80.1500
175.9017,80.1424
175.8693,80.1207
175.8476,80.0883
175.8400,80.0500
Z" /> 
<path style="fill:#C83434; fill-opacity:1.0000; stroke:none;fill-rule:evenodd;"
d="M 173.3044,84.3200
173.2661,84.3124
173.2337,84.2907
173.2120,84.2583
173.2044,84.2200
173.2044,83.9600
173.2120,83.9217
173.2337,83.8893
173.2661,83.8676
173.3044,83.8600
173.5044,83.8600
173.5427,83.8676
173.5751,83.8893
173.5968,83.9217
173.6044,83.9600
173.6044,84.2200
173.5968,84.2583
173.5751,84.2907
173.5427,84.3124
173.5044,84.3200
Z" /> 
<path style="fill:#C83434; fill-opacity:1.0000; stroke:none;fill-rule:evenodd;"
d="M 173.3044,83.6800
173.2661,83.6724
173.2337,83.6507
173.2120,83.6183
173.2044,83.5800
173.2044,83.3200
173.2120,83.2817
173.2337,83.2493
173.2661,83.2276
173.3044,83.2200
173.5044,83.2200
173.5427,83.2276
173.5751,83.2493
173.5968,83.2817
173.6044,83.3200
173.6044,83.5800
173.5968,83.6183
173.5751,83.6507
173.5427,83.6724
173.5044,83.6800
Z" /> 
<path style="fill:#C83434; fill-opacity:1.0000; stroke:none;fill-rule:evenodd;"
d="M 173.7516,70.2879
173.7133,70.2803
173.6809,70.2586
173.6592,70.2262
173.6516,70.1879
173.6516,69.9279
173.6592,69.8896
173.6809,69.8572
173.7133,69.8355
173.7516,69.8279
173.9516,69.8279
173.9899,69.8355
174.0223,69.8572
174.0440,69.8896
174.0516,69.9279
174.0516,70.1879
174.0440,70.2262
174.0223,70.2586
173.9899,70.2803
173.9516,70.2879
Z" /> 
<path style="fill:#C83434; fill-opacity:1.0000; stroke:none;fill-rule:evenodd;"
d="M 173.7516,69.6479
173.7133,69.6403
173.6809,69.6186
173.6592,69.5862
173.6516,69.5479
173.6516,69.2879
173.6592,69.2496
173.6809,69.2172
173.7133,69.1955
173.7516,69.1879
173.9516,69.1879
173.9899,69.1955
174.0223,69.2172
174.0440,69.2496
174.0516,69.2879
174.0516,69.5479
174.0440,69.5862
174.0223,69.6186
173.9899,69.6403
173.9516,69.6479
Z" /> 
<path style="fill:#C83434; fill-opacity:1.0000; stroke:none;fill-rule:evenodd;"
d="M 172.9900,79.2800
173.0007,79.2264
173.0310,79.1810
173.0764,79.1507
173.1300,79.1400
173.4100,79.1400
173.4636,79.1507
173.5090,79.1810
173.5393,79.2264
173.5500,79.2800
173.5500,79.6200
173.5393,79.6736
173.5090,79.7190
173.4636,79.7493
173.4100,79.7600
173.1300,79.7600
173.0764,79.7493
173.0310,79.7190
173.0007,79.6736
172.9900,79.6200
Z" /> 
<path style="fill:#C83434; fill-opacity:1.0000; stroke:none;fill-rule:evenodd;"
d="M 173.9500,79.2800
173.9607,79.2264
173.9910,79.1810
174.0364,79.1507
174.0900,79.1400
174.3700,79.1400
174.4236,79.1507
174.4690,79.1810
174.4993,79.2264
174.5100,79.2800
174.5100,79.6200
174.4993,79.6736
174.4690,79.7190
174.4236,79.7493
174.3700,79.7600
174.0900,79.7600
174.0364,79.7493
173.9910,79.7190
173.9607,79.6736
173.9500,79.6200
Z" /> 
<path style="fill:#C83434; fill-opacity:1.0000; stroke:none;fill-rule:evenodd;"
d="M 185.2844,82.1223
185.2461,82.1147
185.2137,82.0930
185.1920,82.0606
185.1844,82.0223
185.1844,81.7623
185.1920,81.7240
185.2137,81.6916
185.2461,81.6699
185.2844,81.6623
185.4844,81.6623
185.5227,81.6699
185.5551,81.6916
185.5768,81.7240
185.5844,81.7623
185.5844,82.0223
185.5768,82.0606
185.5551,82.0930
185.5227,82.1147
185.4844,82.1223
Z" /> 
<path style="fill:#C83434; fill-opacity:1.0000; stroke:none;fill-rule:evenodd;"
d="M 185.2844,81.4823
185.2461,81.4747
185.2137,81.4530
185.1920,81.4206
185.1844,81.3823
185.1844,81.1223
185.1920,81.0840
185.2137,81.0516
185.2461,81.0299
185.2844,81.0223
185.4844,81.0223
185.5227,81.0299
185.5551,81.0516
185.5768,81.0840
185.5844,81.1223
185.5844,81.3823
185.5768,81.4206
185.5551,81.4530
185.5227,81.4747
185.4844,81.4823
Z" /> 
<path style="fill:#C83434; fill-opacity:1.0000; stroke:none;fill-rule:evenodd;"
d="M 180.9836,82.2469
180.9633,82.2604
180.9394,82.2652
180.9155,82.2604
180.8952,82.2469
180.4179,81.7696
180.4044,81.7493
180.3996,81.7254
180.4044,81.7015
180.4179,81.6812
180.5063,81.5928
180.5266,81.5793
180.5505,81.5745
180.5744,81.5793
180.5947,81.5928
181.0720,82.0701
181.0856,82.0904
181.0903,82.1143
181.0856,82.1382
181.0720,82.1585
Z" /> 
<path style="fill:#C83434; fill-opacity:1.0000; stroke:none;fill-rule:evenodd;"
d="M 181.3372,81.8933
181.3169,81.9069
181.2930,81.9116
181.2691,81.9069
181.2488,81.8933
180.7715,81.4160
180.7579,81.3958
180.7532,81.3718
180.7579,81.3479
180.7715,81.3276
180.8599,81.2393
180.8802,81.2257
180.9041,81.2210
180.9280,81.2257
180.9483,81.2393
181.4256,81.7166
181.4391,81.7368
181.4439,81.7607
181.4391,81.7847
181.4256,81.8049
Z" /> 
<path style="fill:#C83434; fill-opacity:1.0000; stroke:none;fill-rule:evenodd;"
d="M 181.6907,81.5398
181.6705,81.5533
181.6465,81.5581
181.6226,81.5533
181.6023,81.5398
181.1250,81.0625
181.1115,81.0422
181.1067,81.0183
181.1115,80.9944
181.1250,80.9741
181.2134,80.8857
181.2337,80.8722
181.2576,80.8674
181.2815,80.8722
181.3018,80.8857
181.7791,81.3630
181.7927,81.3833
181.7974,81.4072
181.7927,81.4311
181.7791,81.4514
Z" /> 
<path style="fill:#C83434; fill-opacity:1.0000; stroke:none;fill-rule:evenodd;"
d="M 182.0443,81.1862
182.0240,81.1998
182.0001,81.2045
181.9762,81.1998
181.9559,81.1862
181.4786,80.7089
181.4650,80.6887
181.4603,80.6647
181.4650,80.6408
181.4786,80.6205
181.5670,80.5322
181.5873,80.5186
181.6112,80.5138
181.6351,80.5186
181.6554,80.5322
182.1327,81.0094
182.1462,81.0297
182.1510,81.0536
182.1462,81.0776
182.1327,81.0978
Z" /> 
<path style="fill:#C83434; fill-opacity:1.0000; stroke:none;fill-rule:evenodd;"
d="M 182.3978,80.8327
182.3776,80.8462
182.3536,80.8510
182.3297,80.8462
182.3094,80.8327
181.8322,80.3554
181.8186,80.3351
181.8138,80.3112
181.8186,80.2873
181.8322,80.2670
181.9205,80.1786
181.9408,80.1650
181.9647,80.1603
181.9887,80.1650
182.0089,80.1786
182.4862,80.6559
182.4998,80.6762
182.5045,80.7001
182.4998,80.7240
182.4862,80.7443
Z" /> 
<path style="fill:#C83434; fill-opacity:1.0000; stroke:none;fill-rule:evenodd;"
d="M 182.7514,80.4791
182.7311,80.4927
182.7072,80.4974
182.6833,80.4927
182.6630,80.4791
182.1857,80.0018
182.1722,79.9815
182.1674,79.9576
182.1722,79.9337
182.1857,79.9134
182.2741,79.8250
182.2944,79.8115
182.3183,79.8067
182.3422,79.8115
182.3625,79.8250
182.8398,80.3023
182.8533,80.3226
182.8581,80.3465
182.8533,80.3705
182.8398,80.3907
Z" /> 
<path style="fill:#C83434; fill-opacity:1.0000; stroke:none;fill-rule:evenodd;"
d="M 183.1049,80.1256
183.0847,80.1391
183.0607,80.1439
183.0368,80.1391
183.0166,80.1256
182.5393,79.6483
182.5257,79.6280
182.5210,79.6041
182.5257,79.5802
182.5393,79.5599
182.6276,79.4715
182.6479,79.4579
182.6718,79.4532
182.6958,79.4579
182.7160,79.4715
183.1933,79.9488
183.2069,79.9691
183.2116,79.9930
183.2069,80.0169
183.1933,80.0372
Z" /> 
<path style="fill:#C83434; fill-opacity:1.0000; stroke:none;fill-rule:evenodd;"
d="M 183.4585,79.7720
183.4382,79.7856
183.4143,79.7903
183.3904,79.7856
183.3701,79.7720
182.8928,79.2947
182.8793,79.2744
182.8745,79.2505
182.8793,79.2266
182.8928,79.2063
182.9812,79.1179
183.0015,79.1044
183.0254,79.0996
183.0493,79.1044
183.0696,79.1179
183.5469,79.5952
183.5604,79.6155
183.5652,79.6394
183.5604,79.6633
183.5469,79.6836
Z" /> 
<path style="fill:#C83434; fill-opacity:1.0000; stroke:none;fill-rule:evenodd;"
d="M 183.0696,78.7821
183.0493,78.7956
183.0254,78.8004
183.0015,78.7956
182.9812,78.7821
182.8928,78.6937
182.8793,78.6734
182.8745,78.6495
182.8793,78.6256
182.8928,78.6053
183.3701,78.1280
183.3904,78.1144
183.4143,78.1097
183.4382,78.1144
183.4585,78.1280
183.5469,78.2164
183.5604,78.2367
183.5652,78.2606
183.5604,78.2845
183.5469,78.3048
Z" /> 
<path style="fill:#C83434; fill-opacity:1.0000; stroke:none;fill-rule:evenodd;"
d="M 182.7160,78.4285
182.6958,78.4421
182.6718,78.4468
182.6479,78.4421
182.6276,78.4285
182.5393,78.3401
182.5257,78.3198
182.5210,78.2959
182.5257,78.2720
182.5393,78.2517
183.0166,77.7744
183.0368,77.7609
183.0607,77.7561
183.0847,77.7609
183.1049,77.7744
183.1933,77.8628
183.2069,77.8831
183.2116,77.9070
183.2069,77.9309
183.1933,77.9512
Z" /> 
<path style="fill:#C83434; fill-opacity:1.0000; stroke:none;fill-rule:evenodd;"
d="M 182.3625,78.0750
182.3422,78.0885
182.3183,78.0933
182.2944,78.0885
182.2741,78.0750
182.1857,77.9866
182.1722,77.9663
182.1674,77.9424
182.1722,77.9185
182.1857,77.8982
182.6630,77.4209
182.6833,77.4073
182.7072,77.4026
182.7311,77.4073
182.7514,77.4209
182.8398,77.5093
182.8533,77.5295
182.8581,77.5535
182.8533,77.5774
182.8398,77.5977
Z" /> 
<path style="fill:#C83434; fill-opacity:1.0000; stroke:none;fill-rule:evenodd;"
d="M 182.0089,77.7214
181.9887,77.7349
181.9647,77.7397
181.9408,77.7349
181.9205,77.7214
181.8322,77.6330
181.8186,77.6127
181.8138,77.5888
181.8186,77.5649
181.8322,77.5446
182.3094,77.0673
182.3297,77.0538
182.3536,77.0490
182.3776,77.0538
182.3978,77.0673
182.4862,77.1557
182.4998,77.1760
182.5045,77.1999
182.4998,77.2238
182.4862,77.2441
Z" /> 
<path style="fill:#C83434; fill-opacity:1.0000; stroke:none;fill-rule:evenodd;"
d="M 181.6554,77.3678
181.6351,77.3814
181.6112,77.3862
181.5873,77.3814
181.5670,77.3678
181.4786,77.2795
181.4650,77.2592
181.4603,77.2353
181.4650,77.2113
181.4786,77.1911
181.9559,76.7138
181.9762,76.7002
182.0001,76.6955
182.0240,76.7002
182.0443,76.7138
182.1327,76.8022
182.1462,76.8224
182.1510,76.8464
182.1462,76.8703
182.1327,76.8906
Z" /> 
<path style="fill:#C83434; fill-opacity:1.0000; stroke:none;fill-rule:evenodd;"
d="M 181.3018,77.0143
181.2815,77.0278
181.2576,77.0326
181.2337,77.0278
181.2134,77.0143
181.1250,76.9259
181.1115,76.9056
181.1067,76.8817
181.1115,76.8578
181.1250,76.8375
181.6023,76.3602
181.6226,76.3467
181.6465,76.3419
181.6705,76.3467
181.6907,76.3602
181.7791,76.4486
181.7927,76.4689
181.7974,76.4928
181.7927,76.5167
181.7791,76.5370
Z" /> 
<path style="fill:#C83434; fill-opacity:1.0000; stroke:none;fill-rule:evenodd;"
d="M 180.9483,76.6607
180.9280,76.6743
180.9041,76.6790
180.8802,76.6743
180.8599,76.6607
180.7715,76.5724
180.7579,76.5521
180.7532,76.5282
180.7579,76.5042
180.7715,76.4840
181.2488,76.0067
181.2691,75.9931
181.2930,75.9884
181.3169,75.9931
181.3372,76.0067
181.4256,76.0951
181.4391,76.1153
181.4439,76.1393
181.4391,76.1632
181.4256,76.1834
Z" /> 
<path style="fill:#C83434; fill-opacity:1.0000; stroke:none;fill-rule:evenodd;"
d="M 180.5947,76.3072
180.5744,76.3207
180.5505,76.3255
180.5266,76.3207
180.5063,76.3072
180.4179,76.2188
180.4044,76.1985
180.3996,76.1746
180.4044,76.1507
180.4179,76.1304
180.8952,75.6531
180.9155,75.6396
180.9394,75.6348
180.9633,75.6396
180.9836,75.6531
181.0720,75.7415
181.0856,75.7618
181.0903,75.7857
181.0856,75.8096
181.0720,75.8299
Z" /> 
<path style="fill:#C83434; fill-opacity:1.0000; stroke:none;fill-rule:evenodd;"
d="M 179.9937,76.3072
179.9734,76.3207
179.9495,76.3255
179.9256,76.3207
179.9053,76.3072
179.4280,75.8299
179.4144,75.8096
179.4097,75.7857
179.4144,75.7618
179.4280,75.7415
179.5164,75.6531
179.5367,75.6396
179.5606,75.6348
179.5845,75.6396
179.6048,75.6531
180.0821,76.1304
180.0956,76.1507
180.1004,76.1746
180.0956,76.1985
180.0821,76.2188
Z" /> 
<path style="fill:#C83434; fill-opacity:1.0000; stroke:none;fill-rule:evenodd;"
d="M 179.6401,76.6607
179.6198,76.6743
179.5959,76.6790
179.5720,76.6743
179.5517,76.6607
179.0744,76.1834
179.0609,76.1632
179.0561,76.1393
179.0609,76.1153
179.0744,76.0951
179.1628,76.0067
179.1831,75.9931
179.2070,75.9884
179.2309,75.9931
179.2512,76.0067
179.7285,76.4840
179.7421,76.5042
179.7468,76.5282
179.7421,76.5521
179.7285,76.5724
Z" /> 
<path style="fill:#C83434; fill-opacity:1.0000; stroke:none;fill-rule:evenodd;"
d="M 179.2866,77.0143
179.2663,77.0278
179.2424,77.0326
179.2185,77.0278
179.1982,77.0143
178.7209,76.5370
178.7073,76.5167
178.7026,76.4928
178.7073,76.4689
178.7209,76.4486
178.8093,76.3602
178.8295,76.3467
178.8535,76.3419
178.8774,76.3467
178.8977,76.3602
179.3750,76.8375
179.3885,76.8578
179.3933,76.8817
179.3885,76.9056
179.3750,76.9259
Z" /> 
<path style="fill:#C83434; fill-opacity:1.0000; stroke:none;fill-rule:evenodd;"
d="M 178.9330,77.3678
178.9127,77.3814
178.8888,77.3862
178.8649,77.3814
178.8446,77.3678
178.3673,76.8906
178.3538,76.8703
178.3490,76.8464
178.3538,76.8224
178.3673,76.8022
178.4557,76.7138
178.4760,76.7002
178.4999,76.6955
178.5238,76.7002
178.5441,76.7138
179.0214,77.1911
179.0349,77.2113
179.0397,77.2353
179.0349,77.2592
179.0214,77.2795
Z" /> 
<path style="fill:#C83434; fill-opacity:1.0000; stroke:none;fill-rule:evenodd;"
d="M 178.5795,77.7214
178.5592,77.7349
178.5353,77.7397
178.5113,77.7349
178.4911,77.7214
178.0138,77.2441
178.0002,77.2238
177.9955,77.1999
178.0002,77.1760
178.0138,77.1557
178.1022,77.0673
178.1224,77.0538
178.1464,77.0490
178.1703,77.0538
178.1906,77.0673
178.6678,77.5446
178.6814,77.5649
178.6862,77.5888
178.6814,77.6127
178.6678,77.6330
Z" /> 
<path style="fill:#C83434; fill-opacity:1.0000; stroke:none;fill-rule:evenodd;"
d="M 178.2259,78.0750
178.2056,78.0885
178.1817,78.0933
178.1578,78.0885
178.1375,78.0750
177.6602,77.5977
177.6467,77.5774
177.6419,77.5535
177.6467,77.5295
177.6602,77.5093
177.7486,77.4209
177.7689,77.4073
177.7928,77.4026
177.8167,77.4073
177.8370,77.4209
178.3143,77.8982
178.3278,77.9185
178.3326,77.9424
178.3278,77.9663
178.3143,77.9866
Z" /> 
<path style="fill:#C83434; fill-opacity:1.0000; stroke:none;fill-rule:evenodd;"
d="M 177.8724,78.4285
177.8521,78.4421
177.8282,78.4468
177.8042,78.4421
177.7840,78.4285
177.3067,77.9512
177.2931,77.9309
177.2884,77.9070
177.2931,77.8831
177.3067,77.8628
177.3951,77.7744
177.4153,77.7609
177.4393,77.7561
177.4632,77.7609
177.4834,77.7744
177.9607,78.2517
177.9743,78.2720
177.9790,78.2959
177.9743,78.3198
177.9607,78.3401
Z" /> 
<path style="fill:#C83434; fill-opacity:1.0000; stroke:none;fill-rule:evenodd;"
d="M 177.5188,78.7821
177.4985,78.7956
177.4746,78.8004
177.4507,78.7956
177.4304,78.7821
176.9531,78.3048
176.9396,78.2845
176.9348,78.2606
176.9396,78.2367
176.9531,78.2164
177.0415,78.1280
177.0618,78.1144
177.0857,78.1097
177.1096,78.1144
177.1299,78.1280
177.6072,78.6053
177.6207,78.6256
177.6255,78.6495
177.6207,78.6734
177.6072,78.6937
Z" /> 
<path style="fill:#C83434; fill-opacity:1.0000; stroke:none;fill-rule:evenodd;"
d="M 177.1299,79.7720
177.1096,79.7856
177.0857,79.7903
177.0618,79.7856
177.0415,79.7720
176.9531,79.6836
176.9396,79.6633
176.9348,79.6394
176.9396,79.6155
176.9531,79.5952
177.4304,79.1179
177.4507,79.1044
177.4746,79.0996
177.4985,79.1044
177.5188,79.1179
177.6072,79.2063
177.6207,79.2266
177.6255,79.2505
177.6207,79.2744
177.6072,79.2947
Z" /> 
<path style="fill:#C83434; fill-opacity:1.0000; stroke:none;fill-rule:evenodd;"
d="M 177.4834,80.1256
177.4632,80.1391
177.4393,80.1439
177.4153,80.1391
177.3951,80.1256
177.3067,80.0372
177.2931,80.0169
177.2884,79.9930
177.2931,79.9691
177.3067,79.9488
177.7840,79.4715
177.8042,79.4579
177.8282,79.4532
177.8521,79.4579
177.8724,79.4715
177.9607,79.5599
177.9743,79.5802
177.9790,79.6041
177.9743,79.6280
177.9607,79.6483
Z" /> 
<path style="fill:#C83434; fill-opacity:1.0000; stroke:none;fill-rule:evenodd;"
d="M 177.8370,80.4791
177.8167,80.4927
177.7928,80.4974
177.7689,80.4927
177.7486,80.4791
177.6602,80.3907
177.6467,80.3705
177.6419,80.3465
177.6467,80.3226
177.6602,80.3023
178.1375,79.8250
178.1578,79.8115
178.1817,79.8067
178.2056,79.8115
178.2259,79.8250
178.3143,79.9134
178.3278,79.9337
178.3326,79.9576
178.3278,79.9815
178.3143,80.0018
Z" /> 
<path style="fill:#C83434; fill-opacity:1.0000; stroke:none;fill-rule:evenodd;"
d="M 178.1906,80.8327
178.1703,80.8462
178.1464,80.8510
178.1224,80.8462
178.1022,80.8327
178.0138,80.7443
178.0002,80.7240
177.9955,80.7001
178.0002,80.6762
178.0138,80.6559
178.4911,80.1786
178.5113,80.1650
178.5353,80.1603
178.5592,80.1650
178.5795,80.1786
178.6678,80.2670
178.6814,80.2873
178.6862,80.3112
178.6814,80.3351
178.6678,80.3554
Z" /> 
<path style="fill:#C83434; fill-opacity:1.0000; stroke:none;fill-rule:evenodd;"
d="M 178.5441,81.1862
178.5238,81.1998
178.4999,81.2045
178.4760,81.1998
178.4557,81.1862
178.3673,81.0978
178.3538,81.0776
178.3490,81.0536
178.3538,81.0297
178.3673,81.0094
178.8446,80.5322
178.8649,80.5186
178.8888,80.5138
178.9127,80.5186
178.9330,80.5322
179.0214,80.6205
179.0349,80.6408
179.0397,80.6647
179.0349,80.6887
179.0214,80.7089
Z" /> 
<path style="fill:#C83434; fill-opacity:1.0000; stroke:none;fill-rule:evenodd;"
d="M 178.8977,81.5398
178.8774,81.5533
178.8535,81.5581
178.8295,81.5533
178.8093,81.5398
178.7209,81.4514
178.7073,81.4311
178.7026,81.4072
178.7073,81.3833
178.7209,81.3630
179.1982,80.8857
179.2185,80.8722
179.2424,80.8674
179.2663,80.8722
179.2866,80.8857
179.3750,80.9741
179.3885,80.9944
179.3933,81.0183
179.3885,81.0422
179.3750,81.0625
Z" /> 
<path style="fill:#C83434; fill-opacity:1.0000; stroke:none;fill-rule:evenodd;"
d="M 179.2512,81.8933
179.2309,81.9069
179.2070,81.9116
179.1831,81.9069
179.1628,81.8933
179.0744,81.8049
179.0609,81.7847
179.0561,81.7607
179.0609,81.7368
179.0744,81.7166
179.5517,81.2393
179.5720,81.2257
179.5959,81.2210
179.6198,81.2257
179.6401,81.2393
179.7285,81.3276
179.7421,81.3479
179.7468,81.3718
179.7421,81.3958
179.7285,81.4160
Z" /> 
<path style="fill:#C83434; fill-opacity:1.0000; stroke:none;fill-rule:evenodd;"
d="M 179.6048,82.2469
179.5845,82.2604
179.5606,82.2652
179.5367,82.2604
179.5164,82.2469
179.4280,82.1585
179.4144,82.1382
179.4097,82.1143
179.4144,82.0904
179.4280,82.0701
179.9053,81.5928
179.9256,81.5793
179.9495,81.5745
179.9734,81.5793
179.9937,81.5928
180.0821,81.6812
180.0956,81.7015
180.1004,81.7254
180.0956,81.7493
180.0821,81.7696
Z" /> 
<path style="fill:#C83434; fill-opacity:1.0000; stroke:none;fill-rule:evenodd;"
d="M 182.8663,78.9500
180.2500,81.5663
177.6337,78.9500
180.2500,76.3337
Z" /> 
<path style="fill:#C83434; fill-opacity:1.0000; stroke:none;fill-rule:evenodd;"
d="M 183.6188,75.8200
183.5805,75.8124
183.5481,75.7907
183.5264,75.7583
183.5188,75.7200
183.5188,75.4600
183.5264,75.4217
183.5481,75.3893
183.5805,75.3676
183.6188,75.3600
183.8188,75.3600
183.8571,75.3676
183.8895,75.3893
183.9112,75.4217
183.9188,75.4600
183.9188,75.7200
183.9112,75.7583
183.8895,75.7907
183.8571,75.8124
183.8188,75.8200
Z" /> 
<path style="fill:#C83434; fill-opacity:1.0000; stroke:none;fill-rule:evenodd;"
d="M 183.6188,75.1800
183.5805,75.1724
183.5481,75.1507
183.5264,75.1183
183.5188,75.0800
183.5188,74.8200
183.5264,74.7817
183.5481,74.7493
183.5805,74.7276
183.6188,74.7200
183.8188,74.7200
183.8571,74.7276
183.8895,74.7493
183.9112,74.7817
183.9188,74.8200
183.9188,75.0800
183.9112,75.1183
183.8895,75.1507
183.8571,75.1724
183.8188,75.1800
Z" /> 
<path style="fill:#C83434; fill-opacity:1.0000; stroke:none;fill-rule:evenodd;"
d="M 185.0862,68.3500
185.0938,68.3117
185.1155,68.2793
185.1479,68.2576
185.1862,68.2500
185.4462,68.2500
185.4845,68.2576
185.5169,68.2793
185.5386,68.3117
185.5462,68.3500
185.5462,68.5500
185.5386,68.5883
185.5169,68.6207
185.4845,68.6424
185.4462,68.6500
185.1862,68.6500
185.1479,68.6424
185.1155,68.6207
185.0938,68.5883
185.0862,68.5500
Z" /> 
<path style="fill:#C83434; fill-opacity:1.0000; stroke:none;fill-rule:evenodd;"
d="M 185.7262,68.3500
185.7338,68.3117
185.7555,68.2793
185.7879,68.2576
185.8262,68.2500
186.0862,68.2500
186.1245,68.2576
186.1569,68.2793
186.1786,68.3117
186.1862,68.3500
186.1862,68.5500
186.1786,68.5883
186.1569,68.6207
186.1245,68.6424
186.0862,68.6500
185.8262,68.6500
185.7879,68.6424
185.7555,68.6207
185.7338,68.5883
185.7262,68.5500
Z" /> 
<path style="fill:#C83434; fill-opacity:1.0000; stroke:none;fill-rule:evenodd;"
d="M 180.1500,75.0000
180.1117,74.9924
180.0793,74.9707
180.0576,74.9383
180.0500,74.9000
180.0500,74.6400
180.0576,74.6017
180.0793,74.5693
180.1117,74.5476
180.1500,74.5400
180.3500,74.5400
180.3883,74.5476
180.4207,74.5693
180.4424,74.6017
180.4500,74.6400
180.4500,74.9000
180.4424,74.9383
180.4207,74.9707
180.3883,74.9924
180.3500,75.0000
Z" /> 
<path style="fill:#C83434; fill-opacity:1.0000; stroke:none;fill-rule:evenodd;"
d="M 180.1500,74.3600
180.1117,74.3524
180.0793,74.3307
180.0576,74.2983
180.0500,74.2600
180.0500,74.0000
180.0576,73.9617
180.0793,73.9293
180.1117,73.9076
180.1500,73.9000
180.3500,73.9000
180.3883,73.9076
180.4207,73.9293
180.4424,73.9617
180.4500,74.0000
180.4500,74.2600
180.4424,74.2983
180.4207,74.3307
180.3883,74.3524
180.3500,74.3600
Z" /> 
<path style="fill:#C83434; fill-opacity:1.0000; stroke:none;fill-rule:evenodd;"
d="M 172.9900,74.2800
173.0007,74.2264
173.0310,74.1810
173.0764,74.1507
173.1300,74.1400
173.4100,74.1400
173.4636,74.1507
173.5090,74.1810
173.5393,74.2264
173.5500,74.2800
173.5500,74.6200
173.5393,74.6736
173.5090,74.7190
173.4636,74.7493
173.4100,74.7600
173.1300,74.7600
173.0764,74.7493
173.0310,74.7190
173.0007,74.6736
172.9900,74.6200
Z" /> 
<path style="fill:#C83434; fill-opacity:1.0000; stroke:none;fill-rule:evenodd;"
d="M 173.9500,74.2800
173.9607,74.2264
173.9910,74.1810
174.0364,74.1507
174.0900,74.1400
174.3700,74.1400
174.4236,74.1507
174.4690,74.1810
174.4993,74.2264
174.5100,74.2800
174.5100,74.6200
174.4993,74.6736
174.4690,74.7190
174.4236,74.7493
174.3700,74.7600
174.0900,74.7600
174.0364,74.7493
173.9910,74.7190
173.9607,74.6736
173.9500,74.6200
Z" /> 
</g>
<g style="fill:#ECECEC; fill-opacity:1.0000; stroke:none;">
<circle cx="179.3224" cy="78.0224" r="0.3000" /> 
</g>
<g style="fill:#ECECEC; fill-opacity:1.0000; stroke:none;">
<circle cx="186.0757" cy="80.6523" r="0.3000" /> 
</g>
<g style="fill:#ECECEC; fill-opacity:1.0000; stroke:none;">
<circle cx="175.2500" cy="80.8500" r="0.3000" /> 
</g>
<g style="fill:#ECECEC; fill-opacity:1.0000; stroke:none;">
<circle cx="176.7754" cy="76.9379" r="0.3000" /> 
</g>
<g style="fill:#008484; fill-opacity:1.0000; stroke:none;">
<circle cx="174.3500" cy="78.5375" r="0.1500" /> 
</g>
<g style="fill:#ECECEC; fill-opacity:1.0000; stroke:none;">
<circle cx="182.2500" cy="85.5500" r="0.3000" /> 
</g>
<g style="fill:#ECECEC; fill-opacity:1.0000; stroke:none;">
<circle cx="186.0699" cy="82.1543" r="0.3000" /> 
</g>
<g style="fill:#ECECEC; fill-opacity:1.0000; stroke:none;">
<circle cx="173.2500" cy="69.9500" r="0.3000" /> 
</g>
<g style="fill:#ECECEC; fill-opacity:1.0000; stroke:none;">
<circle cx="173.7500" cy="81.9500" r="0.3000" /> 
</g>
<g style="fill:#ECECEC; fill-opacity:1.0000; stroke:none;">
<circle cx="174.2500" cy="71.4500" r="0.3000" /> 
</g>
<g style="fill:#ECECEC; fill-opacity:1.0000; stroke:none;">
<circle cx="178.2500" cy="85.9500" r="0.3000" /> 
</g>
<g style="fill:#ECECEC; fill-opacity:1.0000; stroke:none;">
<circle cx="184.5592" cy="78.0286" r="0.3000" /> 
</g>
<g style="fill:#ECECEC; fill-opacity:1.0000; stroke:none;">
<circle cx="182.9529" cy="73.5500" r="0.3000" /> 
</g>
<g style="fill:#ECECEC; fill-opacity:1.0000; stroke:none;">
<circle cx="176.6610" cy="78.8450" r="0.3000" /> 
</g>
<g style="fill:#ECECEC; fill-opacity:1.0000; stroke:none;">
<circle cx="181.7500" cy="82.9500" r="0.3000" /> 
</g>
<g style="fill:#ECECEC; fill-opacity:1.0000; stroke:none;">
<circle cx="180.2500" cy="84.4500" r="0.3000" /> 
</g>
<g style="fill:#ECECEC; fill-opacity:1.0000; stroke:none;">
<circle cx="183.4773" cy="81.2227" r="0.3000" /> 
</g>
<g style="fill:#008484; fill-opacity:1.0000; stroke:none;">
<circle cx="184.8919" cy="76.4500" r="0.1500" /> 
</g>
<g style="fill:#ECECEC; fill-opacity:1.0000; stroke:none;">
<circle cx="179.2500" cy="83.4500" r="0.3000" /> 
</g>
<g style="fill:#008484; fill-opacity:1.0000; stroke:none;">
<circle cx="181.9489" cy="76.2445" r="0.1500" /> 
</g>
<g style="fill:#ECECEC; fill-opacity:1.0000; stroke:none;">
<circle cx="178.7500" cy="84.9500" r="0.3000" /> 
</g>
<g style="fill:#ECECEC; fill-opacity:1.0000; stroke:none;">
<circle cx="182.7500" cy="76.4085" r="0.3000" /> 
</g>
<g style="fill:#ECECEC; fill-opacity:1.0000; stroke:none;">
<circle cx="181.5851" cy="75.7058" r="0.3000" /> 
</g>
<g style="fill:#ECECEC; fill-opacity:1.0000; stroke:none;">
<circle cx="184.2700" cy="72.9534" r="0.3000" /> 
</g>
<g style="fill:#ECECEC; fill-opacity:1.0000; stroke:none;">
<circle cx="183.8849" cy="76.5500" r="0.3000" /> 
</g>
<g style="fill:#008484; fill-opacity:1.0000; stroke:none;">
<circle cx="182.3205" cy="73.4000" r="0.3000" /> 
</g>
<g style="fill:#ECECEC; fill-opacity:1.0000; stroke:none;">
<circle cx="180.2579" cy="75.5000" r="0.3000" /> 
</g>
<g style="fill:#ECECEC; fill-opacity:1.0000; stroke:none;">
<circle cx="176.4000" cy="75.5406" r="0.3000" /> 
</g>
<g style="fill:#ECECEC; fill-opacity:1.0000; stroke:none;">
<circle cx="180.5500" cy="69.9500" r="0.3000" /> 
</g>
<g style="fill:#ECECEC; fill-opacity:1.0000; stroke:none;">
<circle cx="177.1101" cy="73.3101" r="0.3000" /> 
</g>
<g style="fill:#ECECEC; fill-opacity:1.0000; stroke:none;">
<circle cx="175.0100" cy="79.3234" r="0.3000" /> 
</g>
<g style="fill:#ECECEC; fill-opacity:1.0000; stroke:none;">
<circle cx="176.0506" cy="80.6695" r="0.3000" /> 
</g>
<g style="fill:#ECECEC; fill-opacity:1.0000; stroke:none;">
<circle cx="179.7500" cy="69.9500" r="0.3000" /> 
</g>
<g style="fill:#ECECEC; fill-opacity:1.0000; stroke:none;">
<circle cx="176.2500" cy="73.1500" r="0.3000" /> 
</g>
<g style="fill:#ECECEC; fill-opacity:1.0000; stroke:none;">
<circle cx="176.4683" cy="77.8037" r="0.3000" /> 
</g>
<g style="fill:#ECECEC; fill-opacity:1.0000; stroke:none;">
<circle cx="183.9282" cy="73.6767" r="0.3000" /> 
</g>
<g style="fill:#ECECEC; fill-opacity:1.0000; stroke:none;">
<circle cx="179.7500" cy="72.9500" r="0.3000" /> 
</g>
<g style="fill:#ECECEC; fill-opacity:1.0000; stroke:none;">
<circle cx="186.2098" cy="79.2064" r="0.3000" /> 
</g>
<g style="fill:#ECECEC; fill-opacity:1.0000; stroke:none;">
<circle cx="185.1282" cy="74.2858" r="0.3000" /> 
</g>
<g style="fill:#ECECEC; fill-opacity:1.0000; stroke:none;">
<circle cx="185.4684" cy="77.6851" r="0.3000" /> 
</g>
<g style="fill:none; 
stroke:#C83434; stroke-width:0.2000; stroke-opacity:1; 
stroke-linecap:round; stroke-linejoin:round;">
<path d="M178.0970 76.5654
L178.1310 76.5314
" />
<path d="M177.7534 76.7106
L177.7544 76.7096
" />
<path d="M174.1027 79.5773
L174.2300 79.4500
" />
<path d="M177.0000 76.7133
L177.0000 75.5250
" />
<path d="M179.0915 74.6300
L179.5915 74.1300
" />
<path d="M185.9562 70.4252
L185.9562 68.9500
" />
<path d="M174.6000 83.4500
L174.6000 82.3996
" />
<path d="M180.2500 73.8500
L181.1500 72.9500
" />
<path d="M177.1985 72.5500
L178.0490 73.4005
" />
<path d="M183.6800 72.5500
L184.2500 71.9800
" />
<path d="M174.7475 80.8500
L174.1027 80.2052
" />
<path d="M176.9000 85.1500
L178.2500 83.8000
" />
<path d="M174.6500 74.0300
L174.2300 74.4500
" />
<path d="M186.1962 69.1900
L185.9562 68.9500
" />
<path d="M174.6500 72.9500
L174.6500 74.0300
" />
<path d="M178.6214 74.6300
L179.0915 74.6300
" />
<path d="M174.2300 79.4500
L174.3500 79.3300
" />
<path d="M181.1500 72.9500
L181.5500 72.5500
" />
<path d="M178.2500 83.8000
L178.2500 82.7700
" />
<path d="M185.3844 83.3923
L185.6923 83.3923
" />
<path d="M178.0535 74.6300
L178.0490 74.6345
" />
<path d="M186.0699 83.0147
L186.0699 82.1543
" />
<path d="M177.1479 76.5654
L176.7754 76.9379
" />
<path d="M174.1504 81.9500
L173.7500 81.9500
" />
<path d="M182.5700 85.1300
L182.2500 85.4500
" />
<path d="M174.3500 79.3300
L174.3500 78.5375
" />
<path d="M177.0000 75.5250
L177.8905 74.6345
" />
<path d="M174.6500 72.9500
L174.6500 71.8500
" />
<path d="M180.2500 74.1300
L180.2500 73.8500
" />
<path d="M173.3579 70.0579
L173.8516 70.0579
" />
<path d="M176.7754 76.9379
L177.0000 76.7133
" />
<path d="M174.2500 74.4700
L174.2300 74.4500
" />
<path d="M182.2500 85.4500
L182.2500 85.5500
" />
<path d="M184.7444 83.3923
L185.3844 83.3923
" />
<path d="M175.0500 72.5500
L177.1985 72.5500
" />
<path d="M178.6214 74.6300
L178.0535 74.6300
" />
<path d="M174.6500 71.8500
L174.2500 71.4500
" />
<path d="M186.0517 80.6283
L186.0757 80.6523
" />
<path d="M174.6000 82.3996
L174.1504 81.9500
" />
<path d="M185.6923 83.3923
L186.0699 83.0147
" />
<path d="M177.5875 76.5654
L178.0970 76.5654
" />
<path d="M187.7577 69.1900
L186.1962 69.1900
" />
<path d="M184.2500 71.9800
L184.4014 71.9800
" />
<path d="M178.0490 74.6345
L178.6169 74.6345
" />
<path d="M177.4500 85.1500
L178.2500 85.9500
" />
<path d="M173.2500 69.9500
L173.3579 70.0579
" />
<path d="M182.5700 83.9500
L182.5700 84.4500
" />
<path d="M175.2500 80.8500
L174.7475 80.8500
" />
<path d="M173.7500 81.9500
L173.4044 82.2956
" />
<path d="M182.5700 84.4500
L182.5700 85.1300
" />
<path d="M174.2300 79.4500
L174.2219 79.4500
" />
<path d="M181.5500 72.5500
L183.6800 72.5500
" />
<path d="M184.4014 71.9800
L185.9562 70.4252
" />
<path d="M178.0490 73.4005
L178.0490 74.6345
" />
<path d="M173.4044 82.2956
L173.4044 83.4500
" />
<path d="M174.2219 79.4500
L174.2203 79.4516
" />
<path d="M178.6169 74.6345
L178.6214 74.6300
" />
<path d="M174.1027 80.2052
L174.1027 79.5773
" />
<path d="M174.2500 75.8125
L174.2500 74.4700
" />
<path d="M177.8905 74.6345
L178.0490 74.6345
" />
<path d="M179.5915 74.1300
L179.7500 74.1300
" />
<path d="M186.0517 79.9061
L186.0517 80.6283
" />
<path d="M177.5875 76.5654
L177.1479 76.5654
" />
<path d="M179.7500 74.1300
L180.2500 74.1300
" />
<path d="M174.6500 72.9500
L175.0500 72.5500
" />
<path d="M185.9562 68.9500
L185.9562 68.4500
" />
<path d="M184.3844 83.0323
L184.7444 83.3923
" />
<path d="M173.8516 69.4179
L173.5316 69.0979
" />
<path d="M173.5316 69.0979
L173.5316 68.6756
" />
<path d="M184.9330 75.4511
L184.9341 75.4500
" />
<path d="M184.9341 75.3205
L185.3046 74.9500
" />
<path d="M185.3046 74.9500
L185.5046 74.9500
" />
<path d="M184.9330 75.6511
L184.9330 75.4511
" />
<path d="M184.9341 75.4500
L184.9341 75.3205
" />
<path d="M180.5700 85.1813
L181.3013 84.4500
" />
<path d="M180.5700 86.4500
L180.5700 85.1813
" />
<path d="M181.3013 84.4500
L181.9300 84.4500
" />
<path d="M182.7500 73.7529
L182.7500 75.2485
" />
<path d="M179.2500 75.4751
L179.2500 75.2700
" />
<path d="M186.0700 76.4500
L186.0700 76.6500
" />
<path d="M178.6169 75.2745
L178.6214 75.2700
" />
<path d="M178.6214 75.2700
L179.2500 75.2700
" />
<path d="M181.7329 74.7700
L180.2500 74.7700
" />
<path d="M186.2500 74.4500
L186.2500 73.2377
" />
<path d="M176.6610 78.8450
L175.9035 78.0875
" />
<path d="M179.7500 74.7700
L180.2500 74.7700
" />
<path d="M173.4627 80.2052
L173.4627 79.6427
" />
<path d="M183.7188 75.5900
L183.2500 75.5900
" />
<path d="M182.8522 77.4085
L182.5127 77.7479
" />
<path d="M181.2324 81.4324
L181.4521 81.2127
" />
<path d="M186.0700 76.4500
L186.0700 75.6469
" />
<path d="M173.2700 79.4500
L173.2700 79.0500
" />
<path d="M186.0500 75.6269
L186.0500 74.6500
" />
<path d="M185.6349 77.0851
L185.2199 77.0851
" />
<path d="M182.5127 77.7479
L182.8107 77.4500
" />
<path d="M183.0915 75.5900
L183.2500 75.5900
" />
<path d="M184.5592 77.7458
L184.5592 78.0286
" />
<path d="M186.2500 73.2377
L187.7577 71.7300
" />
<path d="M173.9000 78.7906
L173.9000 78.0875
" />
<path d="M179.7550 81.9198
L179.4015 81.5663
" />
<path d="M185.5615 75.6469
L185.5046 75.5900
" />
<path d="M182.9529 73.5500
L181.7329 74.7700
" />
<path d="M186.0700 76.6500
L185.6349 77.0851
" />
<path d="M181.0985 81.5663
L181.2324 81.4324
" />
<path d="M178.0490 75.2745
L178.6169 75.2745
" />
<path d="M184.5592 78.0286
L184.3491 78.0286
" />
<path d="M180.2500 84.4500
L180.2500 82.4148
" />
<path d="M175.9035 78.0875
L175.2000 78.0875
" />
<path d="M186.0700 75.6469
L186.0500 75.6269
" />
<path d="M186.0500 74.6500
L186.2500 74.4500
" />
<path d="M179.7550 75.9802
L179.2500 75.4751
" />
<path d="M185.2199 77.0851
L184.5592 77.7458
" />
<path d="M180.2500 82.4148
L179.7550 81.9198
" />
<path d="M184.3491 78.0286
L183.7289 77.4085
" />
<path d="M173.2700 79.0500
L173.6406 79.0500
" />
<path d="M179.2500 75.2700
L179.7500 74.7700
" />
<path d="M183.7289 77.4085
L182.8522 77.4085
" />
<path d="M173.9000 78.0875
L175.2000 78.0875
" />
<path d="M185.3844 82.7523
L185.3844 81.8923
" />
<path d="M186.0700 75.6469
L185.5615 75.6469
" />
<path d="M181.7500 81.9500
L181.2324 81.4324
" />
<path d="M182.9529 73.5500
L182.7500 73.7529
" />
<path d="M173.4627 79.6427
L173.2700 79.4500
" />
<path d="M173.6406 79.0500
L173.9000 78.7906
" />
<path d="M183.8121 81.5000
L184.3844 82.0723
" />
<path d="M185.3844 82.7523
L185.0644 82.7523
" />
<path d="M181.7500 82.9500
L181.7500 81.9500
" />
<path d="M183.7046 81.4500
L183.4773 81.2227
" />
<path d="M181.0985 81.5663
L181.0985 81.5663
" />
<path d="M182.7500 75.2485
L183.0915 75.5900
" />
<path d="M185.0644 82.7523
L184.3844 82.0723
" />
<path d="M181.7900 83.8100
L181.9300 83.9500
" />
<path d="M180.7450 83.2537
L181.3013 83.8100
" />
<path d="M181.3013 83.8100
L181.7900 83.8100
" />
<path d="M180.7450 81.9198
L180.7450 83.2537
" />
<path d="M178.2500 82.1300
L178.2500 82.0107
" />
<path d="M178.2500 82.0107
L179.0479 81.2127
" />
<path d="M176.9000 83.4500
L176.9000 82.8950
" />
<path d="M177.6650 82.1300
L178.2500 82.1300
" />
<path d="M176.9000 82.8950
L177.6650 82.1300
" />
<path d="M174.6000 85.1500
L175.9950 83.7550
" />
<path d="M175.9950 82.7050
L176.9700 81.7300
" />
<path d="M176.9700 81.7300
L177.8236 81.7300
" />
<path d="M174.6000 85.1500
L174.4644 85.1500
" />
<path d="M174.4644 85.1500
L173.4044 84.0900
" />
<path d="M175.9950 83.7550
L175.9950 82.7050
" />
<path d="M177.8236 81.7300
L178.6944 80.8592
" />
<path d="M181.9489 76.2445
L181.8948 76.2445
" />
<path d="M184.8919 76.4500
L184.2930 75.8511
" />
<path d="M184.2930 75.8511
L184.2930 75.6511
" />
<path d="M181.8948 76.2445
L181.4521 76.6873
" />
<path d="M185.4300 76.4500
L184.8919 76.4500
" />
<path d="M179.2500 83.4500
L178.7500 83.9500
" />
<path d="M178.7500 83.9500
L178.7500 84.9500
" />
<path d="M173.7577 65.6034
L173.7577 66.4577
" />
<path d="M175.0665 67.7665
L186.6412 67.7665
" />
<path d="M173.7577 66.4577
L175.0665 67.7665
" />
<path d="M186.6412 67.7665
L187.7577 66.6500
" />
<path d="M175.2000 76.7844
L175.2000 75.8125
" />
<path d="M173.3000 75.8125
L173.3000 74.4800
" />
<path d="M174.3516 68.8556
L174.1716 68.6756
" />
<path d="M173.3000 75.8125
L173.3000 76.1656
" />
<path d="M173.7577 67.8034
L174.1716 68.2173
" />
<path d="M173.2700 74.4500
L173.2700 71.4380
" />
<path d="M173.3000 76.1656
L174.0844 76.9500
" />
<path d="M173.2700 71.4380
L174.3516 70.3564
" />
<path d="M174.3516 70.3564
L174.3516 68.8556
" />
<path d="M175.0344 76.9500
L175.2000 76.7844
" />
<path d="M174.1716 68.2173
L174.1716 68.6756
" />
<path d="M174.0844 76.9500
L175.0344 76.9500
" />
<path d="M173.3000 74.4800
L173.2700 74.4500
" />
<path d="M182.3964 76.4500
L181.8056 77.0408
" />
<path d="M182.7500 76.4500
L182.7500 76.4085
" />
<path d="M182.7500 76.4500
L182.3964 76.4500
" />
<path d="M181.5851 75.7058
L181.5851 75.8471
" />
<path d="M181.5851 75.8471
L181.0985 76.3337
" />
<path d="M183.8849 76.5500
L183.4264 77.0085
" />
<path d="M182.3205 73.3339
L182.7044 72.9500
" />
<path d="M183.2049 72.9534
L184.2700 72.9534
" />
<path d="M182.5451 77.0085
L182.1592 77.3944
" />
<path d="M182.3205 73.4000
L182.3205 73.3339
" />
<path d="M182.7044 72.9500
L183.2015 72.9500
" />
<path d="M183.2015 72.9500
L183.2049 72.9534
" />
<path d="M183.4264 77.0085
L182.5451 77.0085
" />
<path d="M180.7450 75.9802
L180.7381 75.9802
" />
<path d="M180.7381 75.9802
L180.2579 75.5000
" />
<path d="M172.2166 83.9834
L171.7577 83.9834
" />
<path d="M172.9044 81.9230
L172.9044 83.2956
" />
<path d="M174.6161 81.8500
L174.0961 81.3300
" />
<path d="M176.8043 81.3300
L176.2843 81.8500
" />
<path d="M174.0961 81.3300
L173.4974 81.3300
" />
<path d="M172.9044 83.2956
L172.2166 83.9834
" />
<path d="M176.2843 81.8500
L174.6161 81.8500
" />
<path d="M177.5164 81.3300
L176.8043 81.3300
" />
<path d="M173.4974 81.3300
L172.9044 81.9230
" />
<path d="M178.3408 80.5056
L177.5164 81.3300
" />
<path d="M174.2618 80.9300
L172.2711 80.9300
" />
<path d="M177.2093 80.9300
L176.6386 80.9300
" />
<path d="M177.9873 80.1521
L177.2093 80.9300
" />
<path d="M174.7818 81.4500
L174.2618 80.9300
" />
<path d="M176.6386 80.9300
L176.1186 81.4500
" />
<path d="M176.1186 81.4500
L174.7818 81.4500
" />
<path d="M172.2711 80.9300
L171.7577 81.4434
" />
<path d="M187.7577 82.5456
L187.7577 81.4100
" />
<path d="M184.1642 83.9500
L186.3533 83.9500
" />
<path d="M182.8030 82.5888
L184.1642 83.9500
" />
<path d="M182.8030 81.1495
L182.8030 82.5888
" />
<path d="M186.3533 83.9500
L187.7577 82.5456
" />
<path d="M182.1592 80.5056
L182.8030 81.1495
" />
<path d="M184.0985 84.4500
L187.2577 84.4500
" />
<path d="M187.2577 84.4500
L187.7577 83.9500
" />
<path d="M181.8056 80.8592
L181.8056 80.9653
" />
<path d="M182.1500 81.3096
L182.1500 82.5015
" />
<path d="M182.1500 82.5015
L184.0985 84.4500
" />
<path d="M181.8056 80.9653
L182.1500 81.3096
" />
<path d="M183.2198 78.4550
L183.8098 79.0450
" />
<path d="M186.6077 77.3943
L186.6077 75.4200
" />
<path d="M186.6077 75.4200
L187.7577 74.2700
" />
<path d="M184.9570 79.0450
L186.6077 77.3943
" />
<path d="M183.8098 79.0450
L184.9570 79.0450
" />
<path d="M187.3921 80.3079
L186.4477 81.2523
" />
<path d="M187.6577 78.7700
L187.7577 78.8700
" />
<path d="M185.3594 81.2273
L185.3844 81.2523
" />
<path d="M184.0143 80.4915
L184.7500 81.2273
" />
<path d="M182.8522 80.4915
L184.0143 80.4915
" />
<path d="M186.4477 81.2523
L185.3844 81.2523
" />
<path d="M182.5127 80.1521
L182.8522 80.4915
" />
<path d="M187.3921 79.6273
L187.3921 80.3079
" />
<path d="M184.7500 81.2273
L185.3594 81.2273
" />
<path d="M185.1227 79.4450
L187.7577 76.8100
" />
<path d="M183.2198 79.4450
L185.1227 79.4450
" />
<path d="M180.4500 71.2550
L180.4500 72.0800
" />
<path d="M177.1101 74.0899
L177.1101 73.3101
" />
<path d="M176.7500 74.4500
L177.1101 74.0899
" />
<path d="M179.5500 72.0800
L179.5500 71.2550
" />
<path d="M176.4000 75.5406
L176.7500 75.1906
" />
<path d="M176.7500 75.1906
L176.7500 74.4500
" />
<path d="M180.5000 70.0000
L180.5500 69.9500
" />
<path d="M180.5000 71.2050
L180.5000 70.0000
" />
<path d="M179.5500 71.2550
L179.5000 71.2050
" />
<path d="M180.4500 72.0800
L179.5500 72.0800
" />
<path d="M180.5000 71.2050
L180.4500 71.2550
" />
<path d="M175.1366 79.4500
L175.4300 79.4500
" />
<path d="M175.0100 79.3234
L175.1366 79.4500
" />
<path d="M175.8000 77.1354
L175.8000 73.6000
" />
<path d="M180.0000 70.2000
L180.0000 71.2050
" />
<path d="M179.0000 71.2050
L179.0000 70.3800
" />
<path d="M179.0000 70.3800
L179.4300 69.9500
" />
<path d="M179.4300 69.9500
L179.7500 69.9500
" />
<path d="M175.8000 73.6000
L176.2500 73.1500
" />
<path d="M176.4683 77.8037
L175.8000 77.1354
" />
<path d="M175.4300 80.1500
L175.9495 80.6695
" />
<path d="M175.9495 80.6695
L176.0506 80.6695
" />
<path d="M179.7500 69.9500
L180.0000 70.2000
" />
<path d="M175.4300 79.9500
L175.4300 80.1500
" />
<path d="M183.2188 74.3861
L183.2188 74.9500
" />
<path d="M178.8500 72.9500
L179.7500 72.9500
" />
<path d="M183.9282 73.6767
L183.2188 74.3861
" />
<path d="M182.8663 79.7985
L183.1593 80.0915
" />
<path d="M185.2262 80.0915
L185.4117 79.9061
" />
<path d="M185.1282 74.2858
L185.1282 73.1718
" />
<path d="M185.1282 73.1718
L185.3500 72.9500
" />
<path d="M184.4639 74.9500
L183.7500 74.9500
" />
<path d="M185.9529 79.2064
L186.2098 79.2064
" />
<path d="M185.4117 79.9061
L185.4117 79.7476
" />
<path d="M183.1593 80.0915
L185.2262 80.0915
" />
<path d="M185.4117 79.7476
L185.9529 79.2064
" />
<path d="M185.1282 74.2858
L184.4639 74.9500
" />
<path d="M177.7544 76.0696
L177.7833 76.0407
" />
<path d="M177.7833 76.0407
L179.1085 76.0407
" />
<path d="M177.3407 80.0915
L176.2115 80.0915
" />
<path d="M177.6337 79.7985
L177.3407 80.0915
" />
<path d="M176.2115 80.0915
L176.0700 79.9500
" />
<path d="M176.0750 79.4450
L176.0700 79.4500
" />
<path d="M177.2802 79.4450
L176.0750 79.4450
" />
<path d="M185.3162 68.9500
L182.4300 68.9500
" />
<path d="M181.0000 70.3800
L181.0000 71.2050
" />
<path d="M182.4300 68.9500
L181.0000 70.3800
" />
<path d="M178.0000 70.3800
L178.0000 71.2050
" />
<path d="M185.3162 68.4500
L179.9300 68.4500
" />
<path d="M179.9300 68.4500
L178.0000 70.3800
" />
<path d="M183.9755 78.2207
L183.5632 77.8085
" />
<path d="M185.4684 77.6851
L185.4684 77.9679
" />
<path d="M183.9755 78.6450
L183.9755 78.2207
" />
<path d="M185.4684 77.9679
L184.7914 78.6450
" />
<path d="M183.5632 77.8085
L183.1593 77.8085
" />
<path d="M183.1593 77.8085
L182.8663 78.1015
" />
<path d="M184.7914 78.6450
L183.9755 78.6450
" />
<path style="fill:#C83434; fill-opacity:1.0000; stroke:none;fill-rule:evenodd;"
d="M 172.9942,84.7415
173.0016,84.7445
173.0016,84.7445
173.1476,84.8050
173.2471,84.8181
173.3110,84.8464
173.3186,84.8534
173.4582,84.9930
173.4917,85.0543
173.4945,85.0807
173.4945,85.6308
173.4945,85.6308
173.4974,85.6670
173.5424,85.8221
173.6246,85.9612
173.6246,85.9612
173.7388,86.0754
173.7388,86.0754
173.7388,86.0754
173.8779,86.1576
174.0330,86.2026
174.0692,86.2055
175.1308,86.2055
175.1670,86.2026
175.3221,86.1576
175.4612,86.0754
175.5754,85.9612
175.6436,85.8459
175.6946,85.7982
175.7634,85.7857
175.8280,85.8123
175.8570,85.8459
175.9250,85.9609
175.9250,85.9609
176.0391,86.0750
176.0391,86.0750
176.1781,86.1571
176.1781,86.1571
176.3330,86.2021
176.3330,86.2022
176.3692,86.2050
176.3692,86.2050
176.6500,86.2050
176.6500,85.2740
176.6697,85.2070
176.7225,85.1612
176.7740,85.1500
177.0260,85.1500
177.0930,85.1697
177.1388,85.2225
177.1500,85.2740
177.1500,86.2050
177.4307,86.2050
177.4308,86.2050
177.4670,86.2022
177.4670,86.2021
177.6219,86.1571
177.6219,86.1571
177.7609,86.0750
177.7609,86.0750
177.8750,85.9609
177.8750,85.9609
177.9571,85.8219
177.9571,85.8219
178.0021,85.6670
178.0022,85.6670
178.0052,85.6283
178.0060,85.6284
178.0273,85.5653
178.0818,85.5216
178.1513,85.5144
178.2137,85.5458
178.2166,85.5486
178.2477,85.5798
178.3204,85.6255
178.3866,85.6670
178.4005,85.6758
178.4808,85.7039
178.5707,85.7354
178.5708,85.7354
178.7500,85.7556
178.7500,85.7556
178.7500,85.7556
178.9292,85.7354
178.9293,85.7354
178.9293,85.7354
179.0995,85.6758
179.2523,85.5798
179.3798,85.4523
179.4758,85.2995
179.5354,85.1293
179.5354,85.1293
179.5377,85.1227
179.5404,85.1236
179.5682,85.0739
179.6298,85.0410
179.6995,85.0467
179.7427,85.0747
179.7477,85.0798
179.7923,85.1078
179.9064,85.1795
179.9055,85.1808
179.9511,85.2220
179.9695,85.2869
179.9695,85.6255
179.9498,85.6925
179.8970,85.7383
179.8455,85.7495
179.7606,85.7495
179.6432,85.7650
179.6432,85.7650
179.4972,85.8255
179.3717,85.9217
179.2755,86.0472
179.2150,86.1932
179.2150,86.1932
179.1995,86.3106
179.1995,86.5894
179.2150,86.7068
179.2150,86.7068
179.2445,86.7780
179.2520,86.8475
179.2207,86.9100
179.1606,86.9456
179.1299,86.9495
171.3745,86.9495
171.3075,86.9298
171.2617,86.8770
171.2505,86.8255
171.2505,85.4072
171.2702,85.3402
171.3230,85.2944
171.3921,85.2845
171.4066,85.2875
171.5223,85.3185
171.7106,85.3349
171.7577,85.3391
171.7577,85.3391
171.7577,85.3391
171.7969,85.3356
171.9931,85.3185
172.2214,85.2573
172.4355,85.1574
172.6291,85.0219
172.7962,84.8548
172.8451,84.7849
172.8997,84.7413
172.9692,84.7341
Z" /> 
<path style="fill:#C83434; fill-opacity:1.0000; stroke:none;fill-rule:evenodd;"
d="M 183.4562,84.6624
183.4806,84.6813
183.6137,84.8144
183.6137,84.8144
183.6180,84.8187
183.6180,84.8187
183.7298,84.9305
183.8125,84.9783
183.8125,84.9783
183.8667,85.0096
183.8667,85.0096
183.8667,85.0096
184.0195,85.0505
184.1776,85.0505
186.4790,85.0505
186.5460,85.0702
186.5789,85.1046
186.5806,85.1034
186.6345,85.1805
186.7192,85.3014
186.8863,85.4685
186.9621,85.5216
187.0799,85.6040
187.0799,85.6040
187.0799,85.6040
187.2940,85.7039
187.5223,85.7651
187.7106,85.7815
187.7577,85.7857
187.7577,85.7857
187.7577,85.7857
187.7969,85.7822
187.9931,85.7651
188.0934,85.7382
188.1633,85.7399
188.2211,85.7790
188.2486,85.8432
188.2495,85.8580
188.2495,86.8255
188.2298,86.8925
188.1770,86.9383
188.1255,86.9495
181.3701,86.9495
181.3030,86.9298
181.2573,86.8770
181.2473,86.8079
181.2555,86.7780
181.2694,86.7444
181.2850,86.7068
181.3005,86.5894
181.3005,86.3106
181.3005,86.3106
181.3005,86.3106
181.2850,86.1932
181.2850,86.1932
181.2850,86.1932
181.2245,86.0472
181.2245,86.0472
181.2245,86.0472
181.1961,86.0101
181.1709,85.9450
181.1705,85.9346
181.1705,85.4814
181.1902,85.4144
181.2068,85.3937
181.3871,85.2134
181.4485,85.1799
181.4586,85.1781
181.4797,85.1754
181.5581,85.1650
181.6029,85.1465
181.6665,85.1381
181.6789,85.1397
181.7606,85.1505
182.0994,85.1505
182.0994,85.1505
182.1189,85.1479
182.2168,85.1350
182.2168,85.1350
182.2189,85.1345
182.2211,85.1345
182.2248,85.1340
182.2249,85.1345
182.2752,85.1345
182.2753,85.1335
182.2828,85.1345
182.2831,85.1345
182.2834,85.1346
182.3700,85.1460
182.3700,85.1302
182.3897,85.0632
182.4185,85.0318
182.4883,84.9783
182.5476,84.9009
182.6041,84.8597
182.6738,84.8556
182.7347,84.8898
182.7675,84.9515
182.7700,84.9764
182.7700,85.1460
182.7700,85.1460
182.8566,85.1346
182.8566,85.1346
183.0026,85.0741
183.1279,84.9779
183.2241,84.8526
183.2784,84.7216
183.3222,84.6671
183.3885,84.6451
Z" /> 
<path style="fill:#C83434; fill-opacity:1.0000; stroke:none;fill-rule:evenodd;"
d="M 186.3522,81.8725
186.3980,81.9253
186.4087,81.9660
186.4110,81.9921
186.4226,82.1254
186.4226,82.1254
186.4838,82.3537
186.4838,82.3537
186.4838,82.3537
186.5837,82.5678
186.6486,82.6606
186.6709,82.7268
186.6539,82.7945
186.6347,82.8194
186.2793,83.1748
186.2179,83.2083
186.1482,83.2033
186.0923,83.1614
186.0726,83.1131
186.0711,83.1135
186.0689,83.1054
186.0689,83.1039
186.0686,83.1033
186.0679,83.0976
186.0689,83.0975
186.0689,83.0472
186.0684,83.0471
186.0689,83.0434
186.0689,83.0412
186.0694,83.0391
186.0694,83.0391
186.0849,82.9217
186.0849,82.5829
186.0849,82.5829
186.0694,82.4655
186.0694,82.4655
186.0694,82.4655
186.0298,82.3697
186.0223,82.3003
186.0298,82.2748
186.0694,82.1791
186.0849,82.0617
186.0849,81.9768
186.1046,81.9098
186.1574,81.8640
186.2089,81.8528
186.2852,81.8528
Z" /> 
<path style="fill:#C83434; fill-opacity:1.0000; stroke:none;fill-rule:evenodd;"
d="M 173.8401,81.9391
173.8845,81.9676
174.1041,82.1872
174.1375,82.2485
174.1326,82.3182
174.0907,82.3741
174.0387,82.3968
174.0330,82.3978
173.8781,82.4429
173.8781,82.4429
173.7391,82.5250
173.7391,82.5250
173.7166,82.5476
173.6553,82.5811
173.5856,82.5761
173.5296,82.5342
173.5052,82.4688
173.5049,82.4599
173.5049,82.2231
173.5246,82.1561
173.5412,82.1355
173.6150,82.0617
173.7091,81.9676
173.7704,81.9341
Z" /> 
<path style="fill:#C83434; fill-opacity:1.0000; stroke:none;fill-rule:evenodd;"
d="M 180.3387,76.8328
180.3484,76.8440
180.3915,76.9002
180.3915,76.9002
180.3915,76.9002
180.4999,77.0086
180.5321,77.0407
180.5321,77.0407
180.5606,77.0627
180.6201,77.1083
180.6201,77.1083
180.6272,77.1124
180.6255,77.1153
180.6676,77.1493
180.6729,77.1589
180.6734,77.1586
180.6775,77.1656
180.7450,77.2537
180.7450,77.2537
180.7450,77.2537
180.8856,77.3943
180.8856,77.3943
180.8856,77.3943
180.9737,77.4619
180.9737,77.4619
180.9737,77.4619
180.9807,77.4659
180.9790,77.4689
181.0211,77.5028
181.0264,77.5125
181.0269,77.5122
181.0310,77.5192
181.0986,77.6073
181.0986,77.6073
181.0986,77.6073
181.2392,77.7478
181.3273,77.8154
181.3273,77.8154
181.3273,77.8154
181.3343,77.8195
181.3326,77.8224
181.3747,77.8564
181.3800,77.8660
181.3805,77.8657
181.3846,77.8727
181.4521,77.9608
181.4521,77.9608
181.4522,77.9608
181.5621,78.0708
181.5927,78.1014
181.5927,78.1014
181.6588,78.1521
181.6808,78.1690
181.6808,78.1690
181.6878,78.1731
181.6861,78.1760
181.7283,78.2100
181.7335,78.2196
181.7341,78.2193
181.7381,78.2263
181.8057,78.3144
181.8057,78.3144
181.8057,78.3144
181.9463,78.4550
181.9463,78.4550
181.9463,78.4550
182.0344,78.5225
182.0344,78.5225
182.0344,78.5225
182.0414,78.5266
182.0397,78.5296
182.0818,78.5634
182.0871,78.5731
182.0876,78.5728
182.0917,78.5799
182.1593,78.6679
182.1593,78.6679
182.1593,78.6679
182.2998,78.8085
182.3560,78.8516
182.3972,78.9081
182.4014,78.9778
182.3672,79.0387
182.3560,79.0484
182.2998,79.0915
182.1593,79.2321
182.0917,79.3201
182.0876,79.3272
182.0847,79.3255
182.0505,79.3677
182.0411,79.3729
182.0414,79.3734
182.0344,79.3775
181.9463,79.4450
181.8057,79.5856
181.7381,79.6737
181.7341,79.6807
181.7311,79.6790
181.6971,79.7212
181.6875,79.7264
181.6878,79.7269
181.6808,79.7310
181.5927,79.7986
181.4522,79.9392
181.4521,79.9392
181.3846,80.0273
181.3805,80.0343
181.3776,80.0326
181.3434,80.0749
181.3340,80.0800
181.3343,80.0805
181.3273,80.0846
181.2392,80.1521
181.0986,80.2927
181.0310,80.3808
181.0270,80.3878
181.0240,80.3862
180.9899,80.4284
180.9804,80.4335
180.9807,80.4341
180.9737,80.4381
180.8856,80.5057
180.7450,80.6463
180.6775,80.7344
180.6734,80.7414
180.6705,80.7397
180.6364,80.7819
180.6269,80.7871
180.6272,80.7876
180.6201,80.7917
180.5321,80.8593
180.3915,80.9998
180.3484,81.0560
180.2919,81.0972
180.2222,81.1014
180.1613,81.0672
180.1516,81.0560
180.1085,80.9998
180.1085,80.9998
180.1085,80.9998
179.9679,80.8593
179.9679,80.8593
179.9679,80.8593
179.8799,80.7917
179.8728,80.7876
179.8745,80.7847
179.8323,80.7507
179.8271,80.7411
179.8266,80.7414
179.8225,80.7344
179.7550,80.6463
179.7550,80.6463
179.7550,80.6463
179.6144,80.5057
179.6144,80.5057
179.6144,80.5057
179.5263,80.4381
179.5193,80.4341
179.5210,80.4311
179.4788,80.3971
179.4736,80.3875
179.4730,80.3878
179.4690,80.3808
179.4014,80.2927
179.4014,80.2927
179.4014,80.2927
179.2608,80.1522
179.1727,80.0846
179.1727,80.0846
179.1727,80.0846
179.1657,80.0805
179.1674,80.0776
179.1252,80.0435
179.1200,80.0340
179.1195,80.0343
179.1154,80.0273
179.1066,80.0157
179.0478,79.9392
178.9073,79.7986
178.9073,79.7986
178.9073,79.7986
178.8192,79.7310
178.8122,79.7269
178.8139,79.7240
178.7717,79.6900
178.7665,79.6804
178.7659,79.6807
178.7619,79.6737
178.6943,79.5856
178.6943,79.5856
178.6943,79.5856
178.5537,79.4450
178.5537,79.4450
178.5537,79.4450
178.4656,79.3775
178.4586,79.3734
178.4603,79.3704
178.4182,79.3365
178.4129,79.3269
178.4124,79.3272
178.4083,79.3201
178.3407,79.2321
178.3407,79.2321
178.3407,79.2321
178.2002,79.0915
178.1440,79.0484
178.1028,78.9919
178.0986,78.9222
178.1328,78.8613
178.1440,78.8516
178.2002,78.8085
178.3407,78.6679
178.4083,78.5799
178.4083,78.5798
178.4124,78.5728
178.4154,78.5745
178.4492,78.5325
178.4589,78.5271
178.4586,78.5266
178.4656,78.5225
178.4656,78.5225
178.5537,78.4550
178.6943,78.3144
178.7619,78.2263
178.7619,78.2263
178.7659,78.2193
178.7689,78.2210
178.8027,78.1789
178.8125,78.1736
178.8122,78.1731
178.8192,78.1690
178.8192,78.1690
178.9073,78.1014
179.0478,77.9608
179.1154,77.8727
179.1154,77.8727
179.1195,77.8657
179.1225,77.8674
179.1563,77.8254
179.1660,77.8200
179.1657,77.8195
179.1727,77.8154
179.1727,77.8154
179.2608,77.7478
179.4014,77.6073
179.4690,77.5192
179.4690,77.5192
179.4731,77.5122
179.4760,77.5139
179.5098,77.4718
179.5196,77.4665
179.5193,77.4659
179.5263,77.4619
179.5263,77.4619
179.6144,77.3943
179.7550,77.2537
179.8225,77.1656
179.8225,77.1656
179.8266,77.1586
179.8296,77.1603
179.8634,77.1183
179.8731,77.1129
179.8728,77.1124
179.8799,77.1083
179.8799,77.1083
179.9679,77.0407
180.1085,76.9002
180.1516,76.8440
180.2081,76.8028
180.2778,76.7986
Z" /> 
<path style="fill:#C83434; fill-opacity:1.0000; stroke:none;fill-rule:evenodd;"
d="M 176.8522,76.3072
176.8693,76.3401
176.8915,76.3654
176.9073,76.3654
176.9743,76.3851
177.0056,76.4139
177.0592,76.4837
177.1365,76.5430
177.1777,76.5994
177.1819,76.6692
177.1477,76.7301
177.0859,76.7629
177.0610,76.7654
176.8915,76.7654
176.8915,76.7654
176.9029,76.8520
176.9029,76.8520
176.9207,76.8951
176.9282,76.9645
176.8969,77.0270
176.8368,77.0627
176.7670,77.0602
176.7652,77.0595
176.6476,77.0184
176.5607,77.0086
176.4962,76.9815
176.4869,76.9730
176.4368,76.9230
176.4033,76.8617
176.4005,76.8353
176.4005,76.4569
176.4202,76.3898
176.4730,76.3441
176.5106,76.3337
176.5793,76.3259
176.5793,76.3259
176.5793,76.3259
176.7218,76.2760
176.7916,76.2725
Z" /> 
<path style="fill:#C83434; fill-opacity:1.0000; stroke:none;fill-rule:evenodd;"
d="M 174.4257,74.4697
174.4463,74.4863
174.4637,74.5037
174.4972,74.5650
174.5000,74.5914
174.5000,74.9182
174.4827,74.9813
174.4483,75.0396
174.4483,75.0396
174.4024,75.1974
174.4024,75.1974
174.3995,75.2343
174.3995,75.6885
174.3798,75.7555
174.3270,75.8013
174.2755,75.8125
174.2245,75.8125
174.1575,75.7928
174.1117,75.7400
174.1005,75.6885
174.1005,75.2343
174.1005,75.2343
174.0976,75.1974
174.0976,75.1974
174.0517,75.0396
174.0517,75.0396
174.0517,75.0396
174.0142,74.9762
173.9971,74.9085
174.0019,74.8785
174.0476,74.7210
174.0476,74.7210
174.0480,74.7162
174.0505,74.6847
174.0505,74.5740
174.0702,74.5070
174.1230,74.4612
174.1745,74.4500
174.3586,74.4500
Z" /> 
<path style="fill:#C83434; fill-opacity:1.0000; stroke:none;fill-rule:evenodd;"
d="M 177.8021,72.2805
177.8255,72.2805
177.8925,72.3002
177.9383,72.3530
177.9495,72.4045
177.9495,72.7181
177.9298,72.7851
177.8770,72.8309
177.8079,72.8408
177.7443,72.8118
177.7378,72.8057
177.6124,72.6803
177.4596,72.5843
177.2828,72.5224
177.2835,72.5205
177.2313,72.4913
177.1984,72.4296
177.2041,72.3600
177.2465,72.3045
177.3123,72.2807
177.3198,72.2805
177.6979,72.2805
177.6979,72.2805
177.7367,72.2763
177.7633,72.2763
Z" /> 
<path style="fill:#C83434; fill-opacity:1.0000; stroke:none;fill-rule:evenodd;"
d="M 186.1209,69.3898
186.1537,69.4515
186.1562,69.4764
186.1562,69.6460
186.1562,69.6460
186.2428,69.6346
186.2428,69.6346
186.3281,69.5992
186.3976,69.5918
186.4601,69.6230
186.4879,69.6614
186.5841,69.8676
186.7196,70.0611
186.8866,70.2281
187.0723,70.3581
187.1159,70.4127
187.1231,70.4822
187.0916,70.5445
187.0723,70.5613
186.8863,70.6915
186.7192,70.8586
186.5837,71.0522
186.5837,71.0522
186.4838,71.2663
186.4838,71.2663
186.4226,71.4946
186.4226,71.4946
186.4020,71.7300
186.4020,71.7300
186.4041,71.7540
186.3904,71.8225
186.3418,71.8727
186.2737,71.8887
186.2079,71.8653
186.1745,71.8290
186.1055,71.7148
186.1055,71.7148
186.1055,71.7148
185.9852,71.5945
185.8396,71.5065
185.8013,71.4946
185.6772,71.4559
185.6772,71.4559
185.6772,71.4559
185.6278,71.4514
185.6066,71.4495
185.1876,71.4495
185.1205,71.4298
185.0748,71.3770
185.0649,71.3079
185.0660,71.3013
185.0705,71.2785
185.0705,71.2785
185.0705,69.9815
185.0341,69.7987
185.0404,69.7291
185.0832,69.6739
185.1491,69.6507
185.1557,69.6505
185.4856,69.6505
185.4856,69.6505
185.5200,69.6460
185.6030,69.6350
185.6030,69.6350
185.6051,69.6345
185.6073,69.6345
185.6110,69.6340
185.6111,69.6345
185.6614,69.6345
185.6615,69.6335
185.6690,69.6345
185.6693,69.6345
185.6696,69.6346
185.7562,69.6460
185.7562,69.6302
185.7759,69.5632
185.8047,69.5318
185.8745,69.4783
185.9338,69.4009
185.9903,69.3597
186.0600,69.3556
Z" /> 
<path style="fill:#C83434; fill-opacity:1.0000; stroke:none;fill-rule:evenodd;"
d="M 173.0639,69.4795
173.0667,69.4822
173.1182,69.5337
173.1517,69.5951
173.1535,69.6052
173.1666,69.7047
173.1671,69.7068
173.1671,69.7090
173.1676,69.7127
173.1671,69.7128
173.1671,69.7631
173.1681,69.7632
173.1671,69.7706
173.1671,69.7710
173.1670,69.7713
173.1556,69.8579
173.1714,69.8579
173.2384,69.8776
173.2698,69.9064
173.3233,69.9762
173.4007,70.0355
173.4419,70.0920
173.4460,70.1617
173.4118,70.2226
173.3501,70.2554
173.3252,70.2579
173.1556,70.2579
173.1556,70.2579
173.1670,70.3445
173.1670,70.3445
173.2275,70.4905
173.2314,70.4973
173.2479,70.5652
173.2251,70.6312
173.2117,70.6470
173.1592,70.6995
173.0978,70.7330
173.0282,70.7280
172.9722,70.6862
172.9591,70.6643
172.9317,70.6056
172.9317,70.6056
172.7962,70.4120
172.6291,70.2449
172.6291,70.2449
172.4435,70.1150
172.3999,70.0604
172.3927,69.9909
172.4242,69.9285
172.4435,69.9118
172.5067,69.8676
172.6291,69.7819
172.7962,69.6148
172.8774,69.4988
172.9320,69.4552
173.0015,69.4480
Z" /> 
</g>
<g style="fill:#FFFFFF; fill-opacity:1.0000; stroke:none;">
<circle cx="179.3224" cy="78.0224" r="0.1500" /> 
</g>
<g style="fill:#FFFFFF; fill-opacity:1.0000; stroke:none;">
<circle cx="186.0757" cy="80.6523" r="0.1500" /> 
</g>
<g style="fill:#FFFFFF; fill-opacity:1.0000; stroke:none;">
<circle cx="175.2500" cy="80.8500" r="0.1500" /> 
</g>
<g style="fill:#FFFFFF; fill-opacity:1.0000; stroke:none;">
<circle cx="176.7754" cy="76.9379" r="0.1500" /> 
</g>
<g style="fill:#FFFFFF; fill-opacity:1.0000; stroke:none;">
<circle cx="174.3500" cy="78.5375" r="0.0500" /> 
</g>
<g style="fill:#FFFFFF; fill-opacity:1.0000; stroke:none;">
<circle cx="182.2500" cy="85.5500" r="0.1500" /> 
</g>
<g style="fill:#FFFFFF; fill-opacity:1.0000; stroke:none;">
<circle cx="186.0699" cy="82.1543" r="0.1500" /> 
</g>
<g style="fill:#FFFFFF; fill-opacity:1.0000; stroke:none;">
<circle cx="173.2500" cy="69.9500" r="0.1500" /> 
</g>
<g style="fill:#FFFFFF; fill-opacity:1.0000; stroke:none;">
<circle cx="173.7500" cy="81.9500" r="0.1500" /> 
</g>
<g style="fill:#FFFFFF; fill-opacity:1.0000; stroke:none;">
<circle cx="174.2500" cy="71.4500" r="0.1500" /> 
</g>
<g style="fill:#FFFFFF; fill-opacity:1.0000; stroke:none;">
<circle cx="178.2500" cy="85.9500" r="0.1500" /> 
</g>
<g style="fill:#FFFFFF; fill-opacity:1.0000; stroke:none;">
<circle cx="184.5592" cy="78.0286" r="0.1500" /> 
</g>
<g style="fill:#FFFFFF; fill-opacity:1.0000; stroke:none;">
<circle cx="182.9529" cy="73.5500" r="0.1500" /> 
</g>
<g style="fill:#FFFFFF; fill-opacity:1.0000; stroke:none;">
<circle cx="176.6610" cy="78.8450" r="0.1500" /> 
</g>
<g style="fill:#FFFFFF; fill-opacity:1.0000; stroke:none;">
<circle cx="181.7500" cy="82.9500" r="0.1500" /> 
</g>
<g style="fill:#FFFFFF; fill-opacity:1.0000; stroke:none;">
<circle cx="180.2500" cy="84.4500" r="0.1500" /> 
</g>
<g style="fill:#FFFFFF; fill-opacity:1.0000; stroke:none;">
<circle cx="183.4773" cy="81.2227" r="0.1500" /> 
</g>
<g style="fill:#FFFFFF; fill-opacity:1.0000; stroke:none;">
<circle cx="184.8919" cy="76.4500" r="0.0500" /> 
</g>
<g style="fill:#FFFFFF; fill-opacity:1.0000; stroke:none;">
<circle cx="179.2500" cy="83.4500" r="0.1500" /> 
</g>
<g style="fill:#FFFFFF; fill-opacity:1.0000; stroke:none;">
<circle cx="181.9489" cy="76.2445" r="0.0500" /> 
</g>
<g style="fill:#FFFFFF; fill-opacity:1.0000; stroke:none;">
<circle cx="178.7500" cy="84.9500" r="0.1500" /> 
</g>
<g style="fill:#FFFFFF; fill-opacity:1.0000; stroke:none;">
<circle cx="182.7500" cy="76.4085" r="0.1500" /> 
</g>
<g style="fill:#FFFFFF; fill-opacity:1.0000; stroke:none;">
<circle cx="181.5851" cy="75.7058" r="0.1500" /> 
</g>
<g style="fill:#FFFFFF; fill-opacity:1.0000; stroke:none;">
<circle cx="184.2700" cy="72.9534" r="0.1500" /> 
</g>
<g style="fill:#FFFFFF; fill-opacity:1.0000; stroke:none;">
<circle cx="183.8849" cy="76.5500" r="0.1500" /> 
</g>
<g style="fill:#FFFFFF; fill-opacity:1.0000; stroke:none;">
<circle cx="182.3205" cy="73.4000" r="0.1500" /> 
</g>
<g style="fill:#FFFFFF; fill-opacity:1.0000; stroke:none;">
<circle cx="180.2579" cy="75.5000" r="0.1500" /> 
</g>
<g style="fill:#FFFFFF; fill-opacity:1.0000; stroke:none;">
<circle cx="176.4000" cy="75.5406" r="0.1500" /> 
</g>
<g style="fill:#FFFFFF; fill-opacity:1.0000; stroke:none;">
<circle cx="180.5500" cy="69.9500" r="0.1500" /> 
</g>
<g style="fill:#FFFFFF; fill-opacity:1.0000; stroke:none;">
<circle cx="177.1101" cy="73.3101" r="0.1500" /> 
</g>
<g style="fill:#FFFFFF; fill-opacity:1.0000; stroke:none;">
<circle cx="175.0100" cy="79.3234" r="0.1500" /> 
</g>
<g style="fill:#FFFFFF; fill-opacity:1.0000; stroke:none;">
<circle cx="176.0506" cy="80.6695" r="0.1500" /> 
</g>
<g style="fill:#FFFFFF; fill-opacity:1.0000; stroke:none;">
<circle cx="179.7500" cy="69.9500" r="0.1500" /> 
</g>
<g style="fill:#FFFFFF; fill-opacity:1.0000; stroke:none;">
<circle cx="176.2500" cy="73.1500" r="0.1500" /> 
</g>
<g style="fill:#FFFFFF; fill-opacity:1.0000; stroke:none;">
<circle cx="176.4683" cy="77.8037" r="0.1500" /> 
</g>
<g style="fill:#FFFFFF; fill-opacity:1.0000; stroke:none;">
<circle cx="183.9282" cy="73.6767" r="0.1500" /> 
</g>
<g style="fill:#FFFFFF; fill-opacity:1.0000; stroke:none;">
<circle cx="179.7500" cy="72.9500" r="0.1500" /> 
</g>
<g style="fill:#FFFFFF; fill-opacity:1.0000; stroke:none;">
<circle cx="186.2098" cy="79.2064" r="0.1500" /> 
</g>
<g style="fill:#FFFFFF; fill-opacity:1.0000; stroke:none;">
<circle cx="185.1282" cy="74.2858" r="0.1500" /> 
</g>
<g style="fill:#FFFFFF; fill-opacity:1.0000; stroke:none;">
<circle cx="185.4684" cy="77.6851" r="0.1500" /> 
</g>
<g style="fill:#FFFFFF; fill-opacity:1.0000; stroke:none;">
<circle cx="171.7577" cy="66.2034" r="0.1750" /> 
</g>
<g style="fill:#FFFFFF; fill-opacity:1.0000; stroke:none;">
<circle cx="171.7577" cy="68.7434" r="0.1750" /> 
</g>
<g style="fill:#FFFFFF; fill-opacity:1.0000; stroke:none;">
<circle cx="171.7577" cy="71.2834" r="0.1750" /> 
</g>
<g style="fill:#FFFFFF; fill-opacity:1.0000; stroke:none;">
<circle cx="171.7577" cy="73.8234" r="0.1750" /> 
</g>
<g style="fill:#FFFFFF; fill-opacity:1.0000; stroke:none;">
<circle cx="171.7577" cy="76.3634" r="0.1750" /> 
</g>
<g style="fill:#FFFFFF; fill-opacity:1.0000; stroke:none;">
<circle cx="171.7577" cy="78.9034" r="0.1750" /> 
</g>
<g style="fill:#FFFFFF; fill-opacity:1.0000; stroke:none;">
<circle cx="171.7577" cy="81.4434" r="0.1750" /> 
</g>
<g style="fill:#FFFFFF; fill-opacity:1.0000; stroke:none;">
<circle cx="171.7577" cy="83.9834" r="0.1750" /> 
</g>
<g style="fill:#FFFFFF; fill-opacity:1.0000; stroke:none;">
<circle cx="187.7577" cy="84.4300" r="0.1750" /> 
</g>
<g style="fill:#FFFFFF; fill-opacity:1.0000; stroke:none;">
<circle cx="187.7577" cy="81.8900" r="0.1750" /> 
</g>
<g style="fill:#FFFFFF; fill-opacity:1.0000; stroke:none;">
<circle cx="187.7577" cy="79.3500" r="0.1750" /> 
</g>
<g style="fill:#FFFFFF; fill-opacity:1.0000; stroke:none;">
<circle cx="187.7577" cy="76.8100" r="0.1750" /> 
</g>
<g style="fill:#FFFFFF; fill-opacity:1.0000; stroke:none;">
<circle cx="187.7577" cy="74.2700" r="0.1750" /> 
</g>
<g style="fill:#FFFFFF; fill-opacity:1.0000; stroke:none;">
<circle cx="187.7577" cy="71.7300" r="0.1750" /> 
</g>
<g style="fill:#FFFFFF; fill-opacity:1.0000; stroke:none;">
<circle cx="187.7577" cy="69.1900" r="0.1750" /> 
</g>
<g style="fill:#FFFFFF; fill-opacity:1.0000; stroke:none;">
<circle cx="187.7577" cy="66.6500" r="0.1750" /> 
</g>
<g style="fill:#FFFFFF; fill-opacity:1.0000; stroke:none;">
<circle cx="182.6400" cy="70.1300" r="0.1750" /> 
</g>
<g style="fill:#FFFFFF; fill-opacity:1.0000; stroke:none;">
<circle cx="176.8600" cy="70.1300" r="0.1750" /> 
</g>
<g style="fill:none; 
stroke:#FFFFFF; stroke-width:0.6000; stroke-opacity:1; 
stroke-linecap:round; stroke-linejoin:round;">
<path d="M184.0700 71.1800
L184.0700 70.0800
" />
<path d="M175.4300 71.1800
L175.4300 70.0800
" />
</g>
<g style="fill:#FFFFFF; fill-opacity:1.0000; stroke:none;">
<circle cx="184.0700" cy="66.4500" r="0.1750" /> 
</g>
<g style="fill:#FFFFFF; fill-opacity:1.0000; stroke:none;">
<circle cx="175.4300" cy="66.4500" r="0.1750" /> 
</g> 
</svg>
