<svg xmlns="http://www.w3.org/2000/svg" width="1187" height="1387" viewBox="0 0 1187 1387" version="1.1"><path d="M 46 0.985 C 74.822 1.304, 90.691 1.809, 87.741 2.313 C 79.881 3.655, 68.118 10.202, 61.280 17.040 C 39.698 38.622, 39.537 72.714, 60.916 94.115 C 71.837 105.048, 84.841 110.359, 100.500 110.280 C 115.036 110.207, 126.339 105.551, 137.298 95.122 C 144.488 88.279, 149.148 80.700, 152.031 71.160 C 154.951 61.500, 154.492 45.678, 151.030 36.660 C 144.597 19.898, 129.691 6.785, 112.275 2.566 C 107.104 1.313, 112.361 1.161, 162.500 1.114 C 205.092 1.073, 218.021 1.335, 216.500 2.208 C 212.568 4.463, 212.064 6.195, 212.032 17.576 C 212.002 27.802, 212.173 28.811, 214.250 30.726 C 215.488 31.867, 217.400 32.963, 218.500 33.162 C 220.405 33.507, 220.524 34.512, 221 54.274 L 221.500 75.024 265.524 119.012 L 309.547 163 683.629 163 L 1057.710 163 1075.139 145.425 L 1092.569 127.850 1100.051 131.886 C 1110.655 137.606, 1118.304 139.358, 1129.999 138.746 C 1153.523 137.515, 1171.770 123.264, 1179.609 100 C 1180.923 96.100, 1181.462 91.590, 1181.462 84.500 C 1181.462 65.353, 1172.780 49.169, 1156.838 38.597 C 1141.368 28.339, 1119.958 27.209, 1102.207 35.715 C 1094.178 39.563, 1082.253 51.604, 1078.157 60 C 1069.743 77.244, 1070.620 97.600, 1080.440 113 L 1083.947 118.500 1068.161 134.250 L 1052.376 150 683.933 150 L 315.491 150 275.221 109.721 L 234.952 69.443 235.226 51.484 C 235.486 34.424, 235.600 33.508, 237.500 33.163 C 238.600 32.964, 240.512 31.867, 241.750 30.726 C 243.830 28.808, 244 27.791, 244 17.280 C 244 6.542, 243.863 5.773, 241.547 3.456 L 239.093 1.002 713.297 0.750 C 1102.827 0.543, 1081.437 0.495, 593.500 0.484 C 266.800 0.476, 20.425 0.702, 46 0.985 M 325.283 14.978 C 322.414 15.923, 318.561 17.728, 316.721 18.989 C 311.618 22.486, 305.219 31.761, 303.950 37.500 C 303.229 40.764, 302.959 53.610, 303.172 74.500 C 303.496 106.128, 303.529 106.558, 305.953 111.484 C 308.992 117.661, 315.399 124.001, 321.708 127.075 C 328.614 130.440, 342.394 130.436, 349.309 127.067 C 355.405 124.097, 361.786 117.732, 365 111.414 L 367.500 106.500 367.500 71.500 C 367.500 36.923, 367.472 36.448, 365.207 32.205 C 356.936 16.715, 340.950 9.817, 325.283 14.978 M 882.611 14.056 C 875.877 15.736, 869.178 20.084, 865.019 25.475 C 858.056 34.501, 857.912 35.451, 857.918 72.276 L 857.923 105.053 860.985 111.469 C 864.341 118.500, 869.423 123.518, 876.864 127.149 C 880.607 128.974, 883.234 129.417, 890.500 129.446 C 898.601 129.477, 900.027 129.190, 904.773 126.569 C 911.634 122.780, 915.800 118.641, 919.500 111.936 L 922.500 106.500 922.500 72 L 922.500 37.500 919.700 31.798 C 913.149 18.456, 896.636 10.557, 882.611 14.056 M 93.117 46.631 C 88.509 49.858, 87.079 57.764, 90.327 62.046 C 97.692 71.754, 112.805 65.434, 110.580 53.577 C 109.228 46.366, 99.193 42.375, 93.117 46.631 M 332.001 61.102 C 322.424 65.003, 321.631 77.224, 330.674 81.516 C 337.095 84.562, 345.002 80.821, 346.493 74.031 C 348.220 66.167, 339.238 58.154, 332.001 61.102 M 887.500 60.850 C 879.847 63.338, 876.839 70.945, 880.885 77.580 C 886.644 87.023, 901 82.788, 901 71.646 C 901 66.569, 898.872 63.262, 894.401 61.394 C 890.804 59.891, 890.517 59.869, 887.500 60.850 M 1122.315 74.464 C 1113.604 78.252, 1114.346 91.979, 1123.423 94.974 C 1130.864 97.430, 1138 92.346, 1138 84.588 C 1138 79.566, 1135.857 76.256, 1131.401 74.394 C 1127.330 72.693, 1126.369 72.700, 1122.315 74.464 M 218 142.706 C 217.175 143.008, 215.488 144.176, 214.250 145.302 C 212.171 147.193, 212.002 148.190, 212.032 158.424 C 212.053 165.923, 212.483 170.053, 213.363 171.211 C 215.423 173.922, 219.543 175, 227.844 175 L 235.558 175 241.779 181.277 L 248 187.554 248 194.210 C 248 200.242, 247.789 200.929, 245.750 201.551 C 240.715 203.085, 240 204.696, 240 214.500 C 240 226.231, 240.828 227.175, 251.804 227.954 L 259.500 228.500 259.760 273.944 L 260.021 319.387 225.010 354.490 L 190 389.592 190 477.185 L 190 564.777 186.543 565.426 C 184.568 565.797, 182.211 567.187, 181.043 568.672 C 179.200 571.015, 179 572.682, 179 585.680 C 179 599.647, 179.076 600.166, 181.455 602.545 C 183.252 604.343, 184.993 605, 187.955 605 L 192 605 192 617.372 L 192 629.744 188.192 630.353 C 185.971 630.709, 183.367 632.045, 181.942 633.560 L 179.500 636.159 179.232 671.329 C 178.988 703.303, 179.124 706.818, 180.732 710 C 183.072 714.633, 186.987 715.873, 199.490 715.944 L 209.480 716 227.750 734.250 L 246.020 752.500 279.483 752.500 L 312.946 752.500 319.973 745.527 L 327 738.554 327 727.365 L 327 716.176 330.983 715.503 C 333.652 715.052, 335.795 713.844, 337.483 711.838 L 340 708.847 340 673.374 C 340 633.358, 339.936 632.960, 333.208 630.944 C 331.010 630.286, 324.745 629.956, 318.234 630.156 C 307.548 630.484, 306.915 630.626, 304.270 633.272 L 301.500 636.043 301.232 671.272 C 300.919 712.389, 300.926 712.427, 309.250 714.926 L 314 716.353 314 724.480 C 314 732.361, 313.900 732.705, 310.702 735.804 L 307.405 739 279.441 739 L 251.478 739 234.739 722.239 L 218 705.479 218 671.690 C 218 634.328, 217.827 633.181, 211.881 631.108 C 210.132 630.499, 207.855 630, 206.820 630 C 205.065 630, 204.957 629.176, 205.219 617.750 C 205.489 605.963, 205.584 605.488, 207.716 605.185 C 208.935 605.012, 211.072 603.515, 212.466 601.858 C 214.893 598.974, 215 598.299, 215 585.874 C 215 569.998, 214.082 567.549, 207.468 565.780 L 203 564.585 202.998 479.543 L 202.995 394.500 237.998 359.568 L 273 324.636 273 274.509 C 273 231.983, 272.777 224.088, 271.532 222.441 C 270.618 221.233, 270.052 218.159, 270.032 214.297 C 269.991 206.392, 268.592 203.350, 264.353 201.951 L 261 200.845 261 191.552 L 261 182.259 252.500 173.942 L 244 165.625 243.968 156.562 C 243.934 146.739, 243.152 144.769, 238.603 143.039 C 235.794 141.971, 220.679 141.727, 218 142.706 M 91 164.690 C 85.053 165.685, 75.689 169.404, 70.310 172.907 C 41.370 191.757, 36.448 230.919, 59.843 256.195 C 77.533 275.308, 106.993 279.145, 128.638 265.155 C 144.591 254.845, 152.910 240.523, 153.775 221.881 C 154.319 210.180, 153.058 203.805, 148.287 194.142 C 138.154 173.615, 113.483 160.931, 91 164.690 M 957.655 188.829 C 956.745 189.835, 956 191.185, 956 191.829 C 956 192.719, 916.114 193.004, 789.750 193.015 C 693.347 193.024, 622.904 193.408, 622.082 193.928 C 621.303 194.421, 592.165 223.322, 557.332 258.152 L 494 321.479 494 330.739 C 494 338.304, 493.725 340, 492.500 340 C 491.194 340, 491 344.778, 491 377 L 491 414 500.500 414 L 510 414 510 377 C 510 344.778, 509.806 340, 508.500 340 C 507.315 340, 507 338.584, 507 333.253 L 507 326.506 566.747 266.753 L 626.494 207 791.247 207 C 928.590 207, 956 207.224, 956 208.345 C 956 209.085, 956.823 210.435, 957.829 211.345 C 959.290 212.667, 961.802 213, 970.329 213 C 984.461 213, 985 212.523, 985 200 C 985 187.451, 984.485 187, 970.155 187 C 960.919 187, 959.065 187.271, 957.655 188.829 M 998.861 188.912 C 996.697 190.664, 996.500 191.572, 996.500 199.807 C 996.500 209.706, 998.037 213, 1002.655 213 C 1004.555 213, 1005 213.530, 1005 215.793 C 1005 218.078, 1004.411 218.761, 1001.764 219.543 C 997.169 220.902, 995.871 224.084, 996.215 233.148 C 996.536 241.601, 998.383 245, 1002.655 245 C 1004.970 245, 1005 245.136, 1005 255.813 C 1005 266.455, 1004.954 266.670, 1002.081 269.422 C 1000.475 270.961, 998.918 273.182, 998.619 274.360 C 998.092 276.438, 997.531 276.509, 979.288 276.800 C 957.112 277.155, 956.079 277.312, 953.576 280.720 C 951.816 283.114, 951.752 283.926, 952.826 290.188 C 953.589 294.638, 954 310.785, 954 336.277 L 954 375.517 931.742 397.758 L 909.484 420 904.482 420 L 899.480 420 881 438.500 L 862.520 457 795.883 457 L 729.247 457 728.826 445.209 C 728.373 432.488, 727.618 430.366, 722.305 426.863 C 719.857 425.248, 717.358 425.012, 702.654 425.007 C 687.193 425.001, 685.569 425.171, 682.889 427.079 C 677.052 431.235, 677 431.617, 677 470.168 L 677 505.436 657.500 525.025 C 642.457 540.137, 638 545.193, 638 547.146 C 638 548.883, 637.208 550.040, 635.477 550.828 C 633.888 551.552, 632.732 553.092, 632.352 554.989 C 631.850 557.499, 631.272 558, 628.875 558 C 626.766 558, 626 557.517, 626 556.189 C 626 555.192, 625.082 553.392, 623.961 552.189 C 622.157 550.252, 620.892 550, 612.961 550 C 605.333 550, 603.702 550.298, 602 552 C 600.900 553.100, 600 554.958, 600 556.129 C 600 557.535, 594.678 563.641, 584.311 574.129 L 568.622 590 560.811 590 C 553.194 590, 553 589.939, 553 587.557 C 553 583.441, 549.611 582, 539.932 582 C 530.744 582, 529.066 582.779, 527.551 587.750 C 526.963 589.679, 526.174 590, 522.030 590 C 517.558 590, 517.117 589.775, 516.151 587.003 C 515.576 585.354, 513.957 583.482, 512.553 582.842 L 510 581.679 510 548.134 L 510 514.588 484.250 488.740 C 460.663 465.062, 458.903 463.062, 463.298 464.931 C 469.187 467.434, 475.515 471.753, 479.500 475.989 C 485.457 482.322, 490.562 483.529, 494.545 479.545 C 496.907 477.184, 497 476.584, 497 463.700 C 497 445.509, 498.457 446.590, 473.411 446.191 L 454.028 445.881 451.514 448.395 C 449.929 449.980, 449 452.035, 449 453.955 L 449 457 380.082 457 L 311.163 457 310.832 444.421 L 310.500 431.841 306.765 428.421 C 303.457 425.392, 302.398 425, 297.515 425 L 292 425 292 420.393 C 292 416.051, 291.603 415.377, 285.088 408.643 L 278.175 401.500 278.709 394.947 C 279.146 389.579, 278.867 387.659, 277.165 384.323 C 269.053 368.422, 246.792 370.013, 241.138 386.899 C 238.104 395.962, 242.313 405.568, 251.336 410.171 C 254.711 411.893, 256.573 412.158, 262.064 411.698 L 268.707 411.141 273.854 416.352 C 280.625 423.208, 280.635 425, 273.904 425 C 267.943 425, 264.049 426.987, 261.386 431.386 C 259.599 434.336, 259.500 437.371, 259.500 489 C 259.500 540.629, 259.599 543.664, 261.386 546.614 C 264.049 551.013, 267.943 553, 273.904 553 C 280.369 553, 280.425 554.183, 274.250 560.215 L 269.500 564.855 257.770 565.177 C 246.480 565.488, 245.936 565.604, 243.270 568.273 L 240.500 571.045 240.500 585.609 L 240.500 600.173 243.218 602.511 C 245.931 604.844, 245.933 604.861, 244.458 609.831 C 243.018 614.678, 243.058 615.009, 245.915 622.121 C 248.857 629.443, 248.980 631, 246.615 631 C 245.919 631, 244.258 632.161, 242.924 633.579 L 240.500 636.159 240.232 671.329 C 239.988 703.303, 240.124 706.818, 241.732 710 C 244.244 714.973, 248.768 716.248, 262.349 715.811 C 273.147 715.463, 273.212 715.446, 276.099 712.215 L 279 708.968 279 673.435 C 279 634.806, 278.726 632.722, 273.482 631.406 C 270.398 630.632, 270.386 629.406, 273.393 622.220 C 275.533 617.105, 275.863 614.383, 276.504 596.500 L 277.221 576.500 284.610 568.865 C 291.362 561.889, 292 560.875, 292 557.115 L 292 553 297.096 553 C 300.104 553, 303.375 552.301, 305.080 551.294 C 310.826 547.900, 311 546.620, 311 507.799 C 311 481.600, 311.312 472.088, 312.200 471.200 C 313.109 470.291, 329.521 470, 379.943 470 L 446.486 470 471.743 495.243 L 497 520.485 497 551.267 L 497 582.050 494.636 582.948 C 492.224 583.865, 491 585.848, 491 588.838 C 491 589.759, 477.275 604.232, 460.500 621 L 430 651.488 430 679.934 L 430 708.380 426.881 705.190 C 423.234 701.460, 420.981 701.255, 413.761 703.999 C 410.867 705.099, 407.370 705.999, 405.990 705.999 C 404.609 706, 402.247 707.143, 400.740 708.540 L 398 711.081 398 725.703 C 398 739.243, 398.174 740.627, 400.358 744.412 C 401.655 746.660, 403.012 749.729, 403.373 751.232 C 404.206 754.700, 409.376 760.626, 413.372 762.693 C 417.720 764.941, 425.667 764.832, 430.436 762.459 C 432.600 761.381, 435.750 758.770, 437.436 756.656 C 440.286 753.081, 440.504 752.228, 440.564 744.469 L 440.628 736.127 444.815 732.063 C 448.746 728.249, 449.362 728, 454.876 728 C 460.579 728, 460.767 728.086, 461.339 730.946 C 461.663 732.566, 462.732 734.307, 463.714 734.815 C 464.696 735.322, 470.384 735.976, 476.352 736.266 C 486.092 736.741, 487.400 736.600, 489.102 734.898 C 490.146 733.854, 491 731.875, 491 730.500 C 491 728.500, 491.500 728, 493.500 728 C 494.875 728, 496 728.450, 496 729 C 496 729.550, 496.900 730.900, 498 732 C 499.698 733.698, 501.333 734, 508.826 734 C 516.758 734, 517.871 733.766, 519.826 731.686 C 521.773 729.612, 522 728.276, 522 718.860 C 522 709.166, 521.820 708.180, 519.686 706.174 C 517.676 704.286, 516.227 704, 508.686 704 C 498.536 704, 496 705.499, 496 711.500 C 496 714.981, 495.976 715, 491.500 715 C 487.403 715, 487 714.783, 487 712.573 C 487 708.136, 482.774 706, 474 706 C 465.184 706, 461 708.132, 461 712.624 C 461 715.096, 460.975 715.102, 452 714.872 L 443 714.641 443 686.063 L 443 657.485 467.323 633.177 C 488.496 612.017, 491.815 609.072, 492.946 610.434 C 493.953 611.648, 496.318 612, 503.467 612 C 513.307 612, 514.914 611.288, 516.449 606.250 C 517.039 604.315, 517.823 604, 522.048 604 C 526.468 604, 527.026 604.254, 527.595 606.523 C 528.662 610.776, 531.597 612, 540.723 612 C 547.667 612, 549.322 611.678, 551 610 C 552.100 608.900, 553 607.100, 553 606 C 553 604.147, 553.667 604, 562.066 604 C 567.052 604, 571.889 603.593, 572.816 603.095 C 573.742 602.597, 580.306 596.318, 587.403 589.143 L 600.306 576.096 602.788 578.048 C 604.774 579.610, 606.849 580, 613.180 580 C 620.246 580, 621.353 579.738, 623.545 577.545 C 624.895 576.195, 626 574.170, 626 573.045 C 626 571.439, 626.644 571, 629 571 C 631.509 571, 632 571.397, 632 573.427 C 632 577.864, 636.226 580, 645 580 C 651.306 580, 653.216 579.618, 655.365 577.927 C 657.924 575.914, 658 575.541, 658 564.927 C 658 555.576, 657.730 553.730, 656.125 552.125 C 655.094 551.094, 653.631 550.018, 652.875 549.734 C 651.977 549.397, 655.922 544.760, 664.250 536.364 L 677 523.510 677 533.305 C 677 543.993, 678.065 547.333, 682.615 550.912 C 685.069 552.842, 686.546 553, 702.185 553 C 720.658 553, 723.130 552.423, 726.602 547.301 C 728.357 544.711, 728.538 541.713, 729 507.500 L 729.500 470.500 798.764 470 L 868.028 469.500 886.304 451.250 L 904.580 433 909.532 433 L 914.483 433 935.549 411.951 C 955.956 391.560, 956.700 390.936, 959.372 391.951 C 960.889 392.528, 968.894 393, 977.161 393 C 994.079 393, 1000.299 394.246, 1008.500 399.280 C 1015.370 403.497, 1018.637 406.615, 1022.557 412.696 C 1026.800 419.279, 1029.907 421.399, 1033.993 420.501 C 1038.415 419.530, 1039.743 416.669, 1040.496 406.500 C 1041.668 390.644, 1047.199 373.902, 1055.089 362.325 C 1059.898 355.268, 1070.659 344.345, 1077.192 339.888 C 1084.033 335.220, 1086 332.626, 1086 328.272 C 1086 325.442, 1085.214 324.404, 1080.301 320.745 C 1071.579 314.250, 1060.196 303.116, 1056.023 297 C 1053.959 293.975, 1050.437 287.854, 1048.198 283.397 C 1043.269 273.589, 1040.864 272.069, 1033.927 274.375 C 1031.492 275.185, 1028.375 275.994, 1027 276.174 C 1024.568 276.491, 1024.486 276.300, 1024 269.153 C 1023.556 262.636, 1023.190 261.560, 1020.750 259.616 C 1018.516 257.836, 1018 256.618, 1018 253.124 L 1018 248.822 1021.077 251.411 L 1024.153 254 1048.577 254 C 1071.881 254, 1073 254.087, 1073 255.895 C 1073 259.950, 1077.153 270.925, 1080.824 276.572 C 1088.384 288.201, 1098.026 295.635, 1110.737 299.635 C 1117.974 301.913, 1120.221 302.174, 1129.237 301.783 C 1141.005 301.273, 1148.347 299.044, 1156.844 293.403 C 1167.511 286.320, 1174.157 277.762, 1178.693 265.264 C 1189.305 236.030, 1171.196 202.537, 1140.448 194.528 C 1132.995 192.587, 1121.073 192.570, 1113.703 194.489 C 1094.376 199.523, 1077.646 216.571, 1073.811 235.139 L 1072.600 241 1050.955 241 C 1025.154 241, 1026 241.367, 1026 230.171 C 1026 222.421, 1024.162 219, 1020 219 C 1018.444 219, 1018 218.333, 1018 216 C 1018 213.792, 1018.469 213, 1019.777 213 C 1020.755 213, 1022.555 212.299, 1023.777 211.443 C 1025.807 210.022, 1026 209.068, 1026 200.443 C 1026 187.460, 1025.508 187, 1011.611 187 C 1002.872 187, 1000.847 187.304, 998.861 188.912 M 203.028 202.113 C 201.669 202.656, 200.213 203.640, 199.794 204.300 C 198.898 205.709, 198.730 222.132, 199.588 224.370 C 199.912 225.213, 201.712 226.410, 203.588 227.029 L 207 228.155 207 236.354 L 207 244.554 214 251.500 L 221 258.446 221 265.723 C 221 276.010, 222.141 277, 234 277 C 246.561 277, 247 276.496, 247 262.073 C 247 251.459, 246.924 251.086, 244.365 249.073 C 242.299 247.447, 240.294 247, 235.073 247 C 228.553 247, 228.330 246.912, 224.208 242.712 C 220.367 238.798, 220 237.976, 220 233.290 C 220 228.331, 220.117 228.116, 223.420 227.026 C 227.478 225.687, 229 222.271, 229 214.500 C 229 207.015, 227.463 203.357, 223.778 202.073 C 219.979 200.748, 206.382 200.775, 203.028 202.113 M 93.117 209.631 C 87.818 213.342, 87.043 221.596, 91.537 226.445 C 98.746 234.224, 112.025 228.008, 110.648 217.500 C 109.608 209.566, 99.614 205.080, 93.117 209.631 M 958.695 220.111 C 957.702 220.689, 956.473 222.257, 955.963 223.596 L 955.038 226.031 868.302 225.983 L 781.567 225.936 734.033 273.468 L 686.500 321 686.153 330.500 C 685.886 337.823, 685.485 340, 684.403 340 C 683.224 340, 683 345.909, 683 377 L 683 414 693 414 L 703 414 703 377 C 703 344.778, 702.806 340, 701.500 340 C 700.315 340, 700 338.583, 700 333.246 L 700 326.491 743.754 282.746 L 787.508 239 871.066 239 L 954.624 239 956.842 242 L 959.060 245 969.807 245 C 984.672 245, 985 244.729, 985 232.482 C 985 219.622, 984.320 218.989, 970.561 219.030 C 965.028 219.047, 959.688 219.533, 958.695 220.111 M 1122.315 237.464 C 1115.619 240.376, 1113.974 251, 1119.486 255.741 C 1124.620 260.157, 1130.254 259.900, 1135.128 255.026 C 1137.411 252.743, 1138 251.261, 1138 247.799 C 1138 242.573, 1135.911 239.279, 1131.401 237.394 C 1127.330 235.693, 1126.369 235.700, 1122.315 237.464 M 173.492 265.783 C 172.387 266.727, 169.833 269.750, 167.816 272.500 C 163.084 278.951, 157.169 284.500, 148.763 290.374 C 141.020 295.785, 139.768 297.590, 140.661 302.053 C 141.162 304.559, 142.747 306.287, 147.846 309.884 C 158.293 317.254, 164.757 323.815, 171.096 333.480 C 180.236 347.418, 181.939 348.634, 187.961 345.520 C 191.952 343.456, 195 339.263, 195 335.835 C 195 334.243, 193.875 330.267, 192.500 327 C 191.125 323.733, 190 319.922, 190 318.530 C 190 316.084, 190.215 316, 196.465 316 C 202.223 316, 203.304 315.672, 206.347 313 C 209.276 310.428, 210.566 310, 215.382 310 C 220.333 310, 221 310.237, 221 312 C 221 313.100, 221.900 314.900, 223 316 C 224.704 317.704, 226.333 318, 234 318 C 246.549 318, 247 317.485, 247 303.155 C 247 289.419, 246.384 288.642, 235.148 288.215 C 226.084 287.871, 222.902 289.169, 221.543 293.764 C 220.761 296.411, 220.078 297, 217.793 297 C 215.570 297, 214.996 296.541, 214.978 294.750 C 214.943 291.116, 211.529 284.623, 208.168 281.795 C 204.170 278.431, 198.892 276.705, 194.024 277.169 C 190.351 277.519, 190.128 277.370, 189.076 273.861 C 187.694 269.245, 181.884 263.988, 178.215 264.033 C 176.722 264.052, 174.596 264.839, 173.492 265.783 M 329.344 273.013 C 319.626 275.003, 311.021 281.646, 306.439 290.696 L 303.500 296.500 303.500 340 C 303.500 382.731, 303.539 383.583, 305.701 388.220 C 312.060 401.852, 327.310 409.946, 341.202 407.062 C 353.310 404.548, 363.385 395.192, 366.506 383.563 C 367.909 378.337, 368.090 371.981, 367.817 337.500 L 367.500 297.500 364.899 291.954 C 361.226 284.124, 356.789 279.501, 349.664 276.085 C 342.830 272.807, 335.650 271.721, 329.344 273.013 M 884.195 273.038 C 874.149 275.083, 865.036 282.358, 860.661 291.824 C 858.551 296.389, 858.500 297.530, 858.500 340 L 858.500 383.500 861.300 389.203 C 870.845 408.640, 895.857 413.478, 912.275 399.063 C 914.301 397.284, 917.431 392.839, 919.229 389.185 L 922.500 382.541 922.500 340.020 L 922.500 297.500 919.852 291.852 C 913.404 278.098, 898.351 270.156, 884.195 273.038 M 604.384 278.913 C 600.422 280.712, 595 286.450, 595 288.844 C 595 289.480, 593.757 290, 592.238 290 C 590.005 290, 586.464 293.017, 573.738 305.761 L 558 321.523 558 330.761 C 558 338.307, 557.725 340, 556.500 340 C 555.194 340, 555 344.778, 555 377 L 555 414 565 414 L 575 414 575 377 C 575 340.667, 574.964 340, 573 340 C 571.200 340, 571 339.333, 571 333.334 L 571 326.669 582.569 315.084 C 593.302 304.337, 594.223 303.644, 595.319 305.492 C 600.406 314.072, 611.325 318.008, 620.250 314.478 C 621.863 313.840, 622 314.813, 622 326.893 C 622 337.877, 621.757 340, 620.500 340 C 619.194 340, 619 344.778, 619 377 L 619 414 629 414 L 639 414 639 377 C 639 344.778, 638.806 340, 637.500 340 C 636.238 340, 636 337.770, 636 325.934 C 636 312.389, 635.320 308.551, 632.609 306.792 C 631.965 306.374, 631.514 302.656, 631.509 297.723 C 631.501 290.336, 631.188 288.890, 628.816 285.303 C 623.796 277.709, 613.161 274.927, 604.384 278.913 M 656.500 278.408 C 643.903 283.991, 640.907 301.061, 650.877 310.437 L 654 313.374 654 326.687 C 654 337.854, 653.758 340, 652.500 340 C 651.190 340, 651 345.500, 651 383.500 L 651 427 629 427 L 607 427 607 383.500 L 607 340 597 340 L 587 340 587 377 L 587 414 590 414 L 593 414 593 424.545 C 593 434.409, 593.159 435.250, 595.455 437.545 L 597.909 440 628.844 440 C 667.188 440, 664.423 441.164, 664.111 425.158 L 663.892 414 667.446 414 L 671 414 671 377 C 671 344.778, 670.806 340, 669.500 340 C 668.247 340, 668 337.958, 668 327.625 L 668 315.250 670.969 314.656 C 675.519 313.746, 681.465 307.182, 682.900 301.484 C 684.486 295.183, 683.540 290.046, 679.857 284.961 C 674.807 277.990, 664.174 275.007, 656.500 278.408 M 331.358 285.957 C 325.637 287.316, 321.263 290.832, 318.571 296.234 L 316 301.393 316 340 L 316 378.607 318.597 383.818 C 325.423 397.516, 344.423 398.102, 352.011 384.848 L 354.500 380.500 354.794 342.272 C 354.989 316.985, 354.721 302.678, 354.002 300.009 C 352.792 295.513, 348.073 289.590, 344.102 287.583 C 340.494 285.759, 335.091 285.069, 331.358 285.957 M 886.500 285.960 C 881.136 287.221, 877.046 289.973, 874.246 294.205 L 871.500 298.354 871.500 340.091 L 871.500 381.828 874.500 386.075 C 881.708 396.279, 895.784 397.355, 904.128 388.339 C 909.560 382.470, 909.477 383.117, 909.816 343.729 C 910.177 301.816, 909.770 297.965, 904.343 291.958 C 899.904 287.044, 892.488 284.552, 886.500 285.960 M 188.923 289.923 C 186.759 292.087, 186 293.795, 186 296.500 C 186 301.581, 190.419 306, 195.500 306 C 200.581 306, 205 301.581, 205 296.500 C 205 291.419, 200.581 287, 195.500 287 C 192.795 287, 191.087 287.759, 188.923 289.923 M 606.495 289.414 C 601.694 294.215, 602.478 301.644, 608.091 304.547 C 612.204 306.674, 615.451 306.333, 618.923 303.411 C 623.103 299.894, 623.305 293.578, 619.364 289.636 C 615.812 286.085, 609.926 285.983, 606.495 289.414 M 657.636 289.636 C 653.848 293.425, 653.969 299.123, 657.923 303.077 C 664.568 309.722, 675.560 303.379, 673.517 294.078 C 672 287.172, 662.701 284.571, 657.636 289.636 M 88 328.567 C 68.069 332.883, 51.173 349.445, 46.506 369.240 C 42.043 388.168, 47.400 406.649, 61.389 420.583 C 69.547 428.709, 77.759 433.224, 88.500 435.489 C 97.290 437.343, 101.707 437.345, 110.412 435.501 C 125.002 432.410, 136.801 424.567, 144.758 412.669 C 151.716 402.267, 153.500 396.007, 153.500 382 C 153.500 367.993, 151.716 361.733, 144.758 351.331 C 136.801 339.433, 125.002 331.590, 110.412 328.499 C 101.970 326.711, 96.495 326.727, 88 328.567 M 388 377 L 388 414 407.500 414 L 427 414 427 377 L 427 340 407.500 340 L 388 340 388 377 M 439 377 L 439 414 458.500 414 L 478 414 478 377 L 478 340 458.500 340 L 439 340 439 377 M 523 377 L 523 414 532.500 414 L 542 414 542 377 L 542 340 532.500 340 L 523 340 523 377 M 715 377 L 715 414 725 414 L 735 414 735 377 L 735 340 725 340 L 715 340 715 377 M 747 377 L 747 414 766.500 414 L 786 414 786 377 L 786 340 766.500 340 L 747 340 747 377 M 799 377 L 799 414 818.500 414 L 838 414 838 377 L 838 340 818.500 340 L 799 340 799 377 M 1113.634 357.586 C 1101.503 360.523, 1087.855 370.318, 1080.991 381.014 C 1069.938 398.239, 1069.669 421.489, 1080.321 439.143 L 1083.726 444.787 1053.863 474.637 L 1024 504.487 1024 543.523 L 1024 582.558 1017.500 589 L 1011 595.442 1011 625.763 L 1011 656.084 1003.250 655.792 L 995.500 655.500 995.176 651.500 C 994.644 644.928, 993.080 643.998, 982.595 644.015 C 977.593 644.024, 973.005 644.361, 972.400 644.765 C 969.970 646.388, 969 650.273, 969 658.387 C 969 668.339, 970.150 671.508, 974.287 672.950 C 980.775 675.212, 993.149 673.661, 994.388 670.430 C 994.805 669.345, 996.993 669, 1003.469 669 L 1012 669 1012 685 L 1012 701 1009.655 701 C 1005.236 701, 1004 703.788, 1004 713.757 C 1004 722.851, 1004.718 724.979, 1008.232 726.297 C 1008.992 726.582, 1005.301 731.025, 999.018 737.386 L 988.536 748 975.010 748 L 961.484 748 938.242 771.258 C 925.459 784.050, 915 795.075, 915 795.758 C 915 796.441, 914.566 797, 914.035 797 C 913.504 797, 911.446 798.425, 909.462 800.167 L 905.855 803.334 888.667 786.167 L 871.479 769 840.274 769 L 809.070 769 805.653 772 C 803.774 773.650, 801.828 775, 801.328 775 C 799.444 775, 768 807.658, 768 809.616 C 768 812.379, 775.033 819, 777.967 819 C 780.901 819, 809.130 791.504, 812.103 785.750 L 814.041 782 839.780 782 L 865.520 782 884.024 800.750 C 896.189 813.076, 903.352 821.147, 904.933 824.307 C 908.831 832.097, 917.824 836.189, 926.166 833.969 C 935.089 831.594, 940.932 824.198, 940.978 815.218 C 941.008 809.444, 938.768 804.473, 934.286 800.368 L 930.563 796.958 948.521 778.979 L 966.479 761 980.001 761 L 993.523 761 1009.262 745.239 C 1017.918 736.570, 1025 729.013, 1025 728.445 C 1025 727.878, 1026.456 726.983, 1028.236 726.457 C 1032.831 725.098, 1034.129 721.916, 1033.785 712.852 C 1033.467 704.492, 1031.617 701, 1027.507 701 L 1025.323 701 1024.662 669.337 C 1024.298 651.922, 1024 629.264, 1024 618.986 L 1024 600.297 1030.500 594.150 L 1037 588.002 1037 548.744 L 1037 509.487 1064.915 481.585 L 1092.831 453.683 1097.817 456.882 C 1105.803 462.007, 1113.348 464.275, 1124.067 464.773 C 1135.776 465.317, 1142.834 463.949, 1152.019 459.354 C 1169.333 450.692, 1181.965 430.295, 1181.965 411 C 1181.965 386.324, 1163.678 363.145, 1139.760 357.506 C 1132.017 355.680, 1121.375 355.713, 1113.634 357.586 M 93.311 372.952 C 89.379 375.350, 87.714 380.380, 89.142 385.552 C 91.164 392.873, 101.608 395.546, 107.026 390.128 C 112.163 384.991, 112.163 379.009, 107.026 373.872 C 103.536 370.382, 98.122 370.019, 93.311 372.952 M 255.110 384.396 C 246.487 389.175, 249.895 402, 259.787 402 C 268.396 402, 272.265 392.111, 266.077 385.923 C 262.867 382.713, 259.094 382.187, 255.110 384.396 M 1125 399.677 C 1118.914 401.581, 1116 405.350, 1116 411.315 C 1116 421.011, 1129.089 425.437, 1135.440 417.889 C 1138.401 414.370, 1138.801 409.450, 1136.490 404.980 C 1134.456 401.047, 1128.866 398.467, 1125 399.677 M 535.893 426.497 C 534.460 427.276, 532.435 429.171, 531.393 430.707 C 529.606 433.344, 529.483 436.410, 529.195 485.500 C 529.027 514.100, 529.169 539.427, 529.511 541.783 C 529.953 544.831, 531.132 547.066, 533.600 549.533 L 537.067 553 554.629 553 C 570.993 553, 572.397 552.853, 575.209 550.851 C 580.515 547.073, 581 544.406, 581 519.032 L 581 496 587.933 496 C 593.893 496, 594.951 496.269, 595.475 497.922 C 596.488 501.114, 603.625 506.839, 607.497 507.565 C 621.286 510.152, 632 502.035, 632 489 C 632 475.965, 621.286 467.848, 607.497 470.435 C 603.625 471.161, 596.488 476.886, 595.475 480.078 C 594.951 481.731, 593.893 482, 587.933 482 L 581 482 581 458.968 C 581 424.933, 581.041 424.986, 555 425.044 C 542.713 425.071, 537.834 425.442, 535.893 426.497 M 952.873 426.684 C 946.826 430.437, 947 428.583, 947 489.172 L 947 544.536 949.500 548.215 C 952.760 553.013, 952.690 555.590, 949.250 557.379 C 945.786 559.181, 942.731 562.519, 940.489 566.949 C 939.133 569.627, 938.867 571.879, 939.300 577.034 L 939.856 583.671 926.165 597.335 L 912.474 611 896.817 611 L 881.159 611 880.480 607.907 C 879.529 603.580, 874.680 601.679, 865.864 602.178 C 855.655 602.754, 855 603.678, 855 617.500 C 855 631.829, 855.150 632, 867.757 632 C 877.550 632, 879.411 631.193, 880.607 626.430 L 881.217 624 899.786 624 L 918.355 624 933.710 608.760 L 949.065 593.519 957.436 593.510 C 965.302 593.501, 966.040 593.312, 969.654 590.394 C 975.276 585.854, 977.467 581.535, 977.467 574.994 C 977.467 568.090, 973.806 561.287, 968.573 558.470 C 966.543 557.376, 965 555.780, 965 554.773 C 965 553.173, 966.184 553, 977.096 553 C 990.393 553, 993.343 552.076, 996.364 546.960 C 997.825 544.487, 998 538.297, 998 489 C 998 428.396, 998.186 430.313, 991.960 426.636 C 987.905 424.240, 956.748 424.278, 952.873 426.684 M 894.421 471.896 C 890.231 473.800, 886.584 477.584, 885.426 481.232 C 884.772 483.294, 884.657 483.298, 842.835 482.580 L 800.899 481.860 792.376 490.180 L 783.852 498.500 778.141 498.613 C 771.778 498.739, 767.787 500.431, 763.872 504.661 C 759.929 508.921, 758.725 511.870, 758.650 517.448 C 758.566 523.784, 761.240 529.367, 766.287 533.391 C 773.256 538.946, 786.374 537.914, 792.129 531.356 C 796.987 525.822, 798.561 515.518, 795.458 509.567 C 793.938 506.652, 793.960 506.604, 799.180 501.317 L 804.432 496 844.648 496 C 883.444 496, 884.887 496.068, 885.475 497.922 C 886.489 501.116, 893.616 506.820, 898.103 508.028 C 912.069 511.788, 925.609 498.521, 921.928 484.682 C 918.706 472.568, 905.974 466.650, 894.421 471.896 M 609.500 479.945 C 603.417 482.435, 601.490 490.699, 605.898 495.392 C 609.034 498.730, 613.084 499.525, 616.897 497.553 C 620.539 495.670, 622 493.221, 622 489 C 622 484.578, 620.367 482.051, 616.452 480.415 C 612.643 478.824, 612.297 478.801, 609.500 479.945 M 897.656 481.133 C 895.138 482.596, 893.069 487.908, 893.710 491.261 C 894.396 494.851, 899.376 499, 903 499 C 906.649 499, 911.667 494.795, 912.490 491.046 C 913.230 487.678, 910.979 482.594, 908.055 481.030 C 905.577 479.703, 900.021 479.758, 897.656 481.133 M 383.275 482.971 C 378.874 484.017, 375.657 486.272, 372.317 490.653 C 369.764 494.001, 369.494 495.130, 369.437 502.715 L 369.373 511.083 361.174 519.325 L 352.975 527.567 352.981 643.033 C 352.984 706.540, 352.990 759.007, 352.993 759.626 C 352.997 760.246, 359.930 767.598, 368.399 775.965 L 383.799 791.177 383.312 798.838 C 382.854 806.043, 383.002 806.775, 385.799 811.106 C 392.862 822.044, 409.617 822.977, 417.274 812.859 C 424.937 802.733, 421.938 789.138, 410.818 783.597 C 405.167 780.781, 402.377 780.458, 397.005 781.999 L 393.523 782.997 379.762 769.262 L 366 755.527 366 644.485 L 366 533.442 372.465 527.035 L 378.930 520.627 387.371 520.564 C 395.240 520.504, 396.072 520.292, 399.656 517.436 C 401.770 515.750, 404.381 512.600, 405.459 510.436 C 407.832 505.667, 407.941 497.720, 405.693 493.372 C 403.458 489.052, 397.735 484.298, 393.277 483.060 C 389.046 481.885, 387.889 481.875, 383.275 482.971 M 90.528 491.009 C 64.423 495.675, 45.030 518.689, 45.030 545 C 45.030 578.723, 75.653 604.625, 108.894 599.018 C 130.121 595.438, 148.614 577.887, 153.074 557.091 C 154.742 549.312, 153.788 533.765, 151.205 526.652 C 145.556 511.090, 131.774 497.790, 116.364 493.031 C 108.795 490.693, 97.320 489.795, 90.528 491.009 M 384 493.238 C 380.298 495.148, 377.969 500.392, 379.077 504.323 C 380.981 511.080, 389.178 513.331, 394.672 508.606 C 402.455 501.911, 393.153 488.516, 384 493.238 M 434.168 495.146 C 421.520 501.406, 420.553 519.792, 432.432 528.165 L 437 531.385 437 545.427 L 437 559.470 425.433 571.067 L 413.866 582.665 413.963 606.010 L 414.060 629.354 410.359 633.144 C 406.715 636.876, 406.571 636.924, 400.843 636.326 C 393.532 635.562, 387.310 637.743, 383.089 642.552 C 371.981 655.203, 381.391 674.963, 398.538 674.994 C 402.932 675.002, 409.909 671.098, 413.442 666.654 C 416.296 663.065, 416.501 662.252, 416.510 654.504 L 416.521 646.200 421.760 640.660 L 427 635.120 427 611.233 L 427 587.346 438.500 576.086 L 450 564.826 450.032 547.663 L 450.063 530.500 454.344 527.905 C 464.066 522.012, 465.647 508.362, 457.660 499.265 C 451.912 492.719, 442.430 491.056, 434.168 495.146 M 436.452 505.646 C 431.523 510.965, 434.279 519.777, 441.433 521.573 C 447.016 522.974, 453 517.828, 453 511.626 C 453 510.266, 451.835 507.769, 450.411 506.077 C 448.233 503.488, 447.115 503, 443.363 503 C 439.826 503, 438.398 503.547, 436.452 505.646 M 774.500 508.908 C 770.853 510.469, 768.545 513.975, 768.545 517.954 C 768.545 522.393, 770.250 524.787, 774.750 526.668 C 779.398 528.611, 784.525 526.382, 786.549 521.536 C 787.811 518.516, 787.829 517.526, 786.668 514.750 C 785.921 512.962, 784.635 510.940, 783.810 510.256 C 781.769 508.564, 776.937 507.864, 774.500 508.908 M 810.500 509.890 C 805.659 512.124, 802.612 515.290, 800.548 520.232 C 798.886 524.209, 798.624 530.258, 799.973 533.500 C 800.683 535.207, 796.170 540.150, 769.158 567.250 L 737.512 599 697.756 599 C 658.667 599, 658 598.966, 658 597 C 658 595.900, 657.100 594.100, 656 593 C 654.296 591.296, 652.667 591, 645 591 C 637.333 591, 635.704 591.296, 634 593 C 632.900 594.100, 632 595.900, 632 597 C 632 598.556, 631.333 599, 629 599 C 626.762 599, 626 598.536, 626 597.174 C 626 596.170, 624.958 594.370, 623.686 593.174 C 621.676 591.286, 620.227 591, 612.686 591 C 601.183 591, 600 592.050, 600 602.267 L 600 609.534 589.234 620.267 L 578.467 631 565.734 631 L 553 631 553 628.557 C 553 624.519, 549.583 623, 540.500 623 C 531.336 623, 528.534 624.294, 527.500 629.001 C 526.880 631.822, 526.558 632, 522.065 632 C 517.539 632, 517.241 631.831, 516.361 628.763 C 515.131 624.473, 511.954 623.033, 503.684 623.015 C 497.117 623.001, 493.314 624.081, 491.765 626.400 C 491.361 627.005, 491.024 632.493, 491.015 638.595 C 490.996 652.816, 491.158 653, 503.756 653 C 512.395 653, 512.960 652.867, 514.927 650.365 C 516.067 648.916, 517 647.116, 517 646.365 C 517 645.394, 518.439 645, 521.981 645 C 526.472 645, 527.024 645.248, 527.595 647.523 C 528.655 651.746, 531.610 653, 540.500 653 C 549.583 653, 553 651.481, 553 647.443 C 553 645.007, 553.032 645, 563.500 645 L 574 645 574 649.273 C 574 653.292, 574.481 654.022, 582.066 661.523 C 586.503 665.911, 590.726 670.850, 591.452 672.500 C 593.320 676.744, 623.159 706, 625.620 706 C 628.453 706, 635 698.963, 635 695.918 C 635 694.019, 631.089 689.536, 618.681 677.210 C 609.706 668.295, 601.706 661, 600.903 661 C 600.099 661, 596.643 658.175, 593.221 654.723 C 584.026 645.445, 584.217 644.327, 597.232 631.267 L 607.464 621 614.278 621 C 620.178 621, 621.420 620.671, 623.545 618.545 C 624.895 617.195, 626 615.395, 626 614.545 C 626 613.495, 626.961 613, 629 613 C 631.296 613, 632 613.453, 632 614.927 C 632 615.988, 633.186 617.788, 634.635 618.927 C 638.460 621.936, 651.540 621.936, 655.365 618.927 C 656.814 617.788, 658 616.002, 658 614.959 C 658 613.131, 659.541 613.052, 700.494 612.781 L 742.988 612.500 770.994 584.507 L 799 556.513 799 598.021 L 799 639.529 812 652.500 C 819.996 660.478, 825.006 666.247, 825.015 667.486 C 825.049 671.924, 829 674, 837.416 674 C 845.215 674, 848.699 672.474, 850.167 668.414 C 851.637 664.349, 855 663.605, 855 667.345 C 855 671.267, 858.393 673.367, 865.458 673.816 C 873.381 674.321, 878.799 672.659, 880.062 669.337 C 881.383 665.862, 881.231 650.308, 879.850 647.684 C 878.073 644.308, 877.137 644.032, 867.405 644.015 C 857.572 643.999, 855 645.204, 855 649.829 C 855 652.942, 851.400 652.730, 850.607 649.570 C 849.405 644.780, 847.569 644, 837.500 644 C 830.738 644, 827.748 644.395, 826.719 645.424 C 825.487 646.656, 824.399 645.944, 818.648 640.149 L 812 633.450 812 589.848 L 812 546.246 816.381 546.740 C 831.253 548.416, 842.371 533.065, 836.110 519.500 C 831.542 509.603, 820.279 505.377, 810.500 509.890 M 874.625 517.416 C 869.637 519.262, 864.351 524.406, 862.889 528.836 C 862.219 530.866, 861.980 534.884, 862.315 538.474 L 862.890 544.632 845.945 561.555 L 829 578.478 829 590.517 C 829 601.318, 828.794 602.732, 827 604.268 C 825.218 605.794, 825 607.218, 825 617.335 C 825 631.827, 825.154 632.006, 837.579 631.985 C 842.485 631.976, 846.995 631.639, 847.600 631.235 C 850.030 629.612, 851 625.727, 851 617.613 C 851 607.418, 849.851 604.436, 845.353 602.951 L 842 601.845 842 593.184 L 842 584.523 857.183 569.316 L 872.366 554.109 878.501 554.682 C 889.245 555.686, 897.279 550.274, 899.950 540.235 C 903.845 525.596, 888.901 512.131, 874.625 517.416 M 811.923 520.923 C 809.759 523.087, 809 524.795, 809 527.500 C 809 530.205, 809.759 531.913, 811.923 534.077 C 814.087 536.241, 815.795 537, 818.500 537 C 821.205 537, 822.913 536.241, 825.077 534.077 C 827.241 531.913, 828 530.205, 828 527.500 C 828 524.795, 827.241 523.087, 825.077 520.923 C 822.913 518.759, 821.205 518, 818.500 518 C 815.795 518, 814.087 518.759, 811.923 520.923 M 1118 519.690 C 1102.871 522.220, 1087.549 532.856, 1079.673 546.295 C 1069.888 562.992, 1070.147 585.509, 1080.315 602 L 1083.707 607.500 1065.311 626.052 L 1046.914 644.605 1046.978 708.009 L 1047.041 771.414 995.784 822.707 L 944.526 874 910.501 874 L 876.476 874 861.228 858.728 L 845.980 843.457 851.990 837.510 C 855.296 834.239, 858 830.855, 858 829.990 C 858 828, 849.930 820, 847.924 820 C 846.154 820, 813 853.074, 813 854.839 C 813 856.729, 821.066 865, 822.909 865 C 823.818 865, 827.233 862.301, 830.498 859.002 L 836.433 853.005 853.531 870.002 L 870.630 887 910.084 887 L 949.538 887 1004.769 831.769 L 1060 776.538 1060 713.530 L 1060 650.521 1076.604 633.896 L 1093.207 617.271 1098.854 620.672 C 1115.342 630.603, 1135.825 630.974, 1153.500 621.661 C 1169.680 613.136, 1181.965 592.566, 1181.965 574 C 1181.965 549.202, 1164.209 526.820, 1139.540 520.522 C 1133.999 519.107, 1123.835 518.715, 1118 519.690 M 875.077 528.589 C 872.488 530.767, 872 531.885, 872 535.637 C 872 541.484, 875.452 545, 881.191 545 C 890.821 545, 894.363 531.825, 885.909 527.453 C 881.796 525.326, 878.549 525.667, 875.077 528.589 M 94.241 535.325 C 87.258 539.204, 86.631 549.826, 93.117 554.369 C 96.889 557.012, 103.424 556.486, 107.046 553.250 C 116.732 544.595, 105.602 529.016, 94.241 535.325 M 1120.367 564.772 C 1115.087 569.049, 1114.454 576.239, 1118.918 581.234 C 1121.500 584.124, 1122.431 584.500, 1127 584.500 C 1131.569 584.500, 1132.500 584.124, 1135.082 581.234 C 1141.719 573.806, 1136.938 563.044, 1127 563.044 C 1124.226 563.044, 1121.682 563.707, 1120.367 564.772 M 954.357 565.992 C 948.757 568.252, 947.090 577.181, 951.455 581.545 C 956.555 586.646, 966.228 583.632, 967.561 576.527 C 968.974 568.995, 961.564 563.083, 954.357 565.992 M 973.789 603.149 C 972.050 603.785, 970.634 605.370, 969.838 607.570 C 969.156 609.457, 968.105 611, 967.503 611 C 966.901 611, 960.241 617.224, 952.704 624.830 L 939 638.660 939 643.763 C 939 648.184, 938.700 648.957, 936.750 649.551 C 931.715 651.085, 931 652.696, 931 662.500 C 931 674.424, 931.842 675.342, 943.254 675.860 C 953.108 676.308, 958.249 674.944, 959.835 671.462 C 961.331 668.179, 961.342 656.846, 959.853 653.576 C 959.189 652.120, 957.291 650.591, 955.353 649.951 C 949.867 648.141, 950.864 645.589, 961 635.500 C 965.950 630.573, 970 627.063, 970 627.699 C 970 630.918, 973.123 632, 982.416 632 C 994.837 632, 995.005 631.806, 994.985 617.421 C 994.976 611.415, 994.630 605.966, 994.214 605.313 C 992.248 602.220, 979.904 600.913, 973.789 603.149 M 639.500 634.154 C 624.780 639.558, 621.507 657.335, 633.322 667.709 C 637.517 671.393, 642.055 672.509, 649.331 671.647 L 654.480 671.037 660.213 676.711 L 665.947 682.385 659.974 688.606 C 656.688 692.027, 654 695.326, 654 695.936 C 654 697.742, 662.114 706, 663.888 706 C 665.956 706, 699 673.012, 699 670.947 C 699 670.105, 697.024 667.477, 694.608 665.106 C 689.281 659.878, 688.369 660.039, 680.998 667.502 L 675.561 673.007 669.377 666.878 C 663.526 661.079, 663.247 660.589, 664.218 657.804 C 666.842 650.276, 662.243 639.612, 654.689 635.709 C 650.076 633.326, 643.569 632.660, 639.500 634.154 M 640.775 644.559 C 635.354 647.501, 634.377 653.918, 638.589 658.923 C 640.744 661.485, 641.901 662, 645.500 662 C 649.099 662, 650.256 661.485, 652.411 658.923 C 656.695 653.832, 655.630 647.412, 650.020 644.510 C 646.411 642.644, 644.283 642.655, 640.775 644.559 M 391.712 648.012 C 384.624 653.587, 389.203 665, 398.527 665 C 402.702 665, 407 660.012, 407 655.166 C 407 647.595, 397.747 643.265, 391.712 648.012 M 726.805 647.040 C 721.262 647.981, 716.281 651.871, 713.483 657.446 C 710.312 663.764, 710.345 668.294, 713.613 674.850 C 716.122 679.885, 716.155 680.171, 714.458 682.047 C 713.485 683.121, 712.192 684, 711.584 684 C 709.825 684, 677 717.346, 677 719.133 C 677 720.964, 685.304 729, 687.195 729 C 688.441 729, 717.692 699.585, 725.891 690.087 C 729.289 686.151, 730.938 685, 733.181 685 C 736.526 685, 742.720 682.076, 745.212 679.320 C 751.370 672.510, 751.371 659.488, 745.214 652.684 C 741.308 648.368, 733.353 645.929, 726.805 647.040 M 894.028 650.113 C 892.669 650.656, 891.213 651.640, 890.794 652.300 C 889.898 653.709, 889.730 670.132, 890.588 672.370 C 890.912 673.213, 892.712 674.410, 894.588 675.029 C 896.465 675.648, 898 676.654, 898 677.264 C 898 677.875, 905.821 686.277, 915.381 695.937 C 925.596 706.259, 933.146 714.712, 933.694 716.439 C 935.615 722.495, 944.550 725.528, 948.893 721.597 C 950.101 720.504, 952.571 720, 956.720 720 C 962.376 720, 962.826 720.170, 963.420 722.535 C 964.298 726.035, 967.548 727, 978.454 727 C 991.603 727, 992.500 726.182, 992.500 714.193 C 992.500 701.403, 992.042 701, 977.500 701 C 967.929 701, 966.070 701.265, 964.655 702.829 C 963.745 703.835, 963 705.221, 963 705.911 C 963 707.610, 950.846 706.832, 945.662 704.801 C 943.164 703.822, 936.961 698.445, 927.896 689.399 C 915.607 677.135, 914.199 675.397, 915.931 674.621 C 918.491 673.474, 920 668.978, 920 662.500 C 920 655.015, 918.463 651.357, 914.778 650.073 C 910.979 648.748, 897.382 648.775, 894.028 650.113 M 92.402 653.971 C 74.228 656.728, 58.205 668.279, 50.751 684 C 48.794 688.125, 46.700 693.885, 46.097 696.799 C 38.843 731.840, 67.083 764.848, 102.500 762.727 C 122.083 761.554, 139.882 750.007, 148.588 732.826 C 156.622 716.972, 155.747 695.353, 146.447 679.948 C 142.535 673.467, 133.420 664.471, 127 660.755 C 117.197 655.081, 103.192 652.335, 92.402 653.971 M 727.388 656.980 C 724.284 658.234, 721 662.871, 721 666 C 721 669.307, 724.344 673.800, 727.775 675.105 C 731.009 676.334, 736.465 674.602, 738.497 671.701 C 740.253 669.194, 740.465 663.738, 738.920 660.850 C 738.325 659.739, 736.315 658.194, 734.452 657.415 C 730.626 655.817, 730.315 655.798, 727.388 656.980 M 498 665 C 496.381 666.619, 496 668.333, 496 674 L 496 681 491.500 681 L 487 681 487 675.073 C 487 669.860, 486.682 668.895, 484.365 667.073 C 482.216 665.382, 480.306 665, 474 665 C 467.694 665, 465.784 665.382, 463.635 667.073 C 461.081 669.082, 461 669.474, 461 679.881 C 461 694.478, 460.849 694.315, 475.164 695.140 C 481.399 695.499, 487.258 695.390, 488.184 694.897 C 489.111 694.404, 507.125 694, 528.216 694 L 566.563 694 584.063 711.500 C 593.688 721.125, 602.110 729, 602.779 729 C 604.561 729, 611.807 722.183, 612.566 719.792 C 613.100 718.110, 610.178 714.696, 596.370 700.870 C 587.104 691.591, 579.010 684, 578.383 684 C 577.757 684, 576.685 683.325, 576 682.500 C 574.951 681.236, 570.604 681, 548.378 681 L 522 681 522 674.174 C 522 668.332, 521.666 667.035, 519.686 665.174 C 517.676 663.286, 516.227 663, 508.686 663 C 501.333 663, 499.693 663.307, 498 665 M 1114.601 683.594 C 1095.330 688.257, 1079.385 703.718, 1073.935 723.026 C 1070.448 735.381, 1073.160 753.275, 1080.320 765.141 L 1083.723 770.783 1019.609 834.891 L 955.494 899 897.972 899 L 840.450 899 833 891.500 C 828.339 886.807, 824.746 884, 823.402 884 C 821.148 884, 813 891.984, 813 894.194 C 813 894.875, 820.328 902.760, 829.284 911.716 C 847.679 930.112, 848.252 930.398, 854.297 924.208 C 858.389 920.017, 858.748 918.514, 856.443 915.223 L 854.887 913 907.676 913 L 960.465 913 1026.983 846.647 L 1093.500 780.294 1099 783.685 C 1125.213 799.846, 1161.053 789.787, 1175.342 762.257 C 1186.704 740.367, 1182.924 715.663, 1165.583 698.483 C 1157.314 690.291, 1151.105 686.712, 1140.415 683.978 C 1131.478 681.693, 1122.982 681.566, 1114.601 683.594 M 742.317 699 C 738.141 703.400, 734.229 707, 733.623 707 C 731.527 707, 700 739.382, 700 741.536 C 700 744.148, 706.936 751, 709.581 751 C 711.486 751, 740.652 722.135, 747.348 713.621 C 749.721 710.605, 750.826 710, 753.964 710 C 761.497 710, 765.998 702.764, 762.578 696.151 C 760.616 692.357, 758.230 691, 753.521 691 C 750.306 691, 749.076 691.879, 742.317 699 M 795.790 694.256 C 791.578 696.806, 787 702.503, 787 705.194 C 787 706.567, 786.216 707, 783.732 707 C 780.909 707, 779.037 708.439, 769.982 717.564 C 764.217 723.374, 758.150 728.723, 756.500 729.450 C 754.850 730.177, 746.638 737.719, 738.250 746.209 C 726.851 757.747, 723 762.270, 723 764.120 C 723 767.061, 729.650 774, 732.469 774 C 734.855 774, 764.752 744.595, 766.530 740.500 C 767.922 737.296, 785.026 720, 786.803 720 C 787.387 720, 788.832 721.360, 790.016 723.023 C 793.060 727.297, 799.432 730.286, 805.500 730.286 C 821.850 730.286, 830.557 712.164, 820.652 698.747 C 815.782 692.150, 803.064 689.852, 795.790 694.256 M 93.973 698.704 C 88.796 702.272, 87.185 707.115, 89.407 712.431 C 91.263 716.873, 94.579 719, 99.646 719 C 110.788 719, 115.023 704.644, 105.580 698.885 C 101.745 696.547, 97.205 696.476, 93.973 698.704 M 752.200 698.200 C 749.444 700.956, 751.873 704.754, 755.500 703.362 C 757.487 702.599, 757.427 698.378, 755.418 697.607 C 753.404 696.834, 753.602 696.798, 752.200 698.200 M 803.500 701.918 C 794.236 704.615, 793.279 716.388, 802.029 720.012 C 810.060 723.339, 817.614 714.832, 813.890 706.657 C 812.317 703.206, 807.158 700.853, 803.500 701.918 M 869.168 703.146 C 866.626 704.404, 863.734 706.958, 862.168 709.329 C 859.817 712.888, 859.500 714.352, 859.500 721.653 L 859.500 729.939 853.029 736.469 L 846.558 743 818.236 743 L 789.914 743 785.103 747.500 C 782.457 749.975, 779.884 752, 779.385 752 C 777.761 752, 745 785.474, 745 787.133 C 745 788.987, 753.315 797, 755.239 797 C 756.768 797, 790 763.947, 790 762.426 C 790 761.848, 791.262 760.165, 792.805 758.687 L 795.609 756 823.736 756 L 851.863 756 860.720 746.904 L 869.576 737.809 873.872 738.965 C 888.011 742.773, 901.598 728.431, 897.013 714.539 C 895.441 709.776, 890.432 704.078, 886.298 702.351 C 881.470 700.334, 874.164 700.673, 869.168 703.146 M 560.499 790.001 L 476.503 874.001 560.751 958.250 L 645 1042.499 729.001 958.498 L 813.001 874.497 728.749 790.249 L 644.496 706 560.499 790.001 M 549.127 711.478 C 546.857 713.940, 545 716.273, 545 716.661 C 545 717.049, 552.520 724.934, 561.712 734.183 C 572.680 745.221, 579.140 751, 580.509 751 C 583.128 751, 590 744.083, 590 741.446 C 590 738.667, 558.161 707, 555.366 707 C 554.146 707, 551.512 708.891, 549.127 711.478 M 871.636 713.636 C 864.455 720.818, 872.652 732.872, 882.067 728.972 C 885.388 727.597, 888 723.483, 888 719.626 C 888 718.266, 886.835 715.769, 885.411 714.077 C 881.894 709.897, 875.578 709.695, 871.636 713.636 M 940.389 712.430 C 939.393 715.025, 940.788 717.169, 943.246 716.820 C 944.898 716.585, 945.500 715.833, 945.500 714 C 945.500 712.167, 944.898 711.415, 943.246 711.180 C 941.893 710.988, 940.750 711.488, 940.389 712.430 M 1119.400 729.400 C 1116.613 732.187, 1116 733.557, 1116 737 C 1116 740.443, 1116.613 741.813, 1119.400 744.600 C 1122.187 747.387, 1123.557 748, 1127 748 C 1132.673 748, 1138 742.986, 1138 737.647 C 1138 730.253, 1133.783 726, 1126.450 726 C 1123.632 726, 1122.025 726.775, 1119.400 729.400 M 527.478 733.127 C 524.827 735.570, 523 738.137, 523 739.417 C 523 742.256, 554.773 774, 557.616 774 C 560.421 774, 567 766.966, 567 763.967 C 567 762.133, 562.903 757.442, 550.662 745.260 C 541.677 736.317, 533.792 729, 533.140 729 C 532.488 729, 529.940 730.857, 527.478 733.127 M 419.374 735.689 C 412.703 736.998, 410.227 746.681, 415.273 751.727 C 421.235 757.690, 431 753.748, 431 745.378 C 431 740.582, 429.457 738.089, 425.452 736.415 C 423.589 735.637, 421.937 735.061, 421.782 735.136 C 421.627 735.211, 420.543 735.460, 419.374 735.689 M 504.208 756.288 C 501.894 758.646, 500 761.239, 500 762.049 C 500 762.859, 507.591 771.104, 516.870 780.370 C 530.696 794.178, 534.110 797.100, 535.792 796.566 C 538.158 795.815, 545 788.569, 545 786.814 C 545 785.016, 511.804 752, 509.997 752 C 509.128 752, 506.523 753.930, 504.208 756.288 M 971.025 775.796 C 964.990 779.121, 961.685 784.205, 961.200 790.909 C 960.640 798.653, 962.229 803.071, 967.183 807.547 L 971.255 811.225 952.888 829.613 L 934.520 848 912.760 848 L 891 848 891 836.316 L 891 824.632 876.029 809.566 L 861.058 794.500 846.014 794.178 C 831.957 793.877, 830.725 794.001, 827.235 796.072 C 821.388 799.541, 791 830.121, 791 832.536 C 791 835.148, 797.936 842, 800.581 842 C 801.835 842, 808.856 835.681, 819.471 825 L 836.365 808 845.988 808 L 855.611 808 866.896 819.438 L 878.181 830.877 877.987 843.188 C 877.748 858.325, 877.671 857.528, 879.571 859.429 C 880.928 860.785, 885.131 861, 910.349 861 L 939.555 861 963.429 836.750 C 976.559 823.413, 987.571 812.176, 987.901 811.780 C 988.230 811.384, 990.210 809.629, 992.301 807.881 C 997.340 803.668, 999.156 799.886, 999.214 793.490 C 999.273 786.910, 996.787 781.654, 991.694 777.594 C 988.469 775.023, 986.864 774.507, 981.194 774.220 C 976.015 773.958, 973.714 774.315, 971.025 775.796 M 481.127 779.478 C 478.857 781.940, 477 784.513, 477 785.194 C 477 785.875, 484.328 793.760, 493.284 802.716 C 511.741 821.173, 512.235 821.416, 518.425 815.077 C 521.369 812.062, 522.120 810.615, 521.670 808.827 C 520.828 805.477, 489.868 775, 487.307 775 C 486.157 775, 483.439 776.970, 481.127 779.478 M 185.500 776.945 C 184.400 777.396, 182.600 778.764, 181.500 779.986 C 179.594 782.103, 179.486 783.839, 179.202 817.021 C 178.863 856.660, 179.042 857.866, 185.674 860.637 C 188.541 861.835, 192.091 862.118, 200.801 861.841 L 212.182 861.480 215.091 858.224 L 218 854.968 218 819.531 C 218 795.161, 217.644 783.314, 216.861 781.595 C 214.920 777.334, 210.430 775.993, 198.349 776.063 C 192.382 776.098, 186.600 776.495, 185.500 776.945 M 307.500 776.945 C 306.400 777.396, 304.600 778.763, 303.500 779.985 C 301.727 781.954, 301.461 783.897, 301.158 797.103 L 300.817 812 268.019 812 C 237.976 812, 235.036 812.151, 233.008 813.793 C 230.833 815.553, 230.796 815.985, 230.941 837.973 L 231.089 860.360 224.321 867.180 L 217.554 874 205.777 874 C 192.001 874, 190 875.009, 190 881.955 C 190 885.686, 189.802 885.947, 186.482 886.569 C 179.947 887.795, 179 890.306, 179 906.412 C 179 922.453, 179.622 924.245, 185.779 925.956 C 187.826 926.524, 192.537 926.991, 196.250 926.994 L 203 927 203 934.500 C 203 941.774, 202.927 942, 200.573 942 C 196.102 942, 194 946.216, 194 955.180 C 194 962.246, 194.262 963.353, 196.455 965.545 C 198.745 967.836, 199.603 968, 209.266 968 C 223.270 968, 224 967.354, 224 954.961 C 224 947.333, 223.702 945.702, 222 944 C 220.900 942.900, 219.161 942, 218.136 942 C 216.388 942, 216.225 940.482, 215.534 917.753 C 214.795 893.459, 214.090 889.005, 210.771 887.669 C 210.072 887.388, 212.642 887.122, 216.483 887.079 L 223.466 887 233.733 876.768 L 244 866.536 244 846.268 L 244 826 272.500 826 L 301 826 301 839.032 C 301 860.443, 302.939 862.472, 322.801 861.841 L 334.182 861.480 337.091 858.224 L 340 854.968 340 840.484 L 340 826 351.761 826 L 363.522 826 380.162 842.750 C 394.223 856.905, 396.673 859.810, 395.971 861.500 C 394.546 864.933, 394.966 871.331, 396.890 875.500 C 404.059 891.033, 425.844 890.585, 432.452 874.768 C 436.457 865.184, 432.114 854.327, 422.500 849.890 C 418.338 847.969, 411.946 847.546, 408.500 848.963 C 406.809 849.659, 403.554 846.865, 387.442 830.893 L 368.383 812 354.192 812 L 340 812 340 798.047 C 340 782.441, 339.298 779.844, 334.460 777.548 C 330.899 775.858, 311.231 775.418, 307.500 776.945 M 976.213 784.515 C 970.078 787.165, 968.715 795.505, 973.658 800.148 C 978.754 804.936, 987.970 801.967, 989.489 795.048 C 991.120 787.624, 983.328 781.441, 976.213 784.515 M 396.077 793.589 C 393.489 795.767, 393 796.886, 393 800.634 C 393 806.652, 396.218 810, 402 810 C 411.808 810, 415.477 796.884, 406.909 792.453 C 402.796 790.326, 399.549 790.667, 396.077 793.589 M 459.478 801.127 C 456.862 803.538, 455 806.142, 455 807.389 C 455 810.258, 486.693 842, 489.558 842 C 492.153 842, 499 835.052, 499 832.419 C 499 831.166, 492.742 824.204, 482.183 813.712 C 472.934 804.520, 465.049 797, 464.661 797 C 464.273 797, 461.940 798.857, 459.478 801.127 M 581.357 805.992 C 575.739 808.259, 574.329 815.861, 578.589 820.923 C 582.190 825.203, 587.886 825.268, 592.077 821.077 C 599.444 813.710, 591.151 802.039, 581.357 805.992 M 914.589 809.077 C 906.522 818.663, 919.714 830.376, 928.586 821.505 C 931.917 818.174, 931.899 812.262, 928.548 808.646 C 926.602 806.547, 925.174 806, 921.637 806 C 917.885 806, 916.767 806.488, 914.589 809.077 M 82.942 819.287 C 73.523 822.498, 65.572 827.616, 59.305 834.500 C 35.371 860.793, 42.624 902.943, 73.913 919.385 C 95.655 930.810, 120.885 927.115, 138 910 C 149.019 898.981, 154 886.831, 154 870.971 C 154 847.214, 139.453 827.173, 116.652 819.519 C 106.484 816.106, 92.555 816.010, 82.942 819.287 M 436.208 824.288 C 433.894 826.646, 432 829.239, 432 830.049 C 432 830.859, 439.591 839.104, 448.870 848.370 C 462.696 862.178, 466.110 865.100, 467.792 864.566 C 470.182 863.807, 477 856.561, 477 854.780 C 477 853.009, 443.711 820, 441.926 820 C 441.096 820, 438.523 821.930, 436.208 824.288 M 260.150 840.527 C 256.332 843.740, 255.339 847.968, 257.422 852.145 C 258.652 854.609, 259 858.670, 259 870.537 L 259 885.767 252.474 886.183 C 247.011 886.530, 245.504 887.042, 243.224 889.322 C 240.511 892.034, 240.500 892.106, 240.500 906.418 C 240.500 918.702, 240.754 921.071, 242.250 922.724 C 243.633 924.252, 244 926.474, 244 933.329 C 244 941.842, 243.956 942, 241.573 942 C 237.102 942, 235 946.216, 235 955.180 C 235 962.246, 235.262 963.353, 237.455 965.545 C 239.615 967.706, 240.789 968, 247.261 968 L 254.613 968 271.943 985.500 L 289.273 1003 297.386 1003.008 L 305.500 1003.015 307.720 1006.903 C 310.131 1011.127, 318.301 1016.005, 322.946 1015.994 C 330.494 1015.978, 338.988 1010.665, 341.649 1004.298 C 342.392 1002.519, 343 998.782, 343 995.992 C 343 977.201, 318.767 969.923, 307.835 985.432 C 304.733 989.832, 304.429 990, 299.545 990 L 294.475 990 279.737 975.238 L 265 960.476 265 953.238 C 265 945.418, 263.175 942, 259 942 C 257.178 942, 257 941.333, 257 934.500 L 257 927 261.750 926.944 C 269.073 926.857, 273.225 925.035, 275.300 921 C 277.843 916.057, 277.435 893.240, 274.750 890.275 C 273.225 888.592, 273.004 886.162, 273.032 871.421 C 273.057 858.129, 273.378 854.084, 274.532 852.559 C 278.777 846.947, 273.304 838, 265.626 838 C 264.266 838, 261.802 839.137, 260.150 840.527 M 263.389 846.430 C 262.393 849.025, 263.788 851.169, 266.246 850.820 C 267.898 850.585, 268.500 849.833, 268.500 848 C 268.500 846.167, 267.898 845.415, 266.246 845.180 C 264.893 844.988, 263.750 845.488, 263.389 846.430 M 1115.276 846.511 C 1085.007 853.089, 1065.845 885.280, 1074.464 915.073 C 1077.445 925.378, 1085.740 937.768, 1093.032 942.810 C 1096.871 945.463, 1096.925 945.589, 1096.962 952.006 L 1097 958.513 1068.244 987.256 L 1039.487 1016 1013.823 1016 L 988.159 1016 987.500 1013.001 C 986.459 1008.262, 983.678 1007, 974.277 1007 C 967.333 1007, 965.678 1007.322, 964 1009 C 962.900 1010.100, 962 1011.675, 962 1012.500 C 962 1013.755, 959.916 1014, 949.242 1014 L 936.484 1014 913 990.500 L 889.516 967 852.281 967 L 815.046 967 813.356 964.250 C 810.728 959.974, 779.704 929, 778.049 929 C 776.074 929, 768 937.010, 768 938.969 C 768 940.680, 800.885 974, 802.574 974 C 803.152 974, 804.919 975.350, 806.500 977 L 809.374 980 846.981 980 L 884.589 980 907.958 1003.500 L 931.326 1027 946.663 1027 L 962 1027 962 1030.443 C 962 1035.676, 964.655 1037, 975.150 1037 C 983.363 1037, 983.972 1036.851, 985.927 1034.365 C 987.067 1032.916, 988 1031.116, 988 1030.365 C 988 1029.243, 993.118 1029, 1016.714 1029 L 1045.429 1029 1077.714 996.771 L 1110 964.541 1110 958.351 L 1110 952.161 1113.750 953.269 C 1115.813 953.879, 1122 954.366, 1127.500 954.353 C 1135.585 954.333, 1138.860 953.847, 1144.602 951.816 C 1158.351 946.952, 1169.790 936.963, 1175.957 924.435 C 1186.576 902.865, 1182.535 878.510, 1165.512 861.488 C 1151.891 847.867, 1133.825 842.481, 1115.276 846.511 M 407.923 860.923 C 405.759 863.087, 405 864.795, 405 867.500 C 405 872.581, 409.419 877, 414.500 877 C 417.205 877, 418.913 876.241, 421.077 874.077 C 423.241 871.913, 424 870.205, 424 867.500 C 424 862.419, 419.581 858, 414.500 858 C 411.795 858, 410.087 858.759, 407.923 860.923 M 95.500 860.954 C 85.978 864.892, 86.531 878.436, 96.347 881.725 C 105.204 884.691, 113.550 875.570, 109.944 866.865 C 107.714 861.482, 100.933 858.707, 95.500 860.954 M 1022 872.175 C 1017.485 873.458, 1012.706 877.107, 1010.863 880.680 C 1008.579 885.105, 969.739 922.998, 967.468 923.015 C 963.053 923.050, 961 927.034, 961 935.565 L 961 941 898.680 941 L 836.361 941 819.930 924.424 C 810.894 915.308, 802.717 907.419, 801.760 906.894 C 800.391 906.144, 799.060 906.826, 795.510 910.098 C 792.900 912.504, 791 915.144, 791 916.366 C 791 918.595, 822.453 951, 824.616 951 C 825.243 951, 826.315 951.675, 827 952.500 C 828.085 953.807, 837.210 954, 897.948 954 L 967.651 954 970 951.500 C 972.030 949.339, 973.216 949, 978.740 949 C 984.927 949, 988.712 947.881, 990.235 945.600 C 990.639 944.995, 990.976 940.393, 990.985 935.372 C 990.997 928.307, 990.647 925.952, 989.439 924.949 C 988.077 923.819, 989.316 922.212, 999.123 912.377 L 1010.368 901.100 1014.236 904.594 C 1018.980 908.880, 1021.779 910, 1027.749 910 C 1037.824 910, 1045.830 902.830, 1046.778 892.957 C 1047.692 883.445, 1041.880 874.449, 1033.277 872.060 C 1028.806 870.818, 1026.698 870.840, 1022 872.175 M 300.500 880.417 C 294.105 883.272, 289 891.413, 289 898.756 C 289 904.269, 292.756 910.956, 297.836 914.487 C 301.523 917.049, 303.102 917.500, 308.380 917.500 C 312.799 917.500, 315.425 916.951, 317.493 915.597 C 319.485 914.292, 320.520 914.061, 320.788 914.864 C 321.966 918.398, 324.107 919, 335.500 919 C 350.007 919, 350.005 919.002, 349.985 906.679 C 349.976 901.630, 349.639 897.005, 349.235 896.400 C 347.615 893.974, 343.734 893, 335.687 893 C 327.333 893, 327.230 892.969, 326.054 890.131 C 324.548 886.495, 319.344 881.441, 315.685 880.061 C 311.842 878.612, 304.139 878.793, 300.500 880.417 M 1023.110 882.346 C 1014.513 887.289, 1017.880 900, 1027.787 900 C 1039.281 900, 1040.392 883.016, 1029 881.452 C 1026.990 881.176, 1024.483 881.556, 1023.110 882.346 M 457 891.500 L 449.550 899 420.342 899 C 392.812 899, 391.101 898.894, 390.548 897.152 C 389.611 894.199, 385.520 893, 376.387 893 C 368.273 893, 364.388 893.970, 362.765 896.400 C 362.361 897.005, 362.024 901.593, 362.015 906.595 C 361.995 918.829, 362.198 919, 376.757 919 C 388.174 919, 391 918.093, 391 914.429 C 391 913.233, 394.621 913, 413.155 913 C 434.555 913, 435.254 913.062, 433.655 914.829 C 432.745 915.835, 432 917.543, 432 918.626 C 432 921.168, 438.983 928, 441.581 928 C 442.834 928, 449.796 921.742, 460.288 911.183 C 469.480 901.934, 477 894.049, 477 893.661 C 477 891.855, 468.542 884, 466.598 884 C 465.254 884, 461.661 886.807, 457 891.500 M 301.923 891.923 C 294.233 899.613, 303.160 911.588, 312.849 906.578 C 314.549 905.699, 316.404 904.114, 316.970 903.055 C 320.241 896.944, 315.454 889, 308.500 889 C 305.795 889, 304.087 889.759, 301.923 891.923 M 1119.400 892.400 C 1116.613 895.187, 1116 896.557, 1116 900 C 1116 903.443, 1116.613 904.813, 1119.400 907.600 C 1122.187 910.387, 1123.557 911, 1127 911 C 1130.443 911, 1131.813 910.387, 1134.600 907.600 C 1137.387 904.813, 1138 903.443, 1138 900 C 1138 896.557, 1137.387 895.187, 1134.600 892.400 C 1131.813 889.613, 1130.443 889, 1127 889 C 1123.557 889, 1122.187 889.613, 1119.400 892.400 M 471.063 923.500 L 453.563 941 422.782 941 L 392 941 392 937.149 C 392 927.393, 388.931 925, 376.416 925 C 368.995 925, 364.142 926.180, 362.786 928.313 C 362.370 928.966, 362.031 933.550, 362.031 938.500 C 362.031 943.450, 362.370 948.034, 362.786 948.687 C 364.066 950.701, 368.859 952, 375.006 952 C 378.238 952, 381.160 952.450, 381.500 953 C 381.895 953.639, 396.209 954, 421.155 954 C 456.196 954, 460.514 953.824, 463.346 952.279 C 468.615 949.404, 499 918.817, 499 916.389 C 499 914.436, 491.127 906, 489.304 906 C 488.897 906, 480.688 913.875, 471.063 923.500 M 1004.655 924.829 C 1003.370 926.248, 1003 928.693, 1003 935.757 C 1003 945.550, 1003.807 947.411, 1008.570 948.607 C 1010.900 949.192, 1011 949.559, 1011 957.552 C 1011 965.617, 1010.910 965.940, 1008.204 967.538 C 1003.390 970.383, 1000.625 975.522, 1000.184 982.451 C 999.684 990.305, 1002.229 995.800, 1008.197 999.749 C 1011.685 1002.057, 1013.423 1002.500, 1019 1002.500 C 1024.577 1002.500, 1026.315 1002.057, 1029.803 999.749 C 1042.527 991.329, 1040.301 970.039, 1026.231 965.573 C 1024.174 964.920, 1024 964.257, 1024 957.041 C 1024 949.589, 1024.116 949.188, 1026.430 948.607 C 1031.211 947.407, 1032 945.563, 1032 935.584 C 1032 923.156, 1031.818 923, 1017.326 923 C 1007.924 923, 1006.068 923.268, 1004.655 924.829 M 324.828 926.136 C 321.577 927.327, 320 931.365, 320 938.500 C 320 946.271, 321.522 949.687, 325.580 951.026 C 327.461 951.647, 329 952.689, 329 953.341 C 329 953.994, 335.024 960.539, 342.386 967.887 L 355.773 981.245 356.214 986.562 C 357.947 1007.469, 388.347 1010.414, 393.956 990.219 C 395.292 985.410, 395.263 983.611, 393.774 978.640 C 390.395 967.363, 376.635 962.001, 365.650 967.681 L 362.731 969.190 353.878 960.378 C 346.275 952.811, 345.270 951.432, 346.762 950.618 C 347.718 950.097, 348.831 949.182, 349.235 948.585 C 350.203 947.155, 350.186 929.840, 349.214 928.313 C 348.799 927.659, 347.202 926.647, 345.665 926.063 C 342.225 924.755, 328.468 924.803, 324.828 926.136 M 493.717 946.250 C 484.528 955.737, 470.161 970.587, 461.790 979.250 L 446.570 995 428.468 995 L 410.366 995 393.970 1011.500 L 377.574 1028 337.025 1028 L 296.477 1028 280 1011.500 L 263.523 995 200.680 995 L 137.837 995 133.668 991.618 C 124.302 984.019, 112.482 980, 99.500 980 C 84.174 980, 71.927 985.096, 60.907 996.059 C 49.644 1007.263, 44.348 1021.291, 45.263 1037.500 C 47.908 1084.350, 104.687 1106.219, 137.873 1073.170 C 149.127 1061.964, 154.021 1049.917, 153.974 1033.540 C 153.950 1025.065, 152.509 1018.738, 148.556 1009.750 C 147.828 1008.095, 150.771 1008, 202.632 1008 L 257.479 1008 274.011 1024.511 L 290.544 1041.022 335.522 1041.032 C 360.260 1041.037, 380.980 1041.032, 381.567 1041.021 C 382.154 1041.009, 390.012 1033.575, 399.030 1024.500 L 415.426 1008 433.974 1008 L 452.522 1008 469.500 991 C 478.838 981.650, 486.938 974, 487.500 974 C 489.152 974, 522 940.626, 522 938.947 C 522 936.990, 513.907 929, 511.924 929 C 511.098 929, 502.905 936.763, 493.717 946.250 M 517.209 967.250 C 508.719 975.638, 501.176 983.850, 500.448 985.500 C 499.719 987.150, 492.008 995.570, 483.312 1004.210 L 467.500 1019.920 444.259 1020.210 L 421.018 1020.500 404.248 1037.250 L 387.479 1054 337 1054 L 286.521 1054 269.752 1037.250 L 252.982 1020.500 232.002 1020.194 C 220.464 1020.026, 210.285 1020.301, 209.384 1020.805 C 208.483 1021.309, 198.578 1030.882, 187.373 1042.078 L 167 1062.435 167 1106.486 L 167 1150.538 157.123 1160.378 L 147.246 1170.218 144.164 1165.739 C 142.469 1163.275, 138.866 1159.266, 136.156 1156.830 C 114.564 1137.417, 81.501 1138.392, 61 1159.046 C 31.232 1189.036, 45.082 1239.623, 86.045 1250.525 C 93.170 1252.421, 106.066 1252.394, 113.458 1250.469 C 131.618 1245.739, 146.482 1231.210, 152.165 1212.634 C 153.957 1206.775, 154.193 1204.032, 153.777 1193.923 L 153.289 1182.077 166.645 1168.931 L 180 1155.785 180 1111.632 L 180 1067.478 196.761 1050.739 L 213.521 1034 230.522 1034 L 247.523 1034 264 1050.500 L 280.477 1067 336.922 1067 L 393.367 1067 409.970 1050.500 L 426.574 1034 449.148 1034 L 471.721 1034 489.611 1015.881 C 499.450 1005.916, 508.850 997.173, 510.500 996.454 C 514.151 994.861, 545 963.953, 545 961.888 C 545 959.771, 536.775 952, 534.535 952 C 533.440 952, 526.156 958.411, 517.209 967.250 M 749.208 956.288 C 746.894 958.646, 745 961.203, 745 961.969 C 745 963.823, 777.015 996, 778.860 996 C 779.651 996, 785.182 1000.812, 791.149 1006.692 L 802 1017.385 802 1063.930 L 802 1110.476 847.762 1156.238 L 893.524 1202 966.517 1202 L 1039.509 1202 1081.500 1160 C 1122.775 1118.716, 1123.559 1118, 1127.496 1117.983 C 1141.199 1117.923, 1155.263 1111.850, 1165.481 1101.580 C 1175.901 1091.106, 1181.965 1076.913, 1181.965 1063 C 1181.965 1037.671, 1163.031 1014.776, 1137.792 1009.585 C 1128.342 1007.642, 1125.425 1007.631, 1116.500 1009.504 C 1099.978 1012.973, 1085.676 1023.768, 1078.606 1038.105 C 1070.451 1054.643, 1070.257 1070.718, 1078.017 1086.892 C 1083.038 1097.354, 1092.319 1106.987, 1101.737 1111.507 C 1105.167 1113.153, 1107.980 1114.733, 1107.987 1115.018 C 1107.994 1115.303, 1091.448 1132.066, 1071.219 1152.268 L 1034.437 1189 966.973 1189 L 899.509 1189 857.754 1147.254 L 816 1105.509 816 1059.587 L 816 1013.666 803.110 1000.583 C 796.021 993.387, 789.946 986.581, 789.609 985.458 C 788.659 982.288, 757.680 952, 755.388 952 C 754.303 952, 751.523 953.930, 749.208 956.288 M 1013.560 976.131 C 1006.018 982.064, 1009.702 993, 1019.242 993 C 1023.598 993, 1026.583 990.794, 1027.988 986.535 C 1030.889 977.747, 1020.776 970.455, 1013.560 976.131 M 368.923 977.923 C 366.681 980.165, 366 981.765, 366 984.787 C 366 993.396, 375.889 997.265, 382.077 991.077 C 383.767 989.387, 385 987.087, 385 985.624 C 385 976.502, 375.091 971.755, 368.923 977.923 M 539.239 991.261 C 530.307 1000.205, 523 1007.972, 523 1008.521 C 523 1009.071, 514.783 1017.728, 504.740 1027.760 L 486.480 1046 459.007 1046 L 431.533 1046 398.267 1079.267 L 365 1112.533 365 1146.540 L 365 1180.547 336.710 1208.773 L 308.419 1237 277.972 1237 L 247.524 1237 232.762 1222.263 L 218 1207.525 218 1200.334 C 218 1195.208, 217.560 1192.703, 216.468 1191.611 C 214.400 1189.543, 209.170 1188.675, 201.935 1189.198 C 193.475 1189.810, 192.581 1190.985, 192.149 1202.066 C 191.556 1217.289, 192.686 1219, 203.333 1219 L 210.523 1219 226.725 1235.250 L 242.927 1251.500 243.213 1277.338 L 243.500 1303.176 246.306 1305.588 L 249.112 1308 282.419 1308 L 315.727 1308 318.364 1305.364 L 321 1302.727 321 1272.576 L 321 1242.425 349.500 1214.035 L 378 1185.645 378 1152.066 L 378 1118.487 407.795 1088.705 L 437.591 1058.922 464.949 1059.048 L 492.307 1059.175 512.412 1039.088 C 523.470 1028.039, 532.969 1019, 533.520 1019 C 535.526 1019, 567 986.512, 567 984.442 C 567 981.861, 560.058 975, 557.446 975 C 556.234 975, 549.237 981.249, 539.239 991.261 M 726.098 979.510 C 721.133 984.896, 721.094 984.773, 730.929 994.473 C 735.838 999.314, 738 1002.190, 738 1003.877 C 738 1005.628, 741.076 1009.424, 749 1017.456 L 760 1028.605 760 1066.535 L 760 1104.464 824.740 1169.232 L 889.479 1234 981.068 1234 L 1072.657 1234 1073.850 1239.172 C 1077.840 1256.456, 1092.301 1272.164, 1109.734 1278.149 C 1119.300 1281.433, 1134.668 1281.444, 1144.190 1278.174 C 1162.691 1271.821, 1176.519 1256.326, 1180.489 1237.500 C 1183.257 1224.375, 1181.624 1212.797, 1175.305 1200.743 C 1158.272 1168.250, 1114.436 1161.625, 1088.376 1187.605 C 1081.245 1194.715, 1075.519 1205.338, 1073.722 1214.791 L 1072.542 1221 983.518 1221 L 894.494 1221 834.247 1160.747 L 774 1100.494 774 1062.204 L 774 1023.914 769.333 1018.925 C 765.775 1015.121, 764.943 1013.657, 765.833 1012.767 C 766.475 1012.125, 767 1010.672, 767 1009.539 C 767 1006.673, 735.240 975, 732.366 975 C 731.144 975, 728.504 976.900, 726.098 979.510 M 318.750 988.080 C 315.952 989.710, 313.793 994.783, 314.510 998.046 C 315.341 1001.829, 320.349 1006, 324.061 1006 C 325.848 1006, 328.110 1004.940, 329.931 1003.250 C 336.455 997.196, 332.898 986.961, 324.295 987.030 C 322.208 987.047, 319.712 987.519, 318.750 988.080 M 562.748 1012.750 C 554.007 1021.413, 546.264 1029.850, 545.542 1031.500 C 544.819 1033.150, 537.506 1041.138, 529.289 1049.250 C 516.526 1061.851, 513.899 1064, 511.257 1064 C 506.566 1064, 505.201 1064.860, 503.971 1068.588 L 502.845 1072 489.629 1072 L 476.413 1072 449.972 1098.452 C 435.430 1113.001, 423.375 1125.376, 423.183 1125.952 C 422.967 1126.600, 418.530 1127, 411.566 1127 C 405.369 1127, 398.911 1127.484, 397.215 1128.075 C 391.119 1130.200, 391 1130.880, 391 1163.542 L 391 1193.154 393.923 1196.077 L 396.846 1199 429.867 1199 L 462.888 1199 465.694 1196.588 L 468.500 1194.176 468.794 1164.902 C 468.987 1145.664, 468.720 1134.739, 468.015 1133.036 C 466.160 1128.557, 463.407 1127.602, 451.121 1127.173 L 439.742 1126.776 460.612 1105.888 L 481.482 1085 492.164 1085 L 502.845 1085 503.971 1088.412 C 504.590 1090.288, 505.787 1092.088, 506.630 1092.412 C 507.474 1092.735, 512.145 1093, 517.010 1093 C 526.987 1093, 528.495 1092.208, 529.585 1086.398 C 529.950 1084.452, 530.044 1079.321, 529.794 1074.997 L 529.338 1067.133 541.919 1054.666 C 548.839 1047.809, 555.419 1041.929, 556.542 1041.598 C 559.605 1040.697, 590 1009.691, 590 1007.467 C 590 1005.226, 582.230 997, 580.112 997 C 579.303 997, 571.489 1004.087, 562.748 1012.750 M 704.208 1001.288 C 701.894 1003.646, 700 1006.380, 700 1007.362 C 700 1008.345, 702.558 1011.830, 705.683 1015.107 L 711.367 1021.066 705.964 1026.536 L 700.561 1032.007 694.504 1026.004 C 691.172 1022.702, 687.764 1020, 686.931 1020 C 684.985 1020, 677 1028.102, 677 1030.076 C 677 1031.846, 710.074 1065, 711.839 1065 C 712.502 1065, 714.977 1063.218, 717.340 1061.041 L 721.635 1057.082 728.317 1063.816 L 735 1070.550 734.968 1091.525 L 734.937 1112.500 730.623 1115.115 C 719.966 1121.576, 719.151 1138.714, 729.141 1146.274 C 739.267 1153.937, 752.862 1150.938, 758.403 1139.818 C 761.246 1134.114, 761.532 1131.457, 759.928 1125.679 C 758.769 1121.507, 752.980 1114.446, 749.922 1113.475 C 748.096 1112.896, 748 1111.661, 748 1088.670 L 748 1064.475 733 1049.500 C 724.750 1041.264, 718 1034.047, 718 1033.463 C 718 1032.878, 718.532 1031.868, 719.183 1031.217 C 720.093 1030.307, 721.800 1031.412, 726.596 1036.017 C 730.023 1039.308, 733.540 1042, 734.411 1042 C 735.282 1042, 737.796 1040.373, 739.997 1038.384 C 746.641 1032.382, 746.319 1031.725, 727.681 1013.210 C 718.706 1004.295, 710.700 997, 709.890 997 C 709.079 997, 706.523 998.930, 704.208 1001.288 M 843.168 1003.146 C 831.944 1008.702, 829.449 1024.233, 838.302 1033.439 C 843.486 1038.830, 849.287 1040.722, 855.960 1039.199 C 859.459 1038.401, 860.855 1038.485, 862.433 1039.591 C 863.540 1040.366, 865.140 1041, 865.989 1041 C 866.838 1041, 872.588 1046.070, 878.766 1052.266 L 890 1063.531 890 1073.616 C 890 1091.261, 891.679 1093, 908.712 1093 L 919.523 1093 935.500 1109 L 951.477 1125 956.738 1125 C 961.591 1125, 962 1125.182, 962 1127.345 C 962 1131.747, 964.797 1133.001, 974.579 1132.985 C 979.485 1132.976, 983.995 1132.639, 984.600 1132.235 C 987.030 1130.612, 988 1126.727, 988 1118.613 C 988 1109.123, 986.924 1105.742, 983.390 1104.132 C 981.055 1103.068, 981 1102.753, 981 1090.521 C 981 1080.341, 981.267 1078, 982.427 1078 C 983.213 1078, 984.825 1076.766, 986.011 1075.258 C 987.961 1072.780, 988.136 1071.535, 987.834 1062.292 C 987.416 1049.511, 986.813 1048.724, 977.011 1048.170 C 963.077 1047.383, 962 1048.477, 962 1063.416 C 962 1073.068, 962.263 1074.928, 963.829 1076.345 C 964.835 1077.255, 966.185 1078, 966.829 1078 C 967.664 1078, 968 1081.733, 968 1091 C 968 1101.600, 967.736 1104, 966.571 1104 C 964.363 1104, 962 1106.880, 962 1109.571 C 962 1111.557, 961.496 1112, 959.236 1112 C 957.024 1112, 953.887 1109.410, 943.545 1099.045 L 930.620 1086.091 930.885 1076.194 C 931.175 1065.400, 929.768 1060.017, 926.150 1058.080 C 925.040 1057.486, 919.080 1057, 912.905 1057 L 901.678 1057 889.485 1044.945 C 882.778 1038.315, 875.763 1032.125, 873.896 1031.189 C 871.451 1029.965, 870.594 1028.930, 870.836 1027.494 C 871.722 1022.233, 871.181 1014.237, 869.754 1011.500 C 864.822 1002.039, 852.944 998.307, 843.168 1003.146 M 845.455 1013.455 C 840.375 1018.534, 843.367 1028.228, 850.422 1029.551 C 857.201 1030.823, 862.999 1024.827, 861.517 1018.078 C 860.023 1011.275, 850.403 1008.506, 845.455 1013.455 M 584.739 1036.761 C 575.533 1045.979, 568 1054.247, 568 1055.133 C 568 1056.892, 576.270 1065, 578.064 1065 C 578.674 1065, 581.973 1062.311, 585.395 1059.025 L 591.618 1053.050 597.026 1058.526 L 602.435 1064.003 596.717 1069.780 C 593.558 1072.973, 591 1076.461, 591 1077.576 C 591 1080.123, 597.942 1087, 600.513 1087 C 601.574 1087, 605.046 1084.423, 608.229 1081.273 L 614.016 1075.547 626.008 1087.508 L 638 1099.469 638 1154.101 L 638 1208.734 634.020 1211.368 C 622.767 1218.815, 623.166 1236.966, 634.741 1244.163 C 640.429 1247.699, 650.229 1247.499, 655.659 1243.736 C 666.961 1235.904, 666.879 1218.032, 655.509 1211.005 L 652 1208.837 652 1151.746 L 652 1094.655 637.818 1080.352 L 623.637 1066.048 629.818 1059.611 C 633.218 1056.070, 636 1052.899, 636 1052.564 C 636 1050.870, 627.485 1043, 625.652 1043 C 624.445 1043, 621.111 1045.421, 617.780 1048.717 L 612.003 1054.435 606.526 1049.026 L 601.050 1043.618 607.025 1037.395 C 610.311 1033.973, 613 1030.589, 613 1029.874 C 613 1028.029, 604.894 1020, 603.031 1020 C 602.177 1020, 593.945 1027.542, 584.739 1036.761 M 96 1023.706 C 93.239 1024.716, 90.068 1028.263, 88.980 1031.561 C 87.605 1035.727, 89.640 1041.063, 93.590 1043.651 C 102.862 1049.726, 114.423 1039.402, 109.622 1029.333 C 107.370 1024.611, 100.870 1021.926, 96 1023.706 M 658.098 1047.510 C 653.133 1052.896, 653.094 1052.773, 662.929 1062.473 L 670 1069.446 670 1111.398 L 670 1153.350 684.500 1167.967 L 699 1182.583 699 1188.226 C 699 1194.165, 700.322 1198.948, 702.313 1200.214 C 702.966 1200.630, 707.593 1200.976, 712.595 1200.985 C 722.299 1201.001, 723.916 1200.279, 725.449 1195.250 C 726.060 1193.247, 726.785 1193, 732.067 1193 L 738 1193 738 1198.845 C 738 1207.368, 739.011 1208, 752.638 1208 C 767.180 1208, 767.397 1207.833, 767.841 1196.305 C 768.383 1182.249, 767.416 1181.752, 736.807 1180.363 L 726.115 1179.877 725.006 1176.519 C 723.670 1172.471, 720.226 1171, 712.085 1171 L 706.469 1171 694.734 1159.235 L 683 1147.470 683 1115.735 C 683 1098.197, 683.393 1084, 683.878 1084 C 684.360 1084, 685.315 1084.675, 686 1085.500 C 686.685 1086.325, 688.223 1087, 689.419 1087 C 692.110 1087, 699 1080.129, 699 1077.446 C 699 1074.667, 667.161 1043, 664.366 1043 C 663.144 1043, 660.504 1044.900, 658.098 1047.510 M 223.236 1047.982 C 212.633 1050.488, 205.525 1062.460, 208.896 1072.132 C 210.005 1075.314, 209.884 1075.559, 204.519 1080.981 L 199 1086.558 199 1117.304 L 199 1148.050 196.482 1149.007 C 192.863 1150.383, 191.796 1154.256, 192.170 1164.647 C 192.626 1177.293, 193.332 1178, 205.500 1178 C 217.825 1178, 218.005 1177.791, 217.985 1163.421 C 217.968 1151.790, 217.751 1150.958, 214.250 1149.115 C 212.010 1147.935, 212.001 1147.827, 212.116 1124.715 C 212.180 1111.947, 212.430 1102.248, 212.673 1103.163 C 212.915 1104.077, 214.718 1105.587, 216.679 1106.518 C 220.644 1108.399, 220.533 1108.433, 230 1102.429 C 233.025 1100.511, 238.466 1098.056, 242.090 1096.976 C 254.014 1093.420, 255.810 1087.839, 247.768 1079.336 C 244.562 1075.947, 244.764 1074, 248.323 1074 C 249.817 1074, 254.640 1078.120, 263.264 1086.764 L 276 1099.528 276 1113.166 L 276 1126.804 262.750 1127.171 C 247.814 1127.585, 245.559 1128.402, 243.906 1134 C 243.266 1136.167, 242.992 1148.294, 243.186 1165.838 L 243.500 1194.176 246.306 1196.588 L 249.112 1199 281.979 1199 L 314.847 1199 317.923 1196.411 L 321 1193.822 321 1163.845 C 321 1144.284, 320.625 1133.167, 319.920 1131.850 C 318.004 1128.271, 312.924 1127, 300.532 1127 L 289 1127 289 1110.212 L 289 1093.423 272.183 1076.712 C 255.375 1060.008, 255.365 1060, 250.816 1060 C 246.619 1060, 246.061 1059.691, 243.632 1056.020 C 239.494 1049.768, 230.565 1046.249, 223.236 1047.982 M 1119.400 1055.400 C 1116.613 1058.187, 1116 1059.557, 1116 1063 C 1116 1068.727, 1121.010 1074, 1126.450 1074 C 1133.783 1074, 1138 1069.747, 1138 1062.353 C 1138 1057.014, 1132.673 1052, 1127 1052 C 1123.557 1052, 1122.187 1052.613, 1119.400 1055.400 M 223.476 1058.396 C 218.078 1060.748, 216.418 1067.719, 220.131 1072.440 C 223.052 1076.153, 226.496 1077.321, 230.562 1075.979 C 234.502 1074.679, 237 1071.183, 237 1066.969 C 237 1062.815, 235.536 1060.329, 232.020 1058.510 C 228.510 1056.695, 227.413 1056.681, 223.476 1058.396 M 1010.500 1062.417 C 1004.290 1065.189, 999 1073.402, 999 1080.272 C 999 1085.618, 1003.600 1093.713, 1008.097 1096.280 L 1011.985 1098.500 1011.992 1115.483 L 1012 1132.466 1001.768 1142.733 C 996.140 1148.380, 990.789 1153, 989.876 1153 C 988.953 1153, 987.946 1151.922, 987.607 1150.570 C 986.407 1145.789, 984.563 1145, 974.584 1145 C 964.562 1145, 962 1146.187, 962 1150.829 C 962 1152.944, 961.670 1153, 949.187 1153 C 936.421 1153, 936.364 1152.990, 933.658 1150.165 C 931.053 1147.446, 930.932 1146.850, 930.721 1135.686 C 930.507 1124.428, 930.408 1123.951, 927.727 1121.271 L 924.955 1118.500 910.500 1118.500 L 896.045 1118.500 893.273 1121.273 C 890.539 1124.006, 890.500 1124.222, 890.500 1136.500 C 890.500 1148.778, 890.539 1148.994, 893.273 1151.727 C 895.941 1154.396, 896.492 1154.513, 907.907 1154.852 L 919.770 1155.204 925.101 1160.602 L 930.432 1166 946.216 1166 C 961.913 1166, 962 1166.012, 962.015 1168.250 C 962.047 1172.937, 965.838 1175, 974.416 1175 C 982.215 1175, 985.699 1173.474, 987.167 1169.414 C 988.327 1166.207, 988.679 1166, 992.968 1166 C 997.447 1166, 997.743 1165.790, 1008.438 1155.062 L 1019.342 1144.124 1021.806 1146.062 C 1026.678 1149.895, 1028.366 1148.965, 1043.170 1134.296 C 1058.633 1118.974, 1059.273 1117.629, 1054.469 1110.550 C 1048.031 1101.063, 1041 1080.853, 1041 1071.834 C 1041 1068.258, 1040.389 1066.428, 1038.411 1064.077 L 1035.822 1061 1024.661 1061.039 C 1017.577 1061.064, 1012.404 1061.567, 1010.500 1062.417 M 1015.388 1070.980 C 1012.262 1072.243, 1009 1076.879, 1009 1080.058 C 1009 1083.651, 1013.235 1088.673, 1016.954 1089.490 C 1020.322 1090.230, 1025.406 1087.979, 1026.970 1085.055 C 1028.312 1082.549, 1028.286 1077.403, 1026.920 1074.850 C 1026.325 1073.739, 1024.315 1072.194, 1022.452 1071.415 C 1018.626 1069.817, 1018.315 1069.798, 1015.388 1070.980 M 505.408 1107.102 C 503.954 1108.708, 503.419 1111.103, 503.140 1117.254 C 502.683 1127.317, 504.144 1132.747, 507.537 1133.599 L 510 1134.217 510 1158.883 L 510 1183.549 483.207 1210.275 L 456.415 1237 426.344 1237 L 396.273 1237 393.636 1239.636 L 391 1242.273 391 1272.500 L 391 1302.727 393.636 1305.364 C 396.088 1307.816, 396.893 1308, 405.136 1308 L 414 1308 414 1324 L 414 1340 403.657 1340 C 396.076 1340, 391.829 1339.489, 387.756 1338.088 C 377.838 1334.676, 369.402 1328.147, 365.129 1320.575 C 359.586 1310.753, 352.363 1310.917, 346.699 1320.994 C 342.652 1328.193, 334.115 1334.692, 324.244 1338.088 C 319.172 1339.833, 315.528 1340, 282.525 1340 C 243.975 1340, 240.833 1339.675, 232.233 1334.794 C 223.176 1329.653, 215.497 1319.699, 212.670 1309.434 C 211.377 1304.740, 211 1299.014, 211 1284.098 L 211 1264.827 204.836 1258.408 C 200.203 1253.583, 197.657 1251.747, 194.586 1251.014 C 192.339 1250.478, 187.800 1249.130, 184.500 1248.019 C 174.360 1244.606, 173.729 1244.822, 164.283 1254.945 C 151.399 1268.752, 139.109 1276.377, 122.292 1280.996 C 112.445 1283.700, 96.739 1284.634, 87.500 1283.065 C 73.959 1280.764, 72.705 1280.765, 70 1283.082 L 67.500 1285.224 67.222 1333.605 C 66.973 1377.106, 67.110 1382.239, 68.589 1384.495 L 70.233 1387.004 324.328 1386.752 L 578.423 1386.500 579.934 1383.809 C 581.241 1381.479, 581.261 1380.538, 580.079 1376.809 C 579.292 1374.326, 578.531 1366.178, 578.282 1357.587 C 577.891 1344.045, 578.055 1342.114, 580.070 1336.588 C 585.515 1321.656, 597.679 1312.579, 613.926 1311.326 C 626.020 1310.394, 626.425 1309.829, 626.829 1293.334 C 627.100 1282.241, 626.874 1279.457, 625.539 1277.420 C 623.778 1274.731, 609.452 1265, 607.256 1265 C 603.674 1265, 600.122 1268.123, 598.466 1272.729 C 591.986 1290.755, 580.876 1302.710, 565.778 1307.904 C 558.267 1310.488, 548.898 1311.325, 540.767 1310.138 C 533.336 1309.054, 521.733 1303.954, 515.591 1299.072 C 511.213 1295.593, 506.689 1295.067, 503.781 1297.698 C 501.982 1299.326, 501.221 1298.712, 485.491 1282.948 L 469.078 1266.500 468.920 1254.626 L 468.762 1242.752 495.881 1215.619 L 523 1188.487 523 1161.352 L 523 1134.217 525.400 1133.614 C 528.601 1132.811, 530 1128.494, 530 1119.416 C 530 1111.995, 528.820 1107.142, 526.687 1105.786 C 526.034 1105.370, 521.407 1105.024, 516.405 1105.015 C 508.422 1105.002, 507.077 1105.257, 505.408 1107.102 M 734.455 1124.455 C 729.506 1129.403, 732.275 1139.023, 739.078 1140.517 C 745.164 1141.854, 751 1137.012, 751 1130.626 C 751 1129.266, 749.835 1126.769, 748.411 1125.077 C 746.233 1122.489, 745.114 1122, 741.366 1122 C 737.967 1122, 736.326 1122.583, 734.455 1124.455 M 571.871 1146.006 C 563.971 1150.181, 559.902 1158.678, 561.819 1167 L 562.856 1171.500 552.428 1182.101 L 542 1192.701 542 1216.825 L 542 1240.949 538.980 1242.510 C 534.788 1244.678, 530.221 1251.345, 529.462 1256.404 C 526.591 1275.548, 549.908 1286.592, 563.186 1272.376 C 571.493 1263.483, 568.700 1248.076, 557.750 1242.379 L 555 1240.949 555 1219.703 L 555 1198.458 563.750 1189.789 L 572.500 1181.120 577 1182.169 C 585.507 1184.151, 593.926 1179.985, 598.152 1171.703 C 601 1166.119, 600.399 1157.713, 596.759 1152.212 C 591.760 1144.658, 579.980 1141.721, 571.871 1146.006 M 574.712 1156.012 C 569.566 1160.060, 570.415 1168.612, 576.262 1171.636 C 582.747 1174.989, 590 1170.431, 590 1163.002 C 590 1155.312, 580.894 1151.149, 574.712 1156.012 M 784 1182.664 C 779.699 1184.375, 779 1186.090, 779 1194.932 C 779 1204.611, 780.441 1208, 784.557 1208 C 786.592 1208, 787 1208.489, 787 1210.933 C 787 1213.104, 786.416 1214.043, 784.750 1214.551 C 779.779 1216.066, 779 1217.744, 779 1226.932 C 779 1236.422, 780.181 1239.327, 784.477 1240.405 C 786.981 1241.033, 787 1241.121, 787 1251.904 C 787 1262.287, 786.893 1262.840, 784.587 1264.351 C 783.260 1265.221, 781.896 1267.198, 781.556 1268.745 L 780.938 1271.558 756.865 1271.853 C 741.375 1272.043, 730.442 1272.640, 726.201 1273.527 C 719.989 1274.827, 719.176 1275.340, 712.055 1282.461 L 704.500 1290.016 704.500 1308.403 C 704.500 1324.143, 704.740 1327.057, 706.164 1328.645 C 707.079 1329.665, 708.767 1333.298, 709.914 1336.718 C 712.673 1344.944, 712.864 1364.930, 710.276 1374.642 C 708.724 1380.465, 708.703 1381.380, 710.064 1383.806 L 711.577 1386.500 933.131 1386.752 L 1154.686 1387.004 1156.593 1384.899 C 1158.373 1382.933, 1158.519 1380.631, 1158.790 1350.200 C 1159.098 1315.553, 1158.850 1313.328, 1154.414 1310.954 C 1152.379 1309.865, 1150.813 1309.879, 1145.230 1311.035 C 1134.521 1313.253, 1115.156 1312.771, 1105.500 1310.047 C 1084.208 1304.040, 1068.092 1292.715, 1055.441 1274.871 C 1052.326 1270.477, 1049.072 1266.984, 1047.766 1266.635 C 1046.520 1266.301, 1009.950 1266.016, 966.500 1266.002 C 883.520 1265.975, 882.574 1265.929, 874 1261.506 C 872.075 1260.513, 865.934 1255.268, 860.354 1249.850 C 852.278 1242.009, 849.621 1240, 847.327 1240 C 843.030 1240, 840.625 1242.217, 837.595 1248.967 C 832.743 1259.779, 821.051 1269.440, 810.187 1271.613 L 807 1272.250 807 1265.548 C 807 1259.413, 806.742 1258.589, 803.955 1255.802 C 801.134 1252.980, 800.932 1252.309, 801.205 1246.629 C 801.469 1241.148, 801.737 1240.466, 803.741 1240.182 C 807.626 1239.630, 809 1236.316, 809 1227.500 C 809 1218.610, 807.746 1215.655, 803.523 1214.595 C 801.532 1214.095, 801 1213.334, 801 1210.981 C 801 1208.667, 801.447 1208, 803 1208 C 804.100 1208, 805.900 1207.100, 807 1206 C 808.682 1204.318, 809 1202.667, 809 1195.611 C 809 1183.419, 808.124 1182.565, 795.340 1182.284 C 789.928 1182.165, 784.825 1182.336, 784 1182.664 M 94.190 1188.026 C 89.801 1190.701, 87.497 1196.118, 88.961 1200.317 C 91.483 1207.552, 97.907 1210.562, 104.326 1207.516 C 107.781 1205.876, 111 1201.046, 111 1197.500 C 111 1194.053, 107.782 1189.125, 104.522 1187.577 C 100.157 1185.506, 98.182 1185.592, 94.190 1188.026 M 703.828 1213.136 C 700.525 1214.346, 699 1218.379, 699 1225.909 L 699 1231.519 679 1251.500 L 659 1271.481 659 1307.241 L 659 1343 656.655 1343 C 652.174 1343, 651 1345.755, 651 1356.272 C 651 1368.668, 651.378 1369, 665.500 1369 C 679.655 1369, 680 1368.693, 680 1356.098 C 680 1345.524, 678.877 1343, 674.171 1343 L 672 1343 672 1310.240 L 672 1277.479 689.760 1259.740 L 707.520 1242 714.178 1242 C 722.639 1242, 723.657 1241.570, 725.029 1237.412 C 726.135 1234.062, 726.258 1234, 731.840 1234 C 736.761 1234, 737.658 1234.300, 738.513 1236.232 C 740.243 1240.145, 743.653 1241.117, 754.371 1240.754 C 767.147 1240.321, 768 1239.492, 768 1227.500 C 768 1215.457, 767.102 1214.584, 754.340 1214.217 C 743.666 1213.910, 740.223 1214.900, 738.513 1218.768 C 737.658 1220.700, 736.761 1221, 731.840 1221 C 726.255 1221, 726.135 1220.940, 725.026 1217.580 C 724.222 1215.142, 723.008 1213.850, 720.800 1213.080 C 717.030 1211.766, 707.484 1211.798, 703.828 1213.136 M 1122.388 1215.980 C 1116.662 1218.294, 1114.299 1226.312, 1117.665 1232.010 C 1121.843 1239.083, 1133.119 1238.675, 1136.883 1231.316 C 1139.123 1226.936, 1138.261 1222.061, 1134.600 1218.400 C 1131.071 1214.871, 1127.087 1214.081, 1122.388 1215.980 M 639.301 1219.772 C 632.198 1225.354, 635.985 1237, 644.903 1237 C 651.314 1237, 655.991 1230.532, 653.982 1224.445 C 652.056 1218.611, 644.030 1216.056, 639.301 1219.772 M 542.494 1252.252 C 540.732 1253.767, 539.692 1255.876, 539.313 1258.703 C 538.814 1262.427, 539.096 1263.250, 541.798 1265.952 C 545.961 1270.115, 550.991 1270.163, 555.077 1266.077 C 563.517 1257.637, 551.536 1244.474, 542.494 1252.252 M 468.858 1294.457 C 468.525 1302.558, 468.302 1303.344, 465.694 1305.587 C 463.207 1307.726, 461.929 1308, 454.444 1308 L 446 1308 446 1324 L 446 1340 455.818 1340 C 466.493 1340, 473.018 1338.526, 480.260 1334.478 C 485.653 1331.464, 493.043 1323.797, 495.841 1318.313 L 497.867 1314.341 483.541 1300.041 L 469.216 1285.741 468.858 1294.457 M 770.506 1289.157 C 766.592 1290.204, 764.050 1293.682, 764.022 1298.027 C 763.979 1304.927, 769.874 1309.187, 776.459 1307.014 C 782.868 1304.898, 784.912 1297.425, 780.511 1292.195 C 777.710 1288.866, 774.845 1287.996, 770.506 1289.157 M 511.775 1315.559 C 506.354 1318.501, 505.377 1324.918, 509.589 1329.923 C 511.744 1332.485, 512.901 1333, 516.500 1333 C 520.099 1333, 521.256 1332.485, 523.411 1329.923 C 527.695 1324.832, 526.630 1318.412, 521.020 1315.510 C 517.411 1313.644, 515.283 1313.655, 511.775 1315.559 M 611.405 1345.105 C 609.829 1346.846, 609.500 1348.763, 609.500 1356.193 C 609.500 1368.359, 610.256 1369, 624.611 1369 C 638.489 1369, 639 1368.526, 639 1355.655 C 639 1343.146, 638.831 1343, 624.326 1343 C 614.397 1343, 613.122 1343.208, 611.405 1345.105" stroke="none" fill="#050505" fill-rule="evenodd"/></svg>